<svg id="Layer_1" xmlns="http://www.w3.org/2000/svg" baseProfile="tiny" version="1.2" viewBox="0 0 1983.8 1670.3">
  <path d="M1124.7,889.4c1.7,114.8-178.7,114.8-177,0-1.7-114.8,178.7-114.8,177,0Z" fill="#a2137d"/>
  <path d="M990.2,738.6c-49.6-176.3,110.6-250.6,207.9-372.1,78.8-105,57.6-137.6,133.7-243.2,27,13.3-26.6,93.1-25.2,101.6-41.4,98.2-14.2,167.9,9.4,253.1,23.1,91.2-35.9,273-183.5,278.4-47,11.3-124.2,31.3-142.4-17.9Z" fill="#a2137d"/>
  <path d="M1173,841.1c94.9,107.1,364.2,129.9,542.2-26.5,100.5-149.9,71.3-192.8,255.7-253.2-28.9-54.6-209.9-30.5-279-40.2-295.1-25.3-351.4,185.5-518.9,319.9Z" fill="#a2137d"/>
  <path d="M1188.5,945.4c164.5,8,370.6,116,484.6,298.1,81.6,115.3,190.9,242.2,303.7,360.3,8.7,7.6,9,20.4,2.6,27.1-6.9,7.2-20.9,6.9-28.4-3-70.2-54.6-119.3-89.3-191.9-108.2-98.7-9.8-86,13.4-236.2-6.9-219.3-72.1-405.1-279.3-334.4-567.4Z" fill="#a2137d"/>
  <path d="M857.2,1099c188-186.8,371.5,78,211.2,286.7-37.1,75.5-61.5,100.1-101.8,191.4-19.3,52.8-19.6,130.5-69.2,72.8,90.1-220.7-256.7-376.8-40.1-550.9Z" fill="#a2137d"/>
  <path d="M911.3,862.7c-12.9,118-127.7,215.2-292.5,264.1-29.2,7.4-269.4,11.8-294,12.2-62-14.9-215.6,51.9-324.7,42.5,145.4-92.5,187.7-74.4,258-225.7,116.7-167.8,500.1-266.9,653.2-93Z" fill="#a2137d"/>
  <path d="M906.5,739.1c74.6-94.5-36.3-441.8-133.5-522-72.8-56-112.7-19.7-179.2-85.4C543.1,90.5,496.3,30.5,440.9.6c-17.7,47.8,32.4,108.1,52.1,134.9,31.8,49,38.4,273.4,69.2,325,13.4,87,245.2,336.5,344.2,278.6Z" fill="#a2137d"/>
</svg>