<?xml version="1.0" encoding="UTF-8"?>
<svg id="Layer_1" data-name="Layer 1" xmlns="http://www.w3.org/299B836/svg" xmlns:xlink="http://www.w3.org/1999/xlink" viewBox="0 0 1542.05 2141.79">
  <defs>
    <style>
      .cls-1, .cls-2, .cls-3 {
        fill: none;
      }

      .cls-2, .cls-3 {
        stroke: #77b09f;
        stroke-miterlimit: 10;
      }

      .cls-4 {
        clip-path: url(#clippath-1);
      }

      .cls-5 {
        fill: #d76f2c;
      }

      .cls-3 {
        stroke-width: 7px;
      }

      .cls-6 {
        clip-path: url(#clippath);
      }
    </style>
    <clipPath id="clippath">
      <rect class="cls-1" x="-2108.87" y="-3181.81" width="4285.98" height="2205.35"/>
    </clipPath>
    <clipPath id="clippath-1">
      <path class="cls-2" d="M22.84-7050.01c466.98,622.71,933.95,1245.41,1400.93,1868.12,215.85,287.84,430.91,575.64,656.72,855.8,126.59,157.05,254.36,313.34,375.64,474.56,110.03,146.27,219.63,292.87,329.45,439.31,277.12,369.53,554.23,739.06,831.35,1108.59-32.5,33.12-64.99,66.24-97.42,99.43-134.83,138.05-267.84,277.84-396.82,421.39-71.86,79.98-143.63,160.14-208.94,245.63-70.28,91.99-134.85,188.25-196.27,286.34-243.76,389.28-439.39,806.45-683.82,1195.33-104.84,166.8-218.38,333.46-358.53,472.93-131.93,131.29-287.34,236.04-448.51,327.9-346.74,197.62-729.71,339.89-1041.36,594.72-174.71,142.85-312.28,325.35-443,507.8-158.9,221.79-304.59,452.7-451.65,682.39-145.62-194.18-291.23-388.35-436.85-582.53-66.22-88.31-130.11-179.11-201.19-263.61-69.64-82.79-146.12-159.45-223.41-235.03-126.43-123.62-254.55-245.82-361.21-387.49-105.39-139.98-210.25-280.36-315.37-420.54-102.71-136.97-210.65-271.47-307.66-412.55-103.04-149.85-183.47-313.77-269.39-473.62-42.74-79.5-86.68-158.48-135.43-234.49-47.58-74.17-101.64-143.73-154.47-214.17-111.52-148.71-223.04-297.42-334.56-446.13-250.1-333.51-500.2-667.02-750.31-199B836.52,146-236.99,290.4-475.41,449.91-703.68,127.98-183.14,263.94-366.21,439.35-506.87,311.96-250.16,698.71-376.85,1047.5-563.87,162.49-87.13,319.01-188.46,450.76-318.45,143.69-141.77,247.04-316.25,332.7-497.71,204.51-433.24,318.61-902.88,521.9-1336.63,49.6-105.82,104.89-209.45,170.78-306.1,61.47-90.16,133.95-171.83,212.02-247.92,141.96-138.37,304.06-251.59,473.06-354.26,41.17-25.01,82.64-49.55,124.11-74.07Z"/>
    </clipPath>
  </defs>
  <g class="cls-6">
    <g>
      <g class="cls-4">
        <g>
          <path class="cls-3" d="M3386.66-2610.67c-141.59,144.3-282.65,289.1-419.24,438.17-130.53,142.46-258.65,286.23-368.92,445.25-120.14,173.25-225.73,356.23-328.21,540.31-113.41,203.72-222.51,409.85-339.19,611.74-123.62,213.89-255.44,425.35-417.68,612.45"/>
          <path class="cls-3" d="M38.54-1929.5c-180.84,205.2-412.78,358.04-645.99,497.19-365.31,217.97-761.17,402.47-1083.66,684.46-150.72,131.8-274.52,291.54-389.9,454.34-131.85,186.04-250.41,381-368.92,575.67"/>
          <path class="cls-3" d="M97.53-1850.83c-180.84,205.2-412.78,358.04-645.99,497.19-365.31,217.97-761.17,402.47-1083.66,684.46-150.72,131.8-274.52,291.54-389.9,454.34-131.85,186.04-250.41,381-368.92,575.67"/>
          <path class="cls-3" d="M156.53-1772.16c-180.84,205.2-412.78,358.04-645.99,497.19-365.31,217.97-761.17,402.47-1083.66,684.46-150.72,131.8-274.52,291.54-389.9,454.34-131.85,186.04-250.41,381-368.92,575.67"/>
          <path class="cls-3" d="M215.52-1693.49c-180.84,205.2-412.78,358.04-645.99,497.19-365.31,217.97-761.17,402.47-1083.66,684.46-150.72,131.8-274.52,291.54-389.9,454.34-131.85,186.04-250.41,381-368.92,575.67"/>
          <path class="cls-3" d="M274.52-1614.82c-180.84,205.2-412.78,358.04-645.99,497.19-365.31,217.97-761.17,402.47-1083.66,684.46-150.72,131.8-274.52,291.54-389.9,454.34-131.85,186.04-250.41,381-368.92,575.67"/>
          <path class="cls-3" d="M333.52-1536.15c-180.84,205.2-412.78,358.04-645.99,497.19-365.31,217.97-761.17,402.47-1083.66,684.46-150.72,131.8-274.52,291.54-389.9,454.34-131.85,186.04-250.41,381-368.92,575.67"/>
          <path class="cls-3" d="M392.51-1457.48c-180.84,205.2-412.78,358.04-645.99,497.19-365.31,217.97-761.17,402.47-1083.66,684.46-150.72,131.8-274.52,291.54-389.9,454.34-131.85,186.04-250.41,381-368.92,575.67"/>
          <path class="cls-3" d="M451.51-1378.81c-180.84,205.2-412.78,358.04-645.99,497.19-365.31,217.97-761.17,402.47-1083.66,684.46-150.72,131.8-274.52,291.54-389.9,454.34-131.85,186.04-250.41,381-368.92,575.67"/>
          <path class="cls-3" d="M510.5-1300.14c-180.84,205.2-412.78,358.04-645.99,497.19C-500.8-584.99-896.65-400.48-1219.14-118.49c-150.72,131.8-274.52,291.54-389.9,454.34-131.85,186.04-250.41,381-368.92,575.67"/>
          <path class="cls-3" d="M569.5-1221.47c-180.84,205.2-412.78,358.04-645.99,497.19C-441.8-506.32-837.66-321.81-1160.14-39.82c-150.72,131.8-274.52,291.54-389.9,454.34-131.85,186.04-250.41,381-368.92,575.67"/>
          <path class="cls-3" d="M628.49-1142.8C447.63-937.57,216.02-784.62-17.39-645.72-381.96-428.79-776.93-245.5-1098.51,35.83c-150.69,131.83-274.45,291.49-389.84,454.27-132.34,186.7-251.46,382.29-370.56,577.55"/>
          <path class="cls-3" d="M687.49-1064.13c-179.4,203.58-408.65,355.34-640.53,492.59C-316.6-356.35-710.77-175.72-1031.06,104.57c-149.96,131.23-273.12,290.28-388.1,452.19-134.18,188.93-255.15,386.78-376.14,584.28"/>
          <path class="cls-3" d="M746.49-985.46c-178.65,202.71-406.96,353.29-638.45,488.9C-251.87-285.71-642.14-109.39-958.48,167.45c-149.41,130.76-272,289.41-386.79,450.57-136.65,191.86-260.09,392.7-383.59,593.14"/>
          <path class="cls-3" d="M805.48-906.79c-176.09,199.79-400.93,347.85-629.67,480.51C-181.29-219.2-569.03-47.66-882.37,226.26c-150.45,131.53-273.53,291.87-389.1,454.01-138.2,193.88-263.54,396.52-388.96,598.77"/>
          <path class="cls-3" d="M864.48-828.12c-174.61,198.09-397.78,344.17-625.37,474.27C-111.83-153.24-492.51,12.24-800.36,279.42c-151.88,131.82-275.58,293.42-392.17,456.33-141.37,197.55-269.81,403.96-398.4,609.92"/>
          <path class="cls-3" d="M923.47-749.45c-172.34,195.5-392.64,339.11-618,466.19C-41.84-87.41-418.94,72.72-722.8,336.34c-152.09,131.95-275.67,294.47-392.55,457.43-143.73,200.41-274.71,409.59-405.88,618.31"/>
          <path class="cls-3" d="M982.47-670.78c-170.98,193.94-389.67,335.65-614,460.28C25.68-20.05-346.43,134.74-645.6,393.92c-151.72,131.44-274.78,293.91-391.55,456.17-146.79,204-280.82,416.83-415.07,629.17"/>
          <path class="cls-3" d="M1041.46-592.11c-168.68,191.32-384.12,330.9-606.01,452.82C95.11,47.71-274.72,198.04-571.22,454.72c-152.75,132.24-276.33,296.39-393.89,459.65-148.12,205.7-283.76,420.05-419.66,633.89"/>
          <path class="cls-3" d="M1100.46-513.44C932.22-322.62,717.47-183.82,495.6-63.27,159.68,119.24-204.64,265.42-497.37,517.23c-153.82,132.31-277.91,297.2-396.11,461-150.33,208.32-288.16,425.34-426.29,641.83"/>
          <path class="cls-3" d="M1159.45-434.77C991.45-244.21,777.48-105.52,555.57,14.28,221.09,194.85-141.44,338.75-432.55,589.23c-153.85,132.37-277.94,297.29-396.21,461.11-151.28,209.53-290.15,427.72-429.36,645.34"/>
          <path class="cls-3" d="M1218.45-356.1C1050.4-165.48,836.47-26.71,614.46,93.07,280.07,273.48-82.31,417.18-373.29,667.59c-153.83,132.38-277.9,297.25-396.17,461.06-151.35,209.64-290.31,427.92-429.61,645.64"/>
          <path class="cls-3" d="M1277.45-277.43C1109.4-86.81,895.47,51.96,673.45,171.74,339.07,352.15-23.31,495.85-314.29,746.26c-153.83,132.38-277.9,297.25-396.17,461.06-151.35,209.64-290.31,427.92-429.61,645.64"/>
          <path class="cls-3" d="M1336.44-198.76C1168.39-8.14,954.46,130.63,732.45,250.41,398.06,430.82,35.69,574.52-255.3,824.93c-153.83,132.38-277.9,297.25-396.17,461.06-151.35,209.64-290.31,427.92-429.61,645.64"/>
          <path class="cls-3" d="M1395.44-120.09c-168.05,190.62-381.98,329.39-603.99,449.17C457.06,509.49,94.68,653.19-196.3,903.6c-153.83,132.38-277.9,297.25-396.17,461.06-151.35,209.64-290.31,427.92-429.61,645.64"/>
          <path class="cls-3" d="M1454.43-41.42c-168.05,190.62-381.98,329.39-603.99,449.17-334.39,180.41-696.76,324.11-987.74,574.52-153.83,132.38-277.9,297.25-396.17,461.06-151.35,209.64-290.31,427.92-429.61,645.64"/>
          <path class="cls-3" d="M1513.43,37.25c-168.05,190.62-381.98,329.39-603.99,449.17-334.39,180.41-696.76,324.11-987.74,574.52-153.83,132.38-277.9,297.25-396.17,461.06-151.35,209.64-290.31,427.92-429.61,645.64"/>
          <path class="cls-3" d="M1572.42,115.92c-168.05,190.62-381.98,329.39-603.99,449.17C634.05,745.5,271.67,889.2-19.31,1139.61c-153.83,132.38-277.9,297.25-396.17,461.06-151.35,209.64-290.31,427.92-429.61,645.64"/>
          <path class="cls-3" d="M1631.42,194.59c-168.05,190.62-381.98,329.39-603.99,449.17-334.39,180.41-696.76,324.11-987.74,574.52-153.83,132.38-277.9,297.25-396.17,461.06-151.35,209.64-290.31,427.92-429.61,645.64"/>
          <path class="cls-3" d="M1690.41,273.26c-168.05,190.62-381.98,329.39-603.99,449.17-334.39,180.41-696.76,324.11-987.74,574.52-153.83,132.38-277.9,297.25-396.17,461.06-151.35,209.64-290.31,427.92-429.61,645.64"/>
          <path class="cls-3" d="M1749.41,351.93c-168.05,190.62-381.98,329.39-603.99,449.17-334.39,180.41-696.76,324.11-987.74,574.52C3.85,1508-120.23,1672.87-238.5,1836.68c-151.35,209.64-290.31,427.92-429.61,645.64"/>
        </g>
      </g>
      <path class="cls-2" d="M22.84-7050.01c466.98,622.71,933.95,1245.41,1400.93,1868.12,215.85,287.84,430.91,575.64,656.72,855.8,126.59,157.05,254.36,313.34,375.64,474.56,110.03,146.27,219.63,292.87,329.45,439.31,277.12,369.53,554.23,739.06,831.35,1108.59-32.5,33.12-64.99,66.24-97.42,99.43-134.83,138.05-267.84,277.84-396.82,421.39-71.86,79.98-143.63,160.14-208.94,245.63-70.28,91.99-134.85,188.25-196.27,286.34-243.76,389.28-439.39,806.45-683.82,1195.33-104.84,166.8-218.38,333.46-358.53,472.93-131.93,131.29-287.34,236.04-448.51,327.9-346.74,197.62-729.71,339.89-1041.36,594.72-174.71,142.85-312.28,325.35-443,507.8-158.9,221.79-304.59,452.7-451.65,682.39-145.62-194.18-291.23-388.35-436.85-582.53-66.22-88.31-130.11-179.11-201.19-263.61-69.64-82.79-146.12-159.45-223.41-235.03-126.43-123.62-254.55-245.82-361.21-387.49-105.39-139.98-210.25-280.36-315.37-420.54-102.71-136.97-210.65-271.47-307.66-412.55-103.04-149.85-183.47-313.77-269.39-473.62-42.74-79.5-86.68-158.48-135.43-234.49-47.58-74.17-101.64-143.73-154.47-214.17-111.52-148.71-223.04-297.42-334.56-446.13-250.1-333.51-500.2-667.02-750.31-199B836.52,146-236.99,290.4-475.41,449.91-703.68,127.98-183.14,263.94-366.21,439.35-506.87,311.96-250.16,698.71-376.85,1047.5-563.87,162.49-87.13,319.01-188.46,450.76-318.45,143.69-141.77,247.04-316.25,332.7-497.71,204.51-433.24,318.61-902.88,521.9-1336.63,49.6-105.82,104.89-209.45,170.78-306.1,61.47-90.16,133.95-171.83,212.02-247.92,141.96-138.37,304.06-251.59,473.06-354.26,41.17-25.01,82.64-49.55,124.11-74.07Z"/>
    </g>
  </g>
  <g>
    <path class="cls-5" d="M993.23,1057.24c29.45-49.43,214.13,59.29,330.34,200.58,28.18,34.26,53.94,72.82,105.45,149.93,57.9,86.67,87.07,130.77,98.02,168.32,28.03,96.11,14.94,217.99-23.76,308.02-84.79,197.26-268.41,185.47-288.74,183.7-32.02-2.78-106.77-10.82-170.75-91.98-7.18-9.11-100.82-131.28-83.3-275.38,12.44-102.32,69.08-118.23,69.37-221.67.18-66.49-23.18-71.53-22.49-160.24.44-56.58,10.11-74.68,10.02-149.41-.08-72.66-31.97-98.75-24.16-111.87Z"/>
    <path class="cls-5" d="M946.51,1134.67c26.63,7.89,48.28,136.36,28.64,220.88-10.13,43.59-22.25,48-28.48,92.92-8.42,60.74,10.16,78.53,7.63,137.72-3.26,76.3-35.51,78.79-42.75,151.15-8.84,88.4,36.36,114.01,29.82,197.59-6.68,85.34-60.41,142.97-70.53,153.82-108.36,116.23-259.71,6.14-268.24-.3-34.4-25.94-97.21-73.31-111.27-169.85-14.29-98.09,27.35-208.48,80.81-259.34,41.15-39.15,69.09-23.78,111.34-77.41,27.31-34.66,22.74-50.09,54.97-115.28,43.19-87.37,61.63-80.36,133.18-194.18,53.3-84.79,58.44-142.6,74.88-137.73Z"/>
    <path class="cls-5" d="M935.63,1106.62c1.57,27.38-31.14,88.2-116.97,175.17-41.64,42.2-69.74,70.68-99.48,121.12-42.74,72.53-43.99,114.33-97.13,191.88-19.39,28.29-17.75,20.59-49.91,64.48-30.1,41.08-53.54,77.86-94.99,147.02-88.9,148.33-80.11,144.35-93.53,156.7-65.06,59.91-144.47,36.28-195.04,21.23-59.65-17.75-158.74-47.24-183.49-150.08-16.69-69.36,9-136.51,58.03-264.67,39.04-102.05,65.71-171.75,120.79-207.3,28.66-18.5,52.77-19.84,77.49-56.52,25.33-37.59,18.01-62.9,37.62-110.13,39.26-94.53,123.2-124.67,138.45-130.14,39.43-14.15,44.51-.25,114.25-19.4,47.13-12.94,49.92-20.7,74.1-23.94,52.25-7.01,81.7,23.5,137.79,55.29,115.73,65.59,170.12-3.73,172.01,29.29Z"/>
    <path class="cls-5" d="M894.11,1067.56h0c-18.24,1.93-44.69,1.2-72.6-14.31-32.07-17.82-38.26-39.71-62.71-63.11-51.35-49.16-115.5-40.14-183.12-30.64-54.46,7.66-50.25,19.04-95.72,23.26-80.7,7.49-142.58-23.84-156.39-31.16-95.41-50.53-146.73-146.45-173.19-197.29-29.73-57.13-70.74-135.94-70.25-246.06.15-33.74.41-91.47,26.94-140.05,20.93-38.33,38.07-34.07,70.41-81.24,35.35-51.56,25.87-72.69,53.56-111.29,36.39-50.72,59.57-23.73,128.33-73.47,62.51-45.22,63.33-81.99,112.37-96.58,11.2-3.33,60.73-18.07,95,19.78,23.23,25.66,19.13,53.05,43.86,131.17,22.49,71.03,31.47,66.05,51.36,126.35,29.76,90.21,14.41,115.82,37.13,199.78,21.88,80.85,44.38,87.65,86.59,179.61,23.08,50.27,52.12,126.15,73.29,232.42l35.13,172.84Z"/>
    <path class="cls-5" d="M990.28,1019.14c21.1-5.47,22.26-51.4,52.89-67.62,21.95-11.63,34.02,5.24,70.48,13.47,23.86,5.38,80.1,18.07,114.13-21.63,18.54-21.63,24.87-66.7,37.52-156.85,8.58-61.14,12.75-92.18,6.63-115-10.46-39-30.54-38.22-88.49-96.63-48.49-48.88-50.15-65.26-92.74-98.88-33.82-26.69-56.41-43.92-82.58-34.6-19.24,6.86-32.99,27.79-59.7,69.37-25.26,39.32-40.71,63.39-52.12,94.42-44.85,121.96,5.05,263.65,18.35,301.42,6.6,18.74,42.64,121.08,75.65,112.53Z"/>
    <path d="M951.14,1156.76c-33.65-1.51-59.18-41.45-57.03-89.21,2.15-47.76,31.17-85.24,64.81-83.72,33.65,1.51,59.18,41.45,57.03,89.21-2.15,47.75-31.17,85.24-64.81,83.72Z"/>
  </g>
</svg>