<?xml version="1.0" encoding="UTF-8"?>
<svg id="Layer_1" xmlns="http://www.w3.org/2000/svg" baseProfile="tiny" version="1.2" viewBox="0 0 1543.8 2138.5">
  <path d="M990.1,1058c193.8-41,412.2,307.1,512.8,471.7,223.5,508.3-542.9,826.6-544.4,160.7,16.2-96.3,78.1-127.1,66.2-235.4-28.8-91.7-17.8-183.9-11.2-283.1.3-24.7-4.1-50-12.3-73.1-3.8-13.2-15.5-30.9-11-40.9Z" fill="#d76f2c"/>
  <path d="M943.2,1135.5c54.6,55.7,39.4,216.8,4.5,291.2-20.2,103.1,31.6,162.7-30.3,268.4-38.1,101.5,39,163.2,16,268.8-38.3,210.5-263.9,213.7-367.3,99.2-137.7-110.5-90.8-391.7,80.1-449.1,7.7-5.2,15.8-12.4,22.6-19.6,40.9-42,49.5-107.6,82.1-157.6,26.7-47.6,64.2-81.5,101.8-140.5,23.8-35.4,43.4-70.8,59.9-110.1,7.2-15.5,20.6-57.1,30.7-50.7Z" fill="#d76f2c"/>
  <path d="M931.8,1107c-8.3,70.1-82.2,137.3-131.5,190.6-92.6,80.8-113.9,188.9-178.8,293.4-72.8,90.7-138.3,196.2-196,297.9-39.4,102.5-126.9,135.3-225.1,101-213.3-37-245.7-213.8-147.3-403.6,32.5-82.9,64.5-182.5,123.6-220.9,162-69,55.6-205.9,238.3-291.9,46.1-22.5,102-12.5,150.6-32.5,83.2-48.1,144.6,9.9,220.3,49.5,92.9,40.7,143-11.4,145.8,16.5h0Z" fill="#d76f2c"/>
  <path d="M887.4,1068c-167.8-.2-73.8-185.6-390.5-87.6C187.6,1039.3-71.7,484.6,174.5,284.9c59.1-106,25.7-121.3,155.5-166.7,51.2-22.2,84.6-86.8,126.2-107.6,132.5-50.6,127.6,91,161.3,176.1,53.4,95.5,59.1,193.3,77.7,293.9,15.2,66.3,53.3,108.9,85.1,177.9,49.3,101.4,92.7,285.2,107.1,409.5Z" fill="#d76f2c"/>
  <path d="M986.3,1019.3c18.9-5.8,24.2-41,43-57.1,46.7-37.8,127,54,193.3-16.3,29.1-33.6,31.9-122.2,41.7-176.3,15.4-94.2,11.5-117-67.2-178.2-59.6-48.4-108.9-157.8-192.8-149.9-137.2,106.7-157.8,319.6-92.9,468.1,8.1,21.7,41.5,117.4,74.9,109.7Z" fill="#d76f2c"/>
  <path d="M947.4,1157.5c-84.3-10.9-72.7-181.4,15.4-171.9,73.5,21,63.5,168.8-15.4,171.9Z"/>
</svg>