<svg width="179" height="167" viewBox="0 0 179 167" fill="none" xmlns="http://www.w3.org/2000/svg">
<path d="M9.64212 82.7966C9.64212 83.7233 9.77719 83.9129 9.8707 84.7869C9.91226 85.2924 10.0473 87.1563 10.0473 87.6618C10.0473 89.1045 10.2759 91.2843 10.2759 92.0741C10.2759 92.3479 11.0552 92.4427 12.1046 92.4427C13.341 92.4427 14.9411 92.3058 15.9074 92.3058H15.949C15.9074 91.0526 15.9074 90.2207 15.9074 89.3783V87.1458C15.9074 86.0822 15.8139 86.1243 15.8139 85.1029V84.4078C15.8139 83.7128 16.2295 83.0599 17.0088 83.0599C17.653 83.0599 17.1438 82.9651 19.8973 82.9651C20.4895 82.9651 20.5415 83.0073 21.2272 83.0073H21.2688C21.6844 83.0073 22.1415 82.9125 22.5987 82.9125C22.8273 82.9125 23.0559 82.9546 23.2429 83.0073C23.5131 83.102 23.513 83.4285 23.6066 83.7023C23.7416 84.2078 23.7936 84.7237 23.7832 85.2292C23.7832 86.1559 23.8248 86.8088 23.8248 87.4091C23.8248 87.8724 23.7832 88.3358 23.7312 88.8939L23.6793 91.4949C25.1443 91.5897 24.7807 91.5897 26.1937 91.5897C27.2431 91.5897 28.5731 91.6845 29.6744 91.6845C30.2667 91.6845 31.2745 91.6845 31.8668 91.6424C32.0954 91.6002 32.3239 91.6002 32.6045 91.6002H32.9266C33.2902 91.6002 33.4253 91.7371 33.5188 92.1584C33.6539 93.8327 33.7474 96.5602 33.7474 98.0976C33.7474 98.3293 33.7058 98.5189 33.5188 98.6979C33.3318 98.8874 33.1967 98.9717 32.9266 98.9717C31.6486 98.9717 30.4537 99.0664 29.2173 99.0664C28.7601 99.0664 28.3445 99.0664 27.8873 99.0243C26.4223 99.0243 24.6352 98.9717 23.1286 98.9717C21.7571 98.9717 20.4272 99.0138 19.0556 99.0138C18.0478 99.0138 16.9984 98.919 15.9905 98.919C15.4399 98.919 14.8476 99.0138 14.2969 99.0138C13.3826 99.0559 12.4163 99.1086 11.4085 99.1086C9.12261 99.1086 6.74325 98.9611 4.72755 98.8769C3.76126 98.8348 2.80536 98.74 1.83907 98.74C1.51697 98.74 1.34034 98.8348 1.19487 98.8348C1.0598 98.8348 0.96629 98.74 0.779266 98.4662C0.550681 98.045 0.550682 97.6764 0.550682 97.2552C0.509121 96.0442 0.457169 93.4536 0.322096 92.2426C0.322096 92.0531 0.322097 91.9162 0.280536 91.7793C0.187024 90.1997 0.0103904 88.6201 0.0103904 86.9984C0.0103904 86.2507 0.0519522 86.1138 0.0519522 85.324C0.0519522 84.9028 0.0935121 84.3025 0.0935121 83.7444C0.0935121 83.3758 0.0519511 83.0494 0 82.8177V82.586C0 82.1648 0.779265 82.0806 1.6936 82.0806C3.97945 82.0806 7.04456 82.1753 8.96675 82.1753C9.28885 82.1753 9.559 82.4491 9.61095 82.7756L9.64212 82.7966Z" fill="#77B09F"/>
<path d="M37.1237 69.5912C37.3939 70.7496 37.3107 72.7083 36.9055 74.4774L36.7393 75.0039C36.3029 76.4256 35.5756 77.4997 34.6404 78.3737C32.7702 80.0586 30.3597 80.5641 27.6686 80.4272C26.4945 80.343 25.2477 80.1955 23.9801 79.9323C22.1306 79.5426 20.1877 79.0161 18.2343 78.4896C17.6109 78.3422 16.9147 78.121 16.3017 77.9209C15.3874 77.6261 14.4834 77.2891 13.5379 76.9416C12.8106 76.6573 12.1041 76.2887 11.3768 76.0149C8.08307 74.5722 5.96347 73.5086 4.41533 71.2235C3.58411 70.1809 2.86718 68.7909 3.17889 67.1797C3.32435 66.253 3.51138 65.1894 3.82308 64.1785C4.37376 62.4093 5.25693 60.6507 6.48298 59.6293C6.95053 59.1975 7.43888 58.7131 8.01034 58.4182C11.3872 56.3332 15.2004 56.7228 21.4033 58.692L22.3177 58.9869C23.1177 59.1975 23.9074 59.4397 24.6866 59.6924C30.0999 61.4195 34.4846 63.5361 36.3964 67.4114C36.7601 68.1064 36.9575 68.8541 37.1133 69.5807L37.1237 69.5912ZM14.7744 65.0525C14.5146 65.1157 14.0782 65.6106 13.8912 66.1793L13.8392 66.3583C13.6834 67.1797 13.8185 67.959 14.151 68.4539C14.9406 69.6228 16.0108 70.5074 17.2992 71.1603C17.7252 71.3393 18.2239 71.6026 18.7434 71.7711L19.2214 71.929C20.8215 72.3397 24.884 73.0031 25.5386 70.8759C26.4218 68.0432 22.7644 66.3478 19.7513 65.3895C19.2318 65.221 18.7642 65.1684 18.2863 65.0209C17.8914 64.8946 17.4031 64.7893 16.8732 64.7682C15.8861 64.6945 15.4393 64.7471 14.764 65.0736L14.7744 65.0525Z" fill="#77B09F"/>
<path d="M46.8183 53.4164C46.704 54.5958 45.9871 56.4281 45.0416 57.9656L44.7195 58.4079C43.8467 59.5978 42.818 60.3876 41.6543 60.9036C39.3477 61.883 36.906 61.5671 34.402 60.5561C33.3214 60.0928 32.1889 59.5346 31.0771 58.8712C29.4562 57.8919 27.7834 56.7546 26.1106 55.6173C25.5703 55.2698 24.9781 54.8275 24.4585 54.4378C23.6897 53.8586 22.9416 53.2479 22.1519 52.595C21.5493 52.0895 21.009 51.5103 20.4064 51.0048C17.7465 48.5617 16.0944 46.8558 15.3671 44.181C14.9203 42.9173 14.6814 41.3693 15.4918 39.9477C15.9282 39.1158 16.4373 38.1786 17.0607 37.3151C18.1517 35.8197 19.544 34.4507 21.0402 33.8926C21.622 33.6399 22.235 33.345 22.8792 33.2502C26.7444 32.3973 30.2251 34.019 35.4618 37.9364L36.2306 38.5155C36.9164 38.9789 37.5814 39.4738 38.2464 39.9688C42.818 43.3807 46.2676 46.8347 46.8494 51.1312C46.9637 51.9105 46.9118 52.6792 46.8287 53.4269L46.8183 53.4164ZM27.1496 41.759C26.8795 41.7379 26.308 42.0538 25.9547 42.5382L25.8404 42.6857C25.4248 43.4123 25.3105 44.1915 25.4664 44.7707C25.8301 46.1397 26.5678 47.3191 27.5756 48.3617C27.9185 48.6776 28.3029 49.0778 28.7497 49.4147L29.1549 49.7201C30.5368 50.6363 34.163 52.6055 35.4722 50.8153C37.2073 48.4248 34.3085 45.6132 31.7629 43.7177C31.3265 43.3912 30.9005 43.1806 30.4953 42.8857C30.1628 42.633 29.7264 42.3697 29.2484 42.1802C28.3341 41.7906 27.8977 41.6958 27.16 41.7695L27.1496 41.759Z" fill="#77B09F"/>
<path d="M65.7699 13.1683C64.9283 13.5264 64.8037 13.7265 64.0452 14.1477C63.5984 14.3899 61.9671 15.2323 61.4996 15.4219C60.1904 15.98 58.289 17.0331 57.5721 17.3385C57.3227 17.4438 57.5305 18.2125 57.9357 19.1918C58.4137 20.3502 59.1514 21.7929 59.5254 22.688L59.5462 22.7301C60.6684 22.2036 61.4268 21.8877 62.1853 21.5612L64.2114 20.7082C65.1881 20.2976 65.105 20.2238 66.0297 19.8342L66.6635 19.5709C67.2973 19.3077 68.0454 19.434 68.3467 20.1607C68.5961 20.7609 68.4818 20.2554 69.5416 22.8249C69.7702 23.383 69.7494 23.4462 70.0091 24.0886L70.0299 24.1307C70.1858 24.5203 70.4455 24.91 70.6222 25.3312C70.7053 25.5418 70.7572 25.7735 70.7884 25.963C70.8092 26.2579 70.5183 26.3842 70.3001 26.5738C69.8845 26.9002 69.4377 27.1425 68.9805 27.332C68.1389 27.69 67.5571 27.9849 67.0168 28.2166C66.5908 28.3956 66.1544 28.5325 65.6349 28.701L63.2555 29.6593C63.7335 31.0598 63.5984 30.7229 64.1387 32.0497C64.5439 33.0396 64.9699 34.3138 65.3959 35.3353C65.6245 35.8934 66.0089 36.8306 66.2791 37.3677C66.4141 37.5678 66.4973 37.7784 66.6012 38.0311L66.7258 38.326C66.8713 38.6735 66.7882 38.8525 66.4453 39.0947C64.9803 39.8634 62.5178 41.0113 61.1255 41.601C60.9177 41.6852 60.7307 41.7168 60.4917 41.622C60.2527 41.5273 60.1177 41.4325 60.0138 41.1692C59.515 39.9687 58.9747 38.8946 58.4968 37.7362C58.3202 37.3045 58.1643 36.9254 58.0292 36.4726C57.4682 35.1036 56.824 33.4187 56.2421 32.0076C55.7122 30.7229 55.1615 29.5013 54.6316 28.2166C54.2472 27.2794 53.9251 26.2579 53.5303 25.3101C53.3225 24.7941 53.0004 24.2781 52.7926 23.7621C52.3977 22.9197 51.9821 22.0456 51.5977 21.0979C50.7145 18.9602 49.9249 16.675 49.2391 14.7584C48.9066 13.8423 48.6261 12.9051 48.252 12.01C48.1274 11.7046 47.9715 11.5782 47.9196 11.4413C47.8676 11.3149 47.9196 11.1886 48.0962 10.9148C48.3871 10.5357 48.73 10.3988 49.104 10.2408C50.1846 9.73535 52.5328 8.69282 53.5822 8.09257C53.7485 8.01886 53.8732 7.96621 53.9874 7.87143C55.3901 7.17641 56.7512 6.39714 58.2267 5.77584C58.902 5.49151 59.0475 5.48098 59.7644 5.17559C60.1488 5.01763 60.7099 4.82808 61.219 4.60694C61.5619 4.45951 61.8321 4.30155 62.0295 4.16466L62.2373 4.08041C62.6217 3.92245 62.9958 4.60694 63.3594 5.47045C64.2426 7.60816 65.3336 10.5146 66.0817 12.3153C66.2063 12.6102 66.0609 12.9788 65.7803 13.1473L65.7699 13.1683Z" fill="#77B09F"/>
<path d="M89.532 20.6451C88.8566 20.7609 88.2644 20.8662 87.589 20.9399L87.0384 20.9926C85.9474 21.1084 85.0746 21.1505 83.9836 21.2664C83.9836 21.2664 83.8486 23.0987 83.994 24.5309C84.0044 24.6678 84.3265 24.6362 84.472 24.6678C85.1266 24.7415 85.7604 24.7204 86.4461 24.6467C87.6306 24.5203 89.0229 24.236 90.1242 24.1202H90.2178C90.623 24.0675 90.9866 24.0254 91.0594 24.7204C91.3087 27.1214 91.5997 29.554 91.8386 31.9128L91.9425 32.9238C91.9945 33.4819 91.2256 33.6083 90.6334 33.6714C90.5399 33.6714 90.4048 33.6925 90.3113 33.703C86.7578 34.0716 83.4537 34.5665 79.7236 34.9562C79.0379 35.0299 78.3625 35.1036 77.6768 35.2194L76.4923 35.3458C76.3572 35.3563 76.1702 35.3774 76.0351 35.3458C75.7442 35.2405 75.5468 35.0194 75.5052 34.6508L75.3909 33.5451C75.339 32.5763 75.2351 31.5548 75.1312 30.586C74.4454 23.899 73.5311 16.7172 72.7934 9.47209L72.4921 6.56565C72.3882 5.54418 72.3258 4.48059 72.2219 3.41699L72.1596 2.81675C72.118 2.44818 72.1388 2.12173 72.2323 1.7321C72.305 1.58467 72.3882 1.47936 72.5752 1.4583H72.6687C73.6661 1.34247 74.5493 1.34246 75.7234 1.2161C76.5442 1.13185 77.0534 1.12132 77.8638 1.03708C79.4119 0.92124 80.2016 0.973894 81.7497 0.815935C82.2485 0.763282 82.4771 0.742218 82.9758 0.636912C83.4745 0.542137 83.7862 0.510548 84.2849 0.405242C84.8252 0.299936 85.7292 0.163037 86.2383 0.110384C86.789 0.0577308 87.1111 0.068261 87.7033 0.00507733C87.9735 -0.0265145 88.2228 0.0893201 88.4306 0.352585C88.4826 0.43683 88.493 0.489486 88.5034 0.573731L88.5553 1.0792C88.6384 1.44777 88.6073 1.63732 88.6904 1.95324C88.7735 2.26916 89.1164 5.27038 89.158 5.5863C89.2099 6.14442 89.106 6.38663 88.5657 6.53406C87.4851 6.78679 85.8019 6.96581 84.5239 7.09218C83.9836 7.14483 83.4745 7.19749 82.9758 7.25014C82.7056 7.28173 82.4771 7.30279 82.4147 7.58712C82.29 8.15577 82.3212 8.94556 82.3939 9.64058L82.6537 12.1785C82.6745 12.4101 82.6953 12.5892 82.7576 12.7261C82.8199 12.863 82.955 12.8945 83.0901 12.8735C83.9109 12.7892 84.7837 12.7471 85.6876 12.6523C86.5085 12.5681 87.3189 12.4312 88.0878 12.2627C88.2228 12.2522 88.306 12.189 88.4514 12.1785H88.5449C88.68 12.1574 88.867 12.1785 88.9709 12.2627C89.2619 12.4207 89.293 12.7471 89.3242 13.0209L89.4281 14.0845C89.6047 15.8326 89.4073 14.8322 89.7606 18.202L89.9164 19.771C89.9164 19.8658 89.9372 20.0027 89.958 20.1396C89.9684 20.2765 89.9892 20.4134 89.9061 20.5187C89.8125 20.5187 89.6359 20.5924 89.5424 20.603L89.532 20.6451Z" fill="#77B09F"/>
<path d="M108.339 12.8629C107.799 12.7576 107.248 12.7365 106.656 12.8524C106.063 13.0103 105.617 13.4 105.357 14.0002C105.274 14.1687 105.243 14.3583 105.201 14.5373C105.076 15.1691 105.232 15.7694 105.544 16.3591C105.783 16.7908 106.115 17.2331 106.406 17.6754C106.895 18.5284 108.36 19.3498 108.91 20.129C109.503 20.9083 109.991 21.7192 110.531 22.5405C111.061 23.4041 111.196 24.3834 111.238 25.3312C111.269 26.0999 111.227 26.7949 111.082 27.5215C110.988 27.9743 110.843 28.4693 110.666 28.901C110.355 30.0173 109.669 30.8703 109.118 31.7548C108.734 32.2919 108.225 32.7131 107.799 33.2396C107.663 33.4503 107.404 33.5872 107.175 33.7767C106.624 34.1874 106.043 34.5349 105.388 34.7877C105.336 34.8192 105.232 34.8508 105.139 34.8824C103.268 35.3563 101.409 35.588 98.8941 35.3036C98.3434 35.2405 97.481 35.1141 96.8576 34.9772L96.5875 34.9245C95.4653 34.6929 93.6574 34.1769 92.8054 34.0084C92.4937 33.9452 92.2444 33.7556 92.0158 33.5134C91.7872 33.2712 91.7352 33.029 91.808 32.671C92.1197 31.3652 92.369 30.3227 92.5976 29.1854C92.8989 27.6795 93.2522 26.3421 93.5328 24.9731C93.6678 24.2886 93.7717 23.5515 93.8652 22.8143L93.9068 22.6353C93.9691 22.3194 94.073 22.2457 94.4055 22.2141C94.5926 22.2141 94.7692 22.2457 94.9978 22.2878C95.7563 22.4458 96.5147 22.6459 97.2317 22.7933C97.8135 22.9091 98.4058 22.9828 98.8837 22.9407C100.027 22.8459 101.107 22.5405 102.011 21.7823C102.458 21.4032 102.749 20.8872 102.853 20.3923C102.957 19.8447 102.853 19.255 102.51 18.8127C102.271 18.381 102.074 17.9703 101.835 17.5385C101.44 16.9383 100.764 16.3275 100.266 15.801C99.8708 15.4324 99.5279 15.0322 99.237 14.6426C98.8006 14.0318 98.3642 13.3789 97.9798 12.726C97.4602 11.8204 97.2109 10.9569 96.9304 9.76691C96.7745 8.92446 96.7849 8.40846 96.8992 7.58708L96.9511 7.31328C97.3875 5.13344 99.0396 4.10144 100.484 3.39589C102.354 2.44814 104.411 2.44814 107.113 2.7114C107.757 2.75352 108.432 2.89042 109.056 3.01679C110.895 3.39589 112.952 4.10144 114.739 4.47001C115.279 4.57532 115.466 4.80699 115.456 5.32299L114.926 8.0083C114.822 8.50324 114.75 8.87181 114.635 9.70373C114.594 10.1671 114.542 10.3987 114.459 10.8516C114.292 11.673 114.147 12.21 113.991 12.9787L113.898 13.4316C113.721 13.8212 113.357 14.0318 112.952 13.9476C111.56 13.6632 110.064 13.2104 108.765 12.9472L108.36 12.8629H108.339Z" fill="#77B09F"/>
<path d="M123.519 20.1607C122.916 19.8237 122.137 19.4341 121.337 18.9813C120.817 18.6864 120.277 18.3284 119.861 18.0441C119.778 18.0019 119.726 17.9177 119.602 17.844C119.425 17.5912 119.352 17.3385 119.508 17.0542L120.973 14.3794C121.991 12.7261 123.113 10.7569 124.049 9.15621L124.163 8.95613C124.381 8.54544 124.734 8.00838 125.14 8.22952C129.711 10.4831 135.8 13.916 139.364 15.8116L139.561 15.9274C139.8 16.0643 140.018 16.2328 140.029 16.6119C140.039 16.7804 139.956 16.9383 139.842 17.1384C139.198 18.2125 138.72 18.897 138.252 19.75C138.138 19.9501 138.075 20.1818 137.961 20.3818L136.943 22.2458C136.517 23.0145 136.34 23.4463 135.956 24.236L135.467 25.1312C135.312 25.4155 135.176 25.6577 135.062 25.9631L134.906 26.2474C134.813 26.4054 134.595 26.3316 134.408 26.2895C134.065 26.1526 133.878 26.1 133.68 25.9841C133.4 25.8262 133.161 25.584 132.485 25.2049L131.561 24.6889C131.155 24.4677 130.636 24.2782 130.137 24.0465C129.888 24.2255 129.451 24.8258 129.275 25.1522C128.922 25.8051 128.589 26.3106 128.35 26.7529C125.856 31.2916 122.833 36.8096 119.82 42.1276C119.726 42.2855 119.622 42.4961 119.466 42.6752C119.311 42.9595 119.041 43.0753 118.802 42.9384C118.001 42.4856 116.64 41.8222 115.633 41.264C115.31 41.085 115.03 40.9271 114.853 40.7691L114.729 40.7059C114.573 40.6112 114.427 40.5901 114.261 40.4953C114.136 40.4321 114.084 40.3374 113.97 40.1689C113.897 40.0214 114.084 39.4844 114.167 39.3264L119.061 30.407C120.641 27.5216 122.064 24.9311 123.498 22.0246C123.612 21.8245 123.862 21.1716 123.976 20.961C124.038 20.8347 124.111 20.7188 124.132 20.5714C123.955 20.4134 123.716 20.2871 123.519 20.1712V20.1607Z" fill="#77B09F"/>
<path d="M129.202 51.6365L128.704 51.1626C127.602 50.12 125.805 48.4667 124.329 47.0662C123.831 46.5923 124.89 45.1812 126.2 43.7596C127.135 42.7486 128.236 41.6956 128.839 41.0532C128.963 40.9163 129.057 40.811 129.15 40.7162C129.4 40.3792 129.587 40.1791 129.805 39.9369C129.992 39.7369 130.179 39.5368 130.397 39.2946L133.493 35.9458C135.842 33.408 138.387 30.7964 140.611 28.3954L141.203 27.753C141.889 27.0053 142.512 26.2682 143.208 25.5205C144.019 24.5728 144.871 23.6671 145.775 22.6773L146.211 22.2034C146.367 22.0981 146.502 22.0349 146.627 21.9612C146.751 21.9612 146.918 21.9822 146.99 22.0454L147.261 22.2982C147.759 22.772 148.289 23.1511 148.819 23.5934C150.419 25.1204 151.863 26.542 153.391 28.0058C153.453 28.0689 153.495 28.1005 153.495 28.2374C153.505 28.5639 153.422 28.8587 153.193 29.1009L150.907 31.5651C149.152 33.4606 147.364 35.3877 145.64 37.1147C143.946 38.8102 142.72 40.0633 141.629 41.2533C140.787 42.1694 139.998 43.0751 139.094 44.0544C138.19 45.0338 137.088 46.15 135.707 47.5716L132.361 51.1942C132.361 51.1942 131.27 52.4473 131.239 52.4789C131.114 52.6158 130.917 52.6895 130.73 52.6895C130.47 52.6895 129.743 52.1314 129.202 51.6259V51.6365Z" fill="#77B09F"/>
<path d="M137.099 62.6307C136.215 61.0616 135.374 59.461 134.698 57.9867C134.418 57.397 135.55 56.6914 135.997 56.2702C136.683 55.7121 137.254 55.2277 138.002 54.5853C141.764 51.2366 144.735 48.288 148.486 44.8445C149.733 43.6966 149.504 43.9389 151.718 41.9696C152.008 41.7485 152.227 41.4642 152.809 40.9166C155.271 38.642 157.037 37.1887 159.282 35.0931L159.323 35.0721C159.801 34.7983 160.362 35.8092 160.664 36.3252L160.705 36.4095C160.934 36.8096 161.235 37.4415 161.547 37.9996L164.29 42.8753C164.809 43.802 163.708 44.5496 163.531 44.7076C163.448 44.7497 163.355 44.8655 163.271 44.9077C162.69 45.4553 162.139 45.9923 161.495 46.5189C159.063 48.6671 159.562 47.951 156.611 50.5731C155.926 51.1313 154.294 52.8162 153.307 53.5006C152.85 53.8166 152.424 54.2799 152.04 54.6064C149.473 56.8915 148.954 57.5655 149.068 57.7655C149.068 57.7655 152.393 56.3755 155.541 55.4172C159.458 54.3326 163.697 52.574 167.698 51.2787C167.916 51.205 168.041 51.1313 168.217 51.0786L168.259 51.0575C168.539 51.0049 168.913 51.0049 169.048 51.2471L170.004 52.9425C170.742 54.1746 171.158 54.6274 171.999 56.0175C172.134 56.2597 172.404 56.6388 172.581 56.9652C172.716 57.2074 172.789 57.4286 172.82 57.576C172.799 57.6392 172.623 57.7971 172.467 57.8919C172.342 57.9656 172.269 58.0077 172.166 58.0077C171.355 58.2605 169.63 58.9344 168.768 59.1766C167.895 59.4083 167.334 59.5242 166.461 59.7558C165.776 59.9349 158.191 62.2937 157.484 62.5359C154.149 63.8206 150.076 65.0001 142.969 67.0746C142.304 67.2957 141.577 67.5064 140.87 67.7486C140.33 67.9065 140.268 67.8855 140.091 67.6643L140.07 67.6222C140.07 67.6222 140.049 67.5801 139.997 67.5064C139.977 67.4642 139.956 67.4221 139.925 67.38C139.031 65.9689 138.034 64.3051 137.109 62.6517L137.099 62.6307Z" fill="#77B09F"/>
<path d="M150.876 93.0323C150.138 93.3377 150.003 93.4009 149.307 93.7063C148.652 94.0011 148.154 94.3171 147.582 94.5487C147.406 94.6224 147.271 94.6435 147.135 94.6646C146.772 94.7172 146.554 94.5171 146.419 94.2118C146.159 93.7379 146.055 93.3272 145.982 92.9165C145.909 92.4637 145.889 91.9898 145.806 91.4422L145.754 91.1263C145.442 89.7152 145.193 88.6832 144.985 87.3563C144.964 87.2194 144.985 87.072 145.016 86.9772C145.089 86.8298 145.338 86.6929 145.608 86.5981C145.691 86.5349 145.785 86.5244 145.909 86.4612C145.951 86.4612 146.034 86.398 146.086 86.3875C148.954 85.1344 150.211 84.8816 152.84 83.9023C155.468 82.9229 153.681 83.6706 155.24 82.9545C155.365 82.8913 155.448 82.7755 155.52 82.6702C155.489 82.4912 155.396 81.8488 155.406 81.6066C155.333 81.1538 155.313 80.7326 155.24 80.2271L155.167 79.7638C155.115 79.4478 155.126 79.2056 155.074 78.8897C155.042 78.658 154.949 78.3948 154.887 77.9841C154.679 77.8261 154.741 77.6366 154.409 77.5944C153.058 77.5313 152.32 77.5944 150.98 77.5734C149.92 77.605 149.182 77.626 148.299 77.626C147.239 77.6998 146.419 77.7419 145.307 77.7735C145.026 77.7735 144.746 77.7735 144.476 77.7735C144.289 77.7524 144.091 77.6892 143.946 77.626C143.831 77.4997 143.676 77.3838 143.655 77.2469C143.457 76.8573 143.322 76.3097 143.239 75.7621C143.156 75.2145 143.104 74.5616 143.021 74.0562L142.855 73.0031C142.792 72.5924 142.678 72.1396 142.595 71.6341C142.481 70.897 142.47 70.202 142.678 69.7913C142.72 69.7386 142.761 69.7281 142.803 69.7281C142.938 69.707 143.083 69.7281 143.177 69.7175C143.364 69.7386 143.551 69.707 143.738 69.7175C144.621 69.7597 145.328 69.8439 146.024 69.8229C146.159 69.8018 146.439 69.8018 146.543 69.8755C149.203 69.7386 151.416 69.8966 154.533 70.0124C160.217 70.1914 164.321 70.381 169.028 70.5705C170.939 70.6442 172.934 70.9812 175.147 70.8654C175.605 70.8443 175.584 70.9812 175.76 71.234L175.823 71.6447C176.041 72.1712 176.155 72.5819 176.384 73.1505C176.425 73.4243 176.571 73.7297 176.664 74.0456C176.696 74.2773 177.111 76.6467 177.329 78.0683L177.475 78.9845C177.516 79.8691 177.475 80.722 177.506 81.5645C177.485 81.7119 177.454 81.8593 177.34 81.9646C177.132 82.1437 176.935 82.3122 176.716 82.3964C175.594 82.9019 174.441 83.2704 173.308 83.7338C172.519 83.9971 171.688 84.3235 170.95 84.671C168.685 85.882 166.461 86.5139 163.936 87.5248C162.71 87.9987 161.391 88.441 160.165 88.9254C158.409 89.5783 157.152 90.3891 155.188 91.1789C154.44 91.4422 153.879 91.6739 153.006 92.0424C152.185 92.411 151.634 92.7269 150.886 93.0323H150.876ZM161.37 80.6589C161.37 80.6589 161.422 80.701 161.464 80.6904C161.557 80.6799 161.609 80.7115 161.692 80.6904C162.596 80.543 163.926 79.8691 165.776 79.2372C167.105 78.8371 168.435 78.479 170.119 77.9314C170.295 77.8577 170.326 77.8051 170.316 77.7103C170.306 77.6155 170.254 77.5839 170.233 77.4891C170.233 77.447 170.119 77.089 169.661 77.0679C166.389 76.8889 162.357 77.1943 161.277 77.3733L161.048 77.4049C161.006 77.4575 160.965 77.4681 160.923 77.4681C160.695 77.4997 160.747 78.1104 160.819 78.5633C160.851 78.7949 160.871 78.9318 160.902 79.0687C161.027 79.5637 161.235 80.3324 161.235 80.3324C161.297 80.4167 161.287 80.6483 161.37 80.6378V80.6589Z" fill="#77B09F"/>
<path d="M144.912 95.2754L144.954 95.0438C145.089 94.5488 145.297 94.2119 145.546 93.8327C145.681 93.58 146.024 93.4958 146.294 93.5484L146.969 93.6748C147.686 93.8117 148.414 93.9065 149.089 94.0328C149.453 94.096 149.754 94.2013 150.159 94.2856C158.554 96.0126 163.292 97.0446 171.698 98.7295C171.792 98.7505 171.875 98.7611 171.968 98.7821C172.82 98.9401 173.506 99.0243 174.223 99.1612C175.127 99.3297 176.197 99.5825 177.797 99.9826C178.15 100.098 178.327 100.13 178.306 100.499C178.275 100.678 178.285 100.878 178.254 101.004C178.233 101.141 178.161 101.267 178.13 101.404C178.005 101.804 177.953 102.131 177.818 102.615C177.631 103.142 177.548 103.605 177.465 104.016L177.33 104.742C177.205 105.427 177.049 106.017 176.685 106.743C176.602 106.912 176.415 106.933 176.197 106.88L163.999 104.585C162.742 104.342 161.994 104.069 160.736 103.826C159.832 103.658 158.825 103.321 158.014 103.173C157.515 103.079 157.11 103.047 156.882 103.247C156.03 103.837 155.365 107.207 154.991 109.218C154.97 109.355 154.939 109.492 154.918 109.629L154.897 109.766C154.783 110.408 154.107 110.513 153.339 110.366C149.868 109.713 146.294 109.176 143.052 108.565C142.834 108.481 142.72 108.354 142.72 108.123C142.72 107.881 142.772 107.617 142.813 107.386C143.177 105.427 143.447 103.447 143.842 101.257C143.904 100.888 143.987 100.478 144.05 100.12C144.361 98.4346 144.611 96.8234 144.891 95.2754H144.912Z" fill="#77B09F"/>
<path d="M29.778 119.686C29.2585 119.907 28.7182 120.086 28.1779 120.275C27.2324 120.591 26.3077 120.897 25.3414 121.076C25.2375 121.076 25.144 121.118 25.0401 121.128C23.5958 121.539 22.401 121.529 21.1957 121.476C20.7178 121.455 20.2606 121.465 19.7722 121.339C18.5254 121.013 17.4344 120.339 16.863 119.264C16.6864 118.906 16.4266 118.538 16.25 118.169C16.1357 117.885 15.9798 117.59 15.8655 117.306C15.7512 117.021 15.6681 116.727 15.585 116.442C15.1798 115.084 15.3564 113.736 16.2292 112.43C16.4578 112.009 16.7695 111.63 17.0396 111.219C18.5878 109.092 21.2061 107.47 24.8946 105.943C25.2998 105.775 25.7362 105.627 26.1726 105.459C30.7651 103.753 34.4017 103.521 37.3005 105.743C38.059 106.375 38.7967 107.238 39.2123 108.27C39.2955 108.492 39.3578 108.723 39.4097 108.955C39.4617 109.187 39.4825 109.397 39.4721 109.661C39.5448 111.082 39.5552 112.03 38.9006 113.504C38.5889 114.252 38.0486 114.873 37.4772 115.4C36.6979 116.053 35.9082 116.59 35.0459 117.127C33.7471 117.917 32.3028 118.517 30.8274 119.233C30.4534 119.38 30.1313 119.559 29.7572 119.707L29.778 119.686ZM28.126 114.252C28.4065 114.136 28.7286 113.968 29.0091 113.852C30.5573 113.136 31.3262 112.746 32.2924 111.914C32.5418 111.735 32.6249 111.482 32.6249 111.23C32.6145 111.198 32.6249 111.156 32.6249 111.124C32.6042 111.061 32.5418 111.008 32.5106 110.914V110.882C32.2717 110.324 31.5444 110.292 30.8898 110.45C30.4014 110.577 29.8923 110.64 29.4144 110.798C28.739 110.998 28.4273 111.103 27.8974 111.314L26.7233 111.798C26.2453 112.03 26.1207 112.083 25.6531 112.272C24.9777 112.662 24.3232 112.893 23.7517 113.346C23.3776 113.578 23.0452 113.82 22.7646 114.115C22.5153 114.399 22.4425 114.652 22.3698 114.936C22.3282 115.021 22.3698 115.115 22.3906 115.179C22.4321 115.273 22.5257 115.337 22.7231 115.368C23.0036 115.431 23.3569 115.505 23.6686 115.484C24.3024 115.442 24.905 115.337 25.5596 115.179C26.5259 114.894 27.1701 114.62 28.126 114.231V114.252Z" fill="#77B09F"/>
<path d="M29.1441 138.999C27.9804 137.851 26.9725 136.566 26.0062 135.229C24.8217 133.597 23.7308 131.912 22.5463 130.28L22.2657 129.9C22.1099 129.679 22.0995 129.395 22.0579 129.1C22.006 128.805 22.1411 128.584 22.38 128.405L23.5853 127.51C23.8243 127.373 24.0632 127.194 24.271 127.036L24.8633 126.594C25.4971 126.204 26.2036 125.888 26.9309 125.636C27.4297 125.467 27.97 125.362 28.4791 125.32C30.2454 125.141 32.2819 126.583 33.9755 127.047C34.8171 127.299 35.6795 127.405 36.5419 127.226C37.1549 127.099 37.7368 126.878 38.3394 126.636C39.5343 126.12 39.7421 126.015 40.1473 125.709L40.3343 125.572C40.7395 125.278 41.0928 123.877 40.4798 123.035C39.8668 122.192 39.4927 122.182 39.1187 122.297C39.0875 122.318 38.942 122.392 38.807 122.487C38.2147 122.929 37.8303 123.256 37.1133 123.793C36.7081 124.14 36.5107 124.33 36.2406 124.519C36.0743 124.635 35.9185 124.762 35.6068 124.909C35.4717 125.004 35.3262 125.035 35.2327 125.025C34.6405 124.835 34.2976 124.425 33.9651 123.961L32.552 122.003C32.4378 121.834 32.3442 121.655 32.2507 121.476C32.0533 121.202 32.0845 120.971 32.2923 120.739C32.3235 120.718 32.3754 120.676 32.3754 120.634C32.9988 120.128 33.6534 119.559 34.2768 119.054C38.4537 115.947 42.402 114.842 45.1138 118.517L45.1554 118.57C46.3918 120.276 47.5036 122.382 46.9944 124.477C46.7451 125.499 46.2671 126.604 45.6749 127.384C45.4047 127.752 45.0722 128.089 44.6982 128.363L44.48 128.521C43.867 128.984 43.1397 129.395 42.4435 129.743C42.0279 129.964 41.6019 130.122 41.1551 130.237C39.3888 130.753 38.09 130.848 36.4484 130.69C35.399 130.553 34.3703 130.606 33.3625 130.353C33.1547 130.301 32.2196 130.364 31.9702 130.427C31.9806 130.501 32.1884 130.89 32.2196 130.954C32.3027 131.185 32.4378 131.375 32.5832 131.564C32.9261 131.975 33.2378 132.417 33.5495 132.849C34.0378 133.523 34.4846 134.197 34.9626 134.85L35.0249 134.934C35.0665 134.987 35.1912 135.103 35.2639 135.208C35.3574 135.345 35.4301 135.503 35.3782 135.534C34.9314 135.829 34.4015 136.177 33.7054 136.693L33.6015 136.777C33.1755 137.093 32.978 137.282 32.552 137.598C31.939 138.062 31.1286 138.651 30.5571 138.999C30.3701 139.136 30.1311 139.315 29.7986 139.483C29.5908 139.599 29.2168 139.083 29.1544 138.999H29.1441Z" fill="#77B09F"/>
<path d="M35.6795 145.56C35.3262 145.454 35.0873 145.223 34.7963 144.991C34.5782 144.78 34.3807 144.549 34.1937 144.317C33.9755 144.106 33.8508 143.801 33.8404 143.517C33.8301 143.043 33.8404 142.537 33.9651 142.063C34.1418 141.537 34.4535 141.095 34.8483 140.684L35.1184 140.389C35.9393 139.504 37.8199 139.557 38.6719 140.368C38.8381 140.621 39.0148 140.831 39.2122 141.074C39.7213 141.705 39.5343 142.548 39.5551 143.253C39.4719 143.875 39.1395 144.391 38.5888 144.97C37.6952 145.928 36.6146 145.854 35.6899 145.57L35.6795 145.56Z" fill="#77B09F"/>
<path d="M58.4347 147.887C58.123 148.371 57.7905 148.824 57.458 149.287C56.8554 150.098 56.2735 150.877 55.5878 151.593C55.5046 151.657 55.4527 151.741 55.3696 151.815C54.4137 152.994 53.4266 153.668 52.4084 154.321C52.0031 154.574 51.6291 154.858 51.1615 155.026C49.9563 155.479 48.6783 155.563 47.5977 155.005C47.2444 154.816 46.8288 154.658 46.4755 154.468C46.2262 154.3 45.9249 154.152 45.6755 153.984C45.4261 153.815 45.1872 153.626 44.9586 153.436C43.8572 152.552 43.2442 151.341 43.2338 149.761C43.1819 149.287 43.2234 148.792 43.213 148.308C43.2857 145.665 44.5222 142.811 46.6937 139.431C46.9327 139.062 47.2133 138.683 47.4626 138.293C50.268 134.228 53.1253 131.933 56.7619 132.08C57.7385 132.164 58.8295 132.438 59.7542 133.049C59.9517 133.175 60.1283 133.333 60.3049 133.491C60.4816 133.649 60.6166 133.818 60.7517 134.028C61.6141 135.155 62.1544 135.924 62.4349 137.514C62.6012 138.304 62.5076 139.136 62.331 139.894C62.0505 140.884 61.718 141.779 61.3128 142.716C60.6894 144.117 59.8374 145.444 59.0373 146.886C58.8191 147.223 58.6529 147.55 58.4347 147.897V147.887ZM54.0292 144.38C54.1955 144.127 54.3617 143.801 54.528 143.537C55.4007 142.063 55.8163 141.294 56.128 140.052C56.232 139.757 56.1592 139.504 56.0138 139.294C55.9826 139.273 55.9722 139.23 55.9514 139.209C55.8995 139.167 55.8267 139.167 55.7332 139.104L55.7021 139.083C55.2033 138.757 54.5903 139.157 54.1435 139.662C53.811 140.052 53.437 140.399 53.1357 140.8C52.6993 141.358 52.4915 141.621 52.1798 142.105L51.494 143.179C51.2343 143.653 51.1615 143.759 50.8914 144.19C50.5589 144.896 50.1537 145.475 49.9355 146.17C49.7589 146.57 49.6238 146.97 49.5614 147.371C49.5199 147.739 49.5926 147.992 49.6965 148.266C49.7173 148.361 49.8004 148.413 49.8524 148.455C49.9355 148.508 50.0602 148.508 50.2264 148.424C50.4966 148.318 50.8187 148.171 51.068 147.971C51.5668 147.571 52.0031 147.139 52.4499 146.623C53.0733 145.833 53.4578 145.233 54.0188 144.359L54.0292 144.38Z" fill="#77B09F"/>
<path d="M66.3724 163.819C65.4373 163.577 64.5229 163.377 63.6398 163.072C62.9124 162.83 62.2267 162.556 61.6241 162.177C60.9175 161.766 60.3149 161.239 59.733 160.681C59.359 160.344 59.1304 159.944 58.9746 159.47C58.7564 158.965 58.6525 158.438 58.694 157.88L58.6732 157.301C58.5901 156.49 58.6732 155.7 58.8395 154.868C58.8914 154.605 58.8914 154.279 58.9849 153.994C59.1304 153.331 59.2655 152.594 59.4837 151.93L59.785 151.004C59.8889 150.688 59.9824 150.393 60.1383 150.13C60.2525 149.887 60.3461 149.593 60.4603 149.35C61.25 147.486 62.1851 145.496 63.2345 144.001C65.2918 140.821 67.5776 138.894 71.2246 139.199C71.8584 139.304 72.5546 139.431 73.1468 139.631L73.4897 139.746C74.0196 139.957 75.5677 140.452 76.0664 140.757C76.3885 140.936 77.1366 141.337 77.4691 141.516C78.1445 141.916 78.1964 142.084 78.0302 142.59C77.8743 143.074 77.6769 143.674 77.4899 144.327C77.3133 144.875 77.1574 145.454 76.9704 146.002C76.8769 146.286 76.8145 146.591 76.7314 146.844C76.5028 147.55 76.295 148.076 76.108 148.308C75.8171 148.782 75.5054 148.529 74.5079 148.371C74.1027 148.339 73.126 148.087 72.7416 147.992L70.8194 147.339C70.2479 147.149 69.0531 147.065 68.6271 147.202C67.3802 147.708 66.4971 148.898 65.8737 150.783C65.7594 151.13 65.6866 151.467 65.6866 151.783C65.6762 151.92 65.7178 152.004 65.8113 152.036C65.8425 152.036 65.8736 152.057 65.9152 152.036C65.9879 152.025 66.0399 151.973 66.123 151.93C66.5594 151.762 67.027 151.741 67.5153 151.762C68.4089 151.815 69.2089 151.941 69.9051 152.173C71.7337 152.794 72.8766 154.1 73.0845 156.048C73.126 156.985 73.1052 157.691 72.7312 158.944C72.6481 159.197 72.6065 159.439 72.5234 159.691C72.2428 160.555 71.8376 161.345 71.2973 162.05C70.2168 163.43 68.2011 164.346 66.3828 163.798L66.3724 163.819ZM68.1491 157.006C68.1803 156.911 68.1699 156.838 68.1387 156.722C68.0764 156.49 67.8166 156.111 67.4945 156.006C67.401 155.974 67.2971 155.974 67.2244 155.985C66.6945 155.985 66.1646 156.122 65.6243 156.258C65.4165 156.364 65.2191 156.543 65.0009 156.648C64.7931 156.753 64.7099 156.901 64.5957 157.154L64.5645 157.248C64.5125 157.406 64.5333 157.554 64.6996 157.68C64.8242 157.722 64.9074 157.785 64.9385 157.796C65.51 157.986 66.0087 157.943 66.5282 157.975C66.8399 157.975 67.1101 157.817 67.4218 157.712C67.6919 157.627 67.8582 157.438 68.014 157.196C68.0764 157.111 68.1283 157.059 68.1491 156.996V157.006Z" fill="#77B09F"/>
<path d="M77.9783 150.783H78.0094C78.3419 150.751 78.7056 150.783 79.0381 150.825C79.3706 150.857 79.7342 150.899 80.0563 151.004C80.7109 151.141 81.9265 151.362 83.2149 151.499C83.3188 151.499 83.3812 151.52 83.4747 151.531C84.0358 151.594 84.576 151.573 85.0332 151.625C85.3657 151.657 85.6566 151.72 85.906 151.889C86.1865 152.089 86.332 152.341 86.3008 152.678C86.2489 153.152 86.2177 153.521 86.1761 153.921C86.1034 154.658 86.0307 155.364 85.8229 156.396C85.6359 157.596 85.6774 157.87 85.4488 159.134C85.3865 159.471 85.1683 159.618 84.867 159.65C83.828 159.681 82.6331 159.618 81.4694 159.502C80.0459 159.355 78.6017 159.102 77.5003 158.723C77.2094 158.628 76.8873 158.491 76.7314 158.102C76.6795 157.965 76.6587 157.859 76.6691 157.723C76.6899 157.491 76.7522 157.259 76.7834 156.954C76.9808 155.048 77.1159 152.994 77.2925 151.183C77.2925 151.12 77.3133 151.015 77.386 150.951C77.5419 150.762 77.8328 150.793 77.9679 150.804L77.9783 150.783Z" fill="#77B09F"/>
<path d="M102.915 153.479C102.977 154.047 103.008 154.626 103.029 155.195C103.07 156.206 103.112 157.185 103.018 158.175C102.998 158.28 103.008 158.375 102.987 158.481C102.987 160.008 102.644 161.166 102.26 162.324C102.104 162.777 101.99 163.24 101.74 163.672C101.096 164.799 100.151 165.684 98.9767 165.947C98.5819 166.02 98.1662 166.168 97.7714 166.252C97.4701 166.284 97.148 166.357 96.8467 166.389C96.5454 166.421 96.244 166.421 95.9427 166.421C94.5401 166.442 93.314 165.894 92.3062 164.683C91.9737 164.346 91.6931 163.935 91.3814 163.567C89.7813 161.471 88.9605 158.481 88.5241 154.458C88.4826 154.026 88.4618 153.552 88.4098 153.078C88.0462 148.14 88.8254 144.528 91.7347 142.306C92.5451 141.737 93.5634 141.252 94.6543 141.137C94.8829 141.116 95.1219 141.116 95.3505 141.137C95.5895 141.137 95.7869 141.189 96.0362 141.263C97.4078 141.589 98.3013 141.821 99.517 142.874C100.14 143.38 100.587 144.075 100.93 144.791C101.335 145.728 101.637 146.644 101.907 147.634C102.302 149.119 102.468 150.688 102.748 152.32C102.79 152.72 102.863 153.089 102.904 153.489L102.915 153.479ZM97.3039 153.584C97.2727 153.278 97.1999 152.92 97.1688 152.615C96.9194 150.909 96.7636 150.046 96.2337 148.887C96.1298 148.592 95.922 148.445 95.6726 148.371C95.6414 148.371 95.5999 148.35 95.5687 148.35C95.5063 148.35 95.444 148.403 95.3401 148.413H95.3089C94.7167 148.487 94.4881 149.182 94.4569 149.867C94.4465 150.372 94.3634 150.899 94.3842 151.404C94.3842 152.11 94.3946 152.457 94.4569 153.026L94.592 154.3C94.6855 154.837 94.6959 154.963 94.7479 155.469C94.9349 156.227 94.9764 156.933 95.2466 157.617C95.3609 158.049 95.5063 158.438 95.7038 158.786C95.9012 159.102 96.1194 159.249 96.3687 159.386C96.4415 159.449 96.5454 159.439 96.6077 159.428C96.7116 159.418 96.7947 159.344 96.8779 159.165C97.0233 158.912 97.1792 158.586 97.2519 158.28C97.387 157.659 97.4493 157.038 97.4805 156.353C97.4805 155.342 97.3974 154.637 97.2831 153.594L97.3039 153.584Z" fill="#77B09F"/>
<path d="M121.129 152.615C121.305 153.089 121.409 153.552 121.482 154.026C121.586 154.595 121.617 155.132 121.534 155.669C121.482 156.09 121.43 156.532 121.347 156.964C120.942 158.46 119.342 160.439 116.848 161.735C116.609 161.861 116.36 161.956 116.11 162.051C115.612 162.24 115.113 162.324 114.573 162.503C113.928 162.682 113.243 162.767 112.526 162.651C112.422 162.651 112.339 162.619 112.245 162.577C111.456 162.272 110.604 161.987 109.907 161.461C109.471 161.155 109.055 160.818 108.661 160.503C107.673 159.765 107.04 158.86 106.686 157.912C106.084 156.311 106.208 154.669 106.655 153.089C106.718 152.594 106.894 152.131 107.071 151.636C107.175 151.341 107.32 151.067 107.466 150.793C107.466 150.72 107.528 150.667 107.57 150.604C107.611 150.446 107.642 150.319 107.611 150.225C107.59 150.161 107.518 150.077 107.424 150.004C107.31 149.898 107.175 149.814 107.029 149.719C106.489 149.424 106.011 148.993 105.543 148.603C105.024 148.161 104.556 147.581 104.13 147.023C103.746 146.486 103.403 145.939 103.175 145.338C103.081 145.086 102.987 144.833 102.956 144.559C102.904 144.327 102.842 144.064 102.852 143.812C102.852 143.232 102.79 142.611 102.904 142.063C103.008 141.411 103.278 140.8 103.736 140.294C104.089 139.905 104.463 139.473 104.889 139.094C105.606 138.525 106.427 138.062 107.289 137.735C107.32 137.725 107.383 137.704 107.414 137.683C109.585 136.84 111.944 136.756 113.357 137.767C113.689 137.999 114.001 138.241 114.334 138.472C114.947 138.957 115.227 139.536 115.508 140.252C115.705 140.789 115.903 141.4 116.121 142.074C116.651 143.854 115.892 145.728 115.414 147.466V147.497C115.466 147.592 115.622 147.529 115.705 147.571C116.256 147.718 116.744 147.961 117.253 148.276C117.918 148.814 118.646 149.33 119.331 149.93C119.913 150.351 120.36 150.867 120.651 151.551C120.713 151.709 120.796 151.857 120.859 152.015C120.973 152.225 121.077 152.404 121.16 152.626L121.129 152.615ZM110.562 142.99C110.416 142.611 110.188 142.274 109.772 142.316C109.648 142.369 109.575 142.358 109.481 142.39C108.515 142.758 107.964 143.664 108.266 144.454L108.328 144.612C108.692 145.37 109.274 145.907 109.772 146.465C109.897 146.602 109.98 146.739 110.25 146.781C110.437 146.528 110.458 146.381 110.531 146.097C110.531 145.918 110.583 145.749 110.635 145.517C110.749 144.97 110.853 144.391 110.78 143.833C110.718 143.569 110.676 143.264 110.562 142.98V142.99ZM113.274 156.806C113.928 156.554 114.448 155.669 114.302 155.29L114.084 154.721C113.97 154.405 113.7 154.079 113.471 153.763C113.17 153.521 112.889 153.268 112.515 153.194C112.37 153.184 112.256 153.152 112.193 153.173C112.1 153.205 112.058 153.3 112.037 153.415C111.788 154.163 111.445 154.869 111.746 155.658C112.006 156.353 112.754 157.006 113.284 156.796L113.274 156.806Z" fill="#77B09F"/>
<path d="M130.262 154.047C130.065 154.363 129.784 154.542 129.493 154.763C129.244 154.921 128.964 155.058 128.693 155.184C128.444 155.342 128.112 155.384 127.841 155.321C127.384 155.216 126.906 155.079 126.48 154.826C126.023 154.521 125.68 154.1 125.389 153.615L125.182 153.268C124.548 152.236 125.078 150.403 126.065 149.782C126.356 149.677 126.595 149.561 126.875 149.435C127.602 149.098 128.361 149.498 129.047 149.656C129.618 149.887 130.023 150.351 130.439 151.035C131.125 152.152 130.782 153.194 130.273 154.037L130.262 154.047Z" fill="#77B09F"/>
<path d="M138.283 132.322C138.668 132.744 139.021 133.196 139.374 133.639C139.998 134.429 140.59 135.197 141.099 136.061C141.141 136.156 141.203 136.229 141.255 136.335C142.138 137.567 142.533 138.714 142.897 139.873C143.042 140.336 143.208 140.768 143.25 141.273C143.375 142.569 143.125 143.843 142.325 144.759C142.055 145.054 141.795 145.422 141.525 145.717C141.307 145.917 141.078 146.17 140.86 146.381C140.642 146.581 140.393 146.76 140.154 146.939C139.031 147.792 137.722 148.087 136.216 147.697C135.748 147.623 135.281 147.465 134.823 147.339C132.319 146.591 129.919 144.664 127.239 141.674C126.948 141.347 126.657 140.979 126.345 140.631C123.186 136.851 121.721 133.46 122.781 129.943C123.103 129.005 123.654 128.005 124.464 127.257C124.641 127.099 124.828 126.962 125.025 126.836C125.223 126.699 125.41 126.615 125.649 126.531C126.948 125.972 127.81 125.635 129.4 125.762C130.2 125.804 130.958 126.099 131.644 126.467C132.517 126.983 133.286 127.552 134.075 128.184C135.249 129.153 136.299 130.322 137.473 131.48C137.743 131.775 138.013 132.028 138.283 132.333V132.322ZM133.816 135.755C133.618 135.534 133.348 135.282 133.14 135.05C131.956 133.818 131.322 133.218 130.221 132.596C129.971 132.417 129.711 132.428 129.472 132.512C129.452 132.533 129.4 132.533 129.379 132.554C129.327 132.596 129.306 132.67 129.234 132.733L129.213 132.754C128.766 133.165 128.995 133.86 129.369 134.429C129.66 134.85 129.888 135.313 130.2 135.713C130.615 136.282 130.823 136.556 131.197 136.977L132.049 137.925C132.434 138.304 132.517 138.399 132.86 138.778C133.452 139.283 133.888 139.831 134.512 140.22C134.855 140.494 135.197 140.726 135.561 140.894C135.904 141.031 136.164 141.021 136.455 140.989C136.548 140.989 136.621 140.926 136.673 140.884C136.746 140.821 136.777 140.694 136.735 140.505C136.704 140.22 136.652 139.852 136.517 139.567C136.268 138.978 135.956 138.441 135.582 137.872C134.99 137.051 134.512 136.535 133.826 135.755H133.816Z" fill="#77B09F"/>
<path d="M155.49 128.658C155.012 129.511 154.586 130.353 154.077 131.143C153.661 131.796 153.225 132.396 152.705 132.891C152.123 133.47 151.479 133.923 150.793 134.366C150.367 134.65 149.941 134.766 149.442 134.797C148.913 134.882 148.372 134.85 147.853 134.671L147.302 134.545C146.512 134.418 145.775 134.134 145.027 133.755C144.788 133.639 144.486 133.555 144.227 133.386C143.634 133.07 142.969 132.754 142.388 132.365L141.577 131.828C141.297 131.638 141.047 131.48 140.839 131.248C140.632 131.069 140.382 130.901 140.185 130.732C138.606 129.479 136.943 128.058 135.79 126.647C133.286 123.814 132.039 121.086 133.265 117.59C133.525 117.001 133.826 116.348 134.179 115.821L134.377 115.516C134.72 115.052 135.582 113.652 136.008 113.252C136.268 112.978 136.829 112.346 137.089 112.072C137.65 111.514 137.816 111.504 138.263 111.798C138.678 112.072 139.208 112.43 139.78 112.767C140.247 113.083 140.767 113.389 141.245 113.704C141.494 113.873 141.764 114.01 141.982 114.157C142.595 114.568 143.053 114.905 143.219 115.137C143.593 115.547 143.281 115.779 142.865 116.716C142.73 117.106 142.242 117.99 142.045 118.348L140.933 120.065C140.6 120.57 140.216 121.729 140.237 122.182C140.393 123.54 141.307 124.709 142.949 125.804C143.25 126.004 143.551 126.162 143.853 126.246C143.977 126.289 144.071 126.268 144.133 126.183C144.154 126.152 144.175 126.131 144.164 126.078C144.164 126.004 144.133 125.941 144.112 125.846C144.06 125.372 144.164 124.909 144.31 124.446C144.59 123.582 144.912 122.835 145.318 122.213C146.377 120.581 147.915 119.791 149.827 120.097C150.731 120.297 151.396 120.497 152.497 121.192C152.715 121.339 152.934 121.444 153.152 121.592C153.9 122.087 154.554 122.687 155.084 123.403C156.113 124.814 156.477 127.026 155.49 128.668V128.658ZM149.442 125.151C149.359 125.099 149.287 125.088 149.162 125.088C148.923 125.088 148.497 125.246 148.32 125.53C148.268 125.615 148.237 125.72 148.227 125.794C148.092 126.31 148.092 126.868 148.081 127.426C148.133 127.658 148.248 127.9 148.3 128.131C148.352 128.363 148.466 128.489 148.674 128.658L148.757 128.711C148.892 128.805 149.048 128.816 149.214 128.69C149.287 128.574 149.37 128.511 149.391 128.479C149.723 127.973 149.806 127.468 149.972 126.973C150.056 126.668 149.972 126.362 149.952 126.025C149.941 125.73 149.796 125.52 149.619 125.32C149.557 125.236 149.515 125.172 149.463 125.13L149.442 125.151Z" fill="#77B09F"/>
<path d="M88.6394 88.5362C92.4095 88.5362 95.4657 85.4386 95.4657 81.6176C95.4657 77.7965 92.4095 74.699 88.6394 74.699C84.8693 74.699 81.813 77.7965 81.813 81.6176C81.813 85.4386 84.8693 88.5362 88.6394 88.5362Z" fill="#A2137D"/>
<path d="M87.87 72.4977C81.6982 74.2352 67.9728 49.7621 68.1806 44.2967C68.2325 42.854 77.5214 39.3789 80.0254 38.0731C83.0801 36.4724 89.0753 35.0087 91.1325 38.7154C93.7301 43.391 94.2808 70.7075 87.87 72.5082V72.4977Z" fill="#A2137D"/>
<path d="M94.4887 74.0565C93.4289 72.9613 95.268 70.5814 96.8057 61.9042C97.3668 58.7556 96.8057 56.2071 98.2499 52.0054C100.037 46.8454 101.98 41.6223 102.333 41.4432C106.011 39.4845 119.02 48.1091 122.033 54.1642C123.238 56.5757 122.376 57.7446 122.251 58.3238C121.607 61.2618 114.625 64.9686 109.825 67.0116C99.2474 71.5187 95.7147 75.3307 94.4783 74.0565H94.4887Z" fill="#A2137D"/>
<path d="M98.7386 78.4161C98.8633 78.4056 97.9801 77.9422 98.1568 77.7948C100.848 75.5834 104.516 76.5417 107.591 75.2359C112.09 73.3298 111.799 72.7085 116.111 71.0026C119.405 69.6968 129.192 63.4205 130.491 64.0524C133.411 65.474 134.741 76.6049 134.782 78.9742C134.824 81.133 135.323 81.8912 134.782 82.7337C132.881 85.7244 115.467 85.4611 106.303 81.9123" fill="#A2137D"/>
<path d="M98.1148 82.8385C98.759 82.154 101.086 85.1553 106.292 86.3873C109.845 87.2298 111.518 86.4821 117.981 87.5668C120.932 88.0617 126.355 87.7247 126.979 88.525C128.683 90.7154 129.13 97.1391 126.439 99.182C124.257 100.835 115.653 99.182 114.24 98.9293C109.762 98.1606 106.905 95.0961 103.726 91.5894C101.014 88.5882 97.3044 83.702 98.1148 82.828V82.8385Z" fill="#A2137D"/>
<path d="M96.4837 86.8721C96.9513 86.7352 97.5851 91.7583 101.855 96.1075C104.141 98.4347 106.625 99.6984 108.869 100.846C114.147 103.542 115.695 102.763 118.22 105.111C118.729 105.585 122.127 108.744 121.722 112.693C121.16 118.222 113.908 129.995 110.24 128.236C107.996 127.162 108.308 116.884 105.118 110.082C102.78 105.111 101.835 105.311 99.7463 100.846C96.411 93.7275 95.9331 87.0301 96.4733 86.8721H96.4837Z" fill="#A2137D"/>
<path d="M92.047 90.895C93.138 91.211 92.286 94.0963 94.3848 99.1826C95.1121 100.952 95.4758 101.226 96.0161 102.974C96.546 104.68 101.346 109.008 100.858 111.546C100.619 112.83 100.92 117.896 99.0916 118.717C96.733 119.77 88.2858 112.725 86.6649 110.082C84.5557 106.649 85.5323 102.742 86.1973 100.13C87.4441 95.2126 90.5716 90.4633 92.0366 90.895H92.047Z" fill="#A2137D"/>
<path d="M84.7944 90.0207C86.2386 92.0531 81.4903 94.8964 81.5215 101.868C81.5423 105.301 82.706 107.186 81.5215 110.397C81.2306 111.177 80.4409 113.251 78.4875 114.662C74.7886 117.327 66.6323 119.612 64.5335 116.274C63.2451 114.231 66.0193 108.249 67.9726 102.342C69.7182 97.0657 70.5806 94.4225 72.8768 92.3901C76.8355 88.8834 83.3086 87.9357 84.7944 90.0207Z" fill="#A2137D"/>
<path d="M78.9552 86.3982C78.789 87.6197 74.7264 86.5982 69.1365 89.2414C63.3699 91.9689 63.3491 95.1175 59.0891 95.8757C54.1018 96.7603 49.7483 93.222 48.3353 92.0847C46.6001 90.6841 40.366 88.1252 40.8543 85.4925C41.4466 82.2912 50.1328 81.0065 52.5433 80.48C54.5278 80.0482 57.9462 79.5638 64.2323 80.7116C70.6742 81.8911 79.1942 84.629 78.9552 86.3982Z" fill="#A2137D"/>
<path d="M79.8904 79.2899C78.5604 81.396 69.7703 74.5827 57.6865 75.025C49.5717 75.3198 45.478 78.6896 43.8987 76.6783C41.5193 73.6665 49.0834 63.9784 50.4445 62.2303C55.0785 56.291 56.8761 49.2671 60.4503 49.2145C64.8454 49.1513 66.2273 57.7653 78.7163 75.9727C79.3189 76.8468 80.4203 78.4474 79.88 79.2899H79.8904Z" fill="#A2137D"/>
</svg>
