<?xml version="1.0" encoding="UTF-8"?>
<svg id="Layer_1" data-name="Layer 1" xmlns="http://www.w3.org/2000/svg" xmlns:xlink="http://www.w3.org/1999/xlink" viewBox="0 0 617.17 576.01">
  <defs>
    <style>
      .cls-1, .cls-2, .cls-3 {
        fill: none;
      }

      .cls-2, .cls-3 {
        stroke: #77b09f;
        stroke-miterlimit: 10;
      }

      .cls-4 {
        clip-path: url(#clippath-1);
      }

      .cls-5 {
        fill: #77b09f;
      }

      .cls-6 {
        fill: #a2137d;
      }

      .cls-3 {
        stroke-width: 7px;
      }

      .cls-7 {
        clip-path: url(#clippath);
      }
    </style>
    <clipPath id="clippath">
      <rect class="cls-1" x="-192.93" y="-4120.15" width="4285.98" height="2205.35"/>
    </clipPath>
    <clipPath id="clippath-1">
      <path class="cls-2" d="M1938.78-7988.34c466.98,622.71,933.95,1245.41,1400.93,1868.12,215.85,287.84,430.91,575.64,656.72,855.8,126.59,157.05,254.36,313.34,375.64,474.56,110.03,146.27,219.63,292.87,329.45,439.31,277.12,369.53,554.23,739.06,831.35,1108.59-32.5,33.12-64.99,66.24-97.42,99.43-134.83,138.05-267.84,277.84-396.82,421.39-71.86,79.98-143.63,160.14-208.94,245.63-70.28,91.99-134.85,188.25-196.27,286.34-243.76,389.28-439.39,806.45-683.82,1195.33-104.84,166.8-218.38,333.46-358.53,472.93-131.93,131.29-287.34,236.04-448.51,327.9C2795.81,4.63,2412.84,146.9,2101.19,401.72c-174.71,142.85-312.28,325.35-443,507.8-158.9,221.79-304.59,452.7-451.65,682.39-145.62-194.18-291.23-388.35-436.85-582.53-66.22-88.31-130.11-179.11-201.19-263.61-69.64-82.79-146.12-159.45-223.41-235.03C218.67,387.12,90.55,264.92-16.11,123.25-121.5-16.73-226.36-157.11-331.48-297.29c-102.71-136.97-210.65-271.47-307.66-412.55-103.04-149.85-183.47-313.77-269.39-473.62-42.74-79.5-86.68-158.48-135.43-234.49-47.58-74.17-101.64-143.73-154.47-214.17-111.52-148.71-223.04-297.42-334.56-446.13-250.1-333.51-500.2-667.02-750.31-1000.52,146-236.99,290.4-475.41,449.91-703.68,127.98-183.14,263.94-366.21,439.35-506.87,311.96-250.16,698.71-376.85,1047.5-563.87,162.49-87.13,319.01-188.46,450.76-318.45,143.69-141.77,247.04-316.25,332.7-497.71,204.51-433.24,318.61-902.88,521.9-1336.63,49.6-105.82,104.89-209.45,170.78-306.1,61.47-90.16,133.95-171.83,212.02-247.92,141.96-138.37,304.06-251.59,473.06-354.26,41.17-25.01,82.64-49.55,124.11-74.07Z"/>
    </clipPath>
  </defs>
  <g class="cls-7">
    <g>
      <g class="cls-4">
        <g>
          <path class="cls-3" d="M2485.44-2159.8c-180.84,205.2-412.78,358.04-645.99,497.19-365.31,217.97-761.17,402.47-1083.66,684.46-150.72,131.8-274.52,291.54-389.9,454.34C234.04-337.78,115.48-142.81-3.02,51.86"/>
          <path class="cls-3" d="M2544.43-2081.13c-180.86,205.23-412.47,358.18-645.89,497.08-364.56,216.93-759.54,400.23-1081.11,681.55-150.69,131.83-274.45,291.49-389.84,454.27C295.25-261.54,176.13-65.95,57.03,129.32"/>
          <path class="cls-3" d="M2603.43-2002.46c-179.4,203.58-408.65,355.34-640.53,492.59-363.56,215.2-757.73,395.82-1078.03,676.11-149.96,131.23-273.12,290.28-388.1,452.19C362.6-192.64,241.62,5.21,120.63,202.71"/>
          <path class="cls-3" d="M2662.42-1923.79c-178.65,202.71-406.96,353.29-638.45,488.9-359.91,210.84-750.18,387.17-1066.52,664.01-149.41,130.76-272,289.41-386.79,450.57C434.02-128.44,310.58,72.39,187.08,272.84"/>
          <path class="cls-3" d="M2721.42-1845.12c-176.09,199.79-400.93,347.85-629.67,480.51-357.1,207.09-744.85,378.62-1058.18,652.55-150.45,131.53-273.53,291.87-389.1,454.01C506.27-64.18,380.93,138.45,255.5,340.71"/>
          <path class="cls-3" d="M2780.41-1766.45c-174.61,198.09-397.78,344.17-625.37,474.27-350.94,200.61-731.62,366.08-1039.47,633.27-151.88,131.82-275.58,293.42-392.17,456.33C582.04-5.03,453.6,201.37,325.01,407.34"/>
          <path class="cls-3" d="M2839.41-1687.78c-172.34,195.5-392.64,339.11-618,466.19-347.31,195.84-724.41,355.98-1028.28,619.6-152.09,131.95-275.67,294.47-392.55,457.43-143.73,200.41-274.71,409.59-405.88,618.31"/>
          <path class="cls-3" d="M2898.41-1609.11c-170.98,193.94-389.67,335.65-614,460.28-342.79,190.45-714.9,345.24-1014.07,604.42-151.72,131.44-274.78,293.91-391.55,456.17-146.79,204-280.82,416.83-415.07,629.17"/>
          <path class="cls-3" d="M2957.4-1530.44c-168.68,191.32-384.12,330.9-606.01,452.82-340.34,187-710.18,337.33-1006.68,594.01-152.75,132.24-276.33,296.39-393.89,459.65-148.12,205.7-283.76,420.05-419.66,633.89"/>
          <path class="cls-3" d="M3016.4-1451.77c-168.24,190.82-382.99,329.62-604.86,450.17-335.92,182.51-700.23,328.69-992.97,580.5-153.82,132.31-277.91,297.2-396.11,461-150.33,208.32-288.16,425.34-426.29,641.83"/>
          <path class="cls-3" d="M57.03,129.32c-133.13,218.25-266.32,437.05-417.91,643.16-116.02,157.74-246.93,302.96-375.57,450.33-122.19,139.98-244.38,279.97-366.57,419.95-278.9,319.51-557.79,639.02-836.69,958.53"/>
          <path class="cls-3" d="M120.63,202.71C-14.67,423.56-149.93,645.07-303.76,853.7c-114.72,155.58-243.82,299-370.81,444.48-122.89,140.79-245.79,281.58-368.68,422.37-279.15,319.8-558.3,639.6-837.45,959.41"/>
          <path class="cls-3" d="M187.08,272.84C49.93,495.44-87.13,718.72-242.4,929.34c-115.65,156.87-245.74,301.51-373.77,448.19-123.6,141.6-247.2,283.2-370.8,424.8-278.25,318.77-556.49,637.53-834.74,956.3"/>
          <path class="cls-3" d="M255.5,340.71C115.01,567.26-25.31,794.55-183.94,1009.03c-115.84,156.62-245.84,301.22-373.82,447.84-123.15,141.08-246.3,282.17-369.45,423.25-278.5,319.06-557.01,638.12-835.51,957.18"/>
          <path class="cls-3" d="M325.01,407.34C182.41,635.75,40.04,864.93-120.16,1081.59c-117.72,159.21-249.69,306.26-379.77,455.28-122.26,140.06-244.51,280.12-366.77,420.18-279.01,319.64-558.02,639.28-837.03,958.92"/>
          <path class="cls-3" d="M394.71,473.75C248.46,706.46,102.52,940-61.36,1160.88c-118.03,159.07-250.01,306.23-380.15,455.32-121.81,139.55-243.63,279.1-365.44,418.65-279.26,319.93-558.52,639.85-837.78,959.78"/>
          <path class="cls-3" d="M463.72,540.94C315.05,776.09,166.74,1012.12.77,1235.63c-118.24,159.25-250.16,306.72-380.47,456.01-123.64,141.65-247.28,283.29-370.92,424.94-278.37,318.91-556.74,637.82-835.11,956.72"/>
        </g>
      </g>
      <path class="cls-2" d="M1938.78-7988.34c466.98,622.71,933.95,1245.41,1400.93,1868.12,215.85,287.84,430.91,575.64,656.72,855.8,126.59,157.05,254.36,313.34,375.64,474.56,110.03,146.27,219.63,292.87,329.45,439.31,277.12,369.53,554.23,739.06,831.35,1108.59-32.5,33.12-64.99,66.24-97.42,99.43-134.83,138.05-267.84,277.84-396.82,421.39-71.86,79.98-143.63,160.14-208.94,245.63-70.28,91.99-134.85,188.25-196.27,286.34-243.76,389.28-439.39,806.45-683.82,1195.33-104.84,166.8-218.38,333.46-358.53,472.93-131.93,131.29-287.34,236.04-448.51,327.9C2795.81,4.63,2412.84,146.9,2101.19,401.72c-174.71,142.85-312.28,325.35-443,507.8-158.9,221.79-304.59,452.7-451.65,682.39-145.62-194.18-291.23-388.35-436.85-582.53-66.22-88.31-130.11-179.11-201.19-263.61-69.64-82.79-146.12-159.45-223.41-235.03C218.67,387.12,90.55,264.92-16.11,123.25-121.5-16.73-226.36-157.11-331.48-297.29c-102.71-136.97-210.65-271.47-307.66-412.55-103.04-149.85-183.47-313.77-269.39-473.62-42.74-79.5-86.68-158.48-135.43-234.49-47.58-74.17-101.64-143.73-154.47-214.17-111.52-148.71-223.04-297.42-334.56-446.13-250.1-333.51-500.2-667.02-750.31-1000.52,146-236.99,290.4-475.41,449.91-703.68,127.98-183.14,263.94-366.21,439.35-506.87,311.96-250.16,698.71-376.85,1047.5-563.87,162.49-87.13,319.01-188.46,450.76-318.45,143.69-141.77,247.04-316.25,332.7-497.71,204.51-433.24,318.61-902.88,521.9-1336.63,49.6-105.82,104.89-209.45,170.78-306.1,61.47-90.16,133.95-171.83,212.02-247.92,141.96-138.37,304.06-251.59,473.06-354.26,41.17-25.01,82.64-49.55,124.11-74.07Z"/>
    </g>
  </g>
  <g>
    <g>
      <g>
        <path class="cls-5" d="M30.56,270.74c0,3.03.44,3.65.72,6.53.15,1.67.58,7.74.58,9.41,0,4.71.72,11.84.72,14.42,0,.91,2.47,1.21,5.82,1.22,3.93,0,9.02-.45,12.08-.45h.15c-.15-4.1-.14-6.83-.14-9.56v-7.29c0-3.49-.29-3.34-.28-6.68v-2.27c0-2.28,1.31-4.4,3.79-4.4,2.04,0,.44-.3,9.17-.29,1.89,0,2.04.15,4.22.15h.14c1.31,0,2.77-.3,4.22-.3.73,0,1.45.15,2.04.3.87.3.87,1.37,1.16,2.28.44,1.67.58,3.34.58,5.01,0,3.03.15,5.16.14,7.13,0,1.52-.15,3.04-.29,4.86l-.15,8.5c4.66.31,3.49.31,8,.31,3.35,0,7.57.31,11.06.31,1.89,0,5.09,0,6.98-.15.73-.15,1.46-.15,2.33-.15h1.02c1.16,0,1.6.45,1.89,1.82.43,5.46.72,14.41.72,19.42,0,.76-.14,1.37-.73,1.97-.58.61-1.02.91-1.89.91-4.07,0-7.86.3-11.79.29-1.45,0-2.76,0-4.22-.15-4.66,0-10.33-.16-15.13-.16-4.36,0-8.58.15-12.95.15-3.2,0-6.55-.31-9.75-.31-1.75,0-3.64.3-5.39.3-2.91.15-5.97.3-9.17.3-7.27,0-14.84-.47-21.24-.77-3.06-.15-6.11-.46-9.17-.46-1.02,0-1.6.3-2.04.3-.44,0-.73-.3-1.31-1.21-.73-1.37-.73-2.58-.73-3.95-.14-3.95-.28-12.44-.72-16.39,0-.61,0-1.06-.15-1.52C.57,295,0,289.84,0,284.53c0-2.43.15-2.88.15-5.47,0-1.36.15-3.34.15-5.16,0-1.22-.14-2.28-.29-3.04v-.76c0-1.36,2.47-1.67,5.38-1.67,7.27.01,17.02.32,23.13.32,1.02,0,1.89.91,2.04,1.97Z"/>
        <path class="cls-5" d="M117.88,227.55c.84,3.78.58,10.21-.7,15.99l-.52,1.74c-1.39,4.64-3.68,8.18-6.67,11.02-5.94,5.53-13.59,7.16-22.16,6.73-3.73-.27-7.7-.77-11.72-1.61-5.86-1.29-12.06-3-18.25-4.71-1.99-.49-4.21-1.22-6.15-1.86-2.92-.95-5.79-2.05-8.8-3.2-2.32-.92-4.55-2.13-6.86-3.05-10.48-4.7-17.21-8.19-22.12-15.68-2.63-3.4-4.92-7.97-3.94-13.22.45-3.04,1.04-6.5,2.04-9.83,1.74-5.79,4.55-11.55,8.45-14.89,1.49-1.42,3.03-2.98,4.86-3.98,10.74-6.82,22.87-5.55,42.58.91l2.91.96c2.54.67,5.04,1.49,7.54,2.31,17.21,5.64,31.13,12.59,37.23,25.25,1.14,2.28,1.78,4.72,2.28,7.11ZM46.87,212.71c-.83.21-2.22,1.81-2.79,3.7l-.18.58c-.51,2.7-.05,5.23.99,6.85,2.5,3.84,5.91,6.71,9.99,8.84,1.35.6,2.92,1.43,4.59,1.98l1.53.5c5.08,1.35,18,3.51,20.1-3.44,2.79-9.27-8.8-14.81-18.38-17.95-1.66-.54-3.14-.71-4.67-1.21-1.25-.41-2.82-.77-4.48-.83-3.13-.23-4.56-.06-6.7.99Z"/>
        <path class="cls-5" d="M148.7,174.64c-.38,3.86-2.63,9.85-5.65,14.89l-1.04,1.46c-2.76,3.91-6.03,6.49-9.75,8.15-7.34,3.21-15.09,2.15-23.06-1.15-3.44-1.52-7.03-3.35-10.57-5.5-5.14-3.21-10.47-6.93-15.79-10.65-1.73-1.14-3.6-2.59-5.24-3.84-2.46-1.89-4.83-3.91-7.32-6.02-1.91-1.65-3.63-3.55-5.54-5.21-8.44-8-13.72-13.58-16.02-22.33-1.43-4.12-2.16-9.21.39-13.85,1.38-2.71,3.01-5.79,5-8.6,3.46-4.88,7.9-9.39,12.63-11.21,1.86-.83,3.8-1.79,5.83-2.11,12.29-2.8,23.36,2.51,39.98,15.31l2.46,1.89c2.19,1.5,4.3,3.12,6.4,4.75,14.52,11.18,25.51,22.47,27.33,36.51.37,2.55.21,5.07-.06,7.5ZM86.18,136.5c-.84-.09-2.67.96-3.79,2.55l-.35.49c-1.32,2.38-1.68,4.93-1.2,6.81,1.17,4.48,3.49,8.35,6.69,11.75,1.09,1.03,2.32,2.35,3.72,3.43l1.29.99c4.39,3,15.93,9.43,20.08,3.57,5.53-7.82-3.7-17-11.78-23.22-1.4-1.08-2.75-1.74-4.03-2.73-1.05-.81-2.43-1.68-3.97-2.31-2.89-1.28-4.29-1.6-6.64-1.34Z"/>
        <path class="cls-5" d="M208.94,42.98c-2.68,1.17-3.06,1.82-5.49,3.21-1.42.79-6.62,3.54-8.1,4.19-4.16,1.81-10.19,5.26-12.47,6.26-.81.35-.12,2.85,1.17,6.07,1.51,3.78,3.88,8.51,5.06,11.45l.05.14c3.57-1.72,5.99-2.77,8.4-3.82l6.45-2.81c3.09-1.35,2.84-1.57,5.79-2.85l2.02-.88c2.01-.88,4.4-.43,5.35,1.95.79,1.96.44.3,3.8,8.71.73,1.82.65,2.02,1.49,4.12l.05.14c.5,1.26,1.34,2.54,1.89,3.94.28.7.43,1.46.52,2.08.07.96-.87,1.36-1.56,2-1.31,1.06-2.73,1.85-4.21,2.49-2.69,1.17-4.51,2.12-6.26,2.89-1.34.59-2.74,1.03-4.41,1.59l-7.57,3.13c1.53,4.6,1.08,3.48,2.82,7.82,1.29,3.22,2.64,7.4,3.99,10.76.73,1.82,1.96,4.9,2.82,6.66.42.64.7,1.34,1.03,2.19l.39.98c.45,1.12.21,1.72-.88,2.52-4.67,2.52-12.47,6.26-16.9,8.19-.67.29-1.27.39-2.03.06-.76-.33-1.2-.63-1.53-1.47-1.57-3.92-3.3-7.45-4.81-11.23-.56-1.4-1.07-2.66-1.49-4.12-1.79-4.48-3.84-10-5.7-14.62-1.68-4.2-3.44-8.21-5.12-12.41-1.23-3.08-2.25-6.42-3.49-9.5-.67-1.68-1.67-3.38-2.34-5.06-1.26-2.74-2.57-5.62-3.8-8.7-2.8-7.01-5.31-14.46-7.51-20.74-1.04-3-1.95-6.06-3.13-9-.39-.98-.89-1.43-1.05-1.85-.17-.42-.01-.82.57-1.73.93-1.22,2-1.7,3.21-2.22,3.43-1.66,10.9-5.07,14.22-7.01.54-.24.94-.41,1.29-.72,4.45-2.27,8.79-4.82,13.49-6.87,2.15-.93,2.61-.97,4.89-1.96,1.21-.52,3.01-1.14,4.62-1.85,1.07-.47,1.96-1.01,2.57-1.45l.67-.29c1.21-.53,2.43,1.74,3.55,4.54,2.8,7,6.29,16.5,8.64,22.39.39.98-.08,2.17-.96,2.72Z"/>
        <path class="cls-5" d="M284.46,67.43c-2.15.38-4.02.74-6.19.97l-1.74.18c-3.47.38-6.24.52-9.71.9,0,0-.43,5.99.04,10.67.05.45,1.06.34,1.51.45,2.07.23,4.11.16,6.28-.07,3.76-.4,8.2-1.34,11.67-1.72l.29-.03c1.3-.14,2.46-.27,2.68,2,.78,7.85,1.72,15.83,2.48,23.53l.33,3.32c.18,1.81-2.27,2.23-4.15,2.43-.29.03-.73.08-1.01.11-11.28,1.22-21.8,2.81-33.67,4.09-2.17.24-4.34.47-6.5.86l-3.76.4c-.43.05-1.02.11-1.46,0-.91-.36-1.56-1.05-1.68-2.26l-.36-3.62c-.17-3.18-.5-6.5-.81-9.68-2.17-21.88-5.09-45.37-7.44-69.06l-.94-9.5c-.33-3.33-.53-6.81-.87-10.29l-.19-1.96c-.12-1.2-.08-2.28.24-3.53.25-.48.5-.82,1.08-.88l.29-.03c3.18-.34,5.96-.34,9.72-.75,2.61-.28,4.21-.3,6.82-.58,4.93-.38,7.44-.2,12.36-.72,1.59-.18,2.31-.25,3.89-.58,1.58-.32,2.59-.43,4.17-.75,1.72-.34,4.6-.8,6.19-.97,1.74-.19,2.76-.15,4.64-.35.87-.09,1.64.28,2.31,1.12.17.29.19.44.22.74l.17,1.66c.26,1.19.18,1.81.43,2.85.25,1.04,1.37,10.84,1.47,11.89.18,1.81-.18,2.61-1.89,3.1-3.43.83-8.78,1.4-12.83,1.84-1.73.19-3.33.36-4.92.53-.87.09-1.59.17-1.79,1.11-.4,1.87-.29,4.46-.07,6.72l.82,8.3c.07.75.14,1.36.33,1.8.19.43.64.54,1.07.49,2.6-.28,5.37-.43,8.26-.74,2.61-.28,5.2-.71,7.62-1.28.44-.04.71-.23,1.14-.27l.29-.03c.44-.05,1.03.04,1.35.31.93.51,1.03,1.57,1.12,2.48l.35,3.47c.57,5.73-.05,2.44,1.04,13.46l.51,5.13c.03.3.07.75.12,1.21.05.45.09.9-.17,1.24-.29.03-.86.24-1.14.28Z"/>
        <path class="cls-5" d="M344.25,41.99c-1.71-.36-3.48-.43-5.34-.04-1.88.53-3.31,1.78-4.14,3.77-.26.57-.37,1.16-.49,1.76-.4,2.08.11,4.05,1.08,5.95.77,1.4,1.82,2.86,2.73,4.29,1.54,2.8,6.21,5.49,7.95,8.02,1.88,2.57,3.44,5.22,5.15,7.9,1.68,2.83,2.1,6.02,2.24,9.14.11,2.5-.04,4.79-.5,7.17-.29,1.49-.74,3.09-1.32,4.52-1.01,3.66-3.18,6.45-4.92,9.34-1.23,1.75-2.83,3.12-4.2,4.85-.43.68-1.26,1.13-1.97,1.75-1.74,1.34-3.6,2.49-5.68,3.29-.17.12-.49.21-.8.3-5.94,1.53-11.87,2.3-19.86,1.39-1.74-.21-4.48-.64-6.48-1.05l-.85-.18c-3.57-.75-9.33-2.43-12.04-3-1-.21-1.77-.83-2.51-1.61-.74-.78-.88-1.58-.65-2.77.98-4.28,1.78-7.67,2.5-11.39.95-4.91,2.1-9.31,2.96-13.77.43-2.23.75-4.64,1.07-7.05l.12-.59c.2-1.04.54-1.28,1.6-1.37.6-.03,1.17.09,1.88.24,2.43.51,4.82,1.17,7.1,1.65,1.85.39,3.74.63,5.25.48,3.62-.32,7.08-1.29,9.93-3.79,1.43-1.25,2.34-2.92,2.66-4.55.35-1.78-.02-3.72-1.08-5.18-.77-1.4-1.39-2.77-2.16-4.17-1.25-1.97-3.39-3.96-4.98-5.7-1.25-1.19-2.33-2.5-3.28-3.78-1.39-2-2.76-4.14-3.98-6.26-1.65-2.98-2.44-5.78-3.32-9.68-.51-2.74-.48-4.44-.1-7.14l.17-.89c1.38-7.14,6.64-10.52,11.23-12.8,5.94-3.09,12.47-3.11,21.06-2.23,2.05.12,4.19.57,6.19.99,5.85,1.23,12.38,3.54,18.08,4.74,1.71.36,2.31,1.1,2.28,2.8l-1.7,8.78c-.32,1.64-.55,2.83-.92,5.53-.15,1.52-.29,2.26-.58,3.75-.52,2.68-1.01,4.43-1.49,6.96l-.29,1.49c-.55,1.28-1.72,1.96-3,1.69-4.42-.93-9.18-2.4-13.32-3.26l-1.28-.27Z"/>
        <path class="cls-5" d="M392.49,65.85c-1.91-1.11-4.4-2.37-6.94-3.85-1.65-.96-3.36-2.13-4.69-3.06-.25-.15-.44-.43-.82-.65-.55-.84-.78-1.67-.28-2.59l4.66-8.76c3.22-5.42,6.81-11.86,9.77-17.09l.35-.66c.71-1.33,1.82-3.11,3.1-2.38,14.55,7.38,33.88,18.59,45.22,24.81l.64.37c.76.44,1.46,1.02,1.47,2.24.04.55-.24,1.08-.59,1.74-2.04,3.51-3.56,5.75-5.05,8.54-.35.67-.58,1.4-.93,2.06l-3.25,6.1c-1.34,2.52-1.92,3.92-3.13,6.52l-1.55,2.92c-.5.93-.92,1.73-1.29,2.73l-.49.93c-.28.53-.99.29-1.57.13-1.09-.45-1.67-.62-2.3-.99-.89-.51-1.64-1.3-3.8-2.55l-2.93-1.7c-1.27-.74-2.94-1.36-4.54-2.11-.8.58-2.19,2.55-2.76,3.61-1.13,2.13-2.18,3.78-2.95,5.23-7.91,14.86-17.53,32.91-27.1,50.28-.28.53-.64,1.19-1.12,1.79-.5.93-1.36,1.3-2.12.85-2.55-1.47-6.88-3.64-10.06-5.48-1.02-.59-1.91-1.11-2.47-1.6l-.38-.22c-.51-.29-.96-.38-1.47-.68-.38-.22-.56-.5-.93-1.06-.24-.49.35-2.23.63-2.76l15.54-29.19c5.02-9.42,9.54-17.92,14.1-27.43.35-.66,1.16-2.8,1.51-3.47.21-.4.42-.8.51-1.27-.56-.5-1.33-.95-1.96-1.31Z"/>
        <path class="cls-5" d="M410.56,168.81l-1.59-1.56c-3.5-3.43-9.22-8.82-13.89-13.39-1.59-1.55,1.77-6.18,5.95-10.82,2.98-3.32,6.48-6.77,8.37-8.87.4-.45.7-.78.99-1.11.79-1.1,1.39-1.76,2.09-2.54.6-.66,1.2-1.33,1.89-2.1l9.85-10.96c7.47-8.3,15.54-16.83,22.61-24.68l1.89-2.1c2.19-2.43,4.17-4.86,6.36-7.3,2.58-3.09,5.27-6.08,8.16-9.29l1.39-1.55c.5-.34.91-.57,1.31-.8.41-.01.93.08,1.14.28l.85.83c1.59,1.56,3.28,2.79,4.96,4.24,5.09,4.98,9.66,9.66,14.54,14.44.21.21.32.31.33.74.04,1.07-.25,2.05-.94,2.82l-7.27,8.08c-5.58,6.2-11.25,12.5-16.74,18.16-5.39,5.54-9.28,9.65-12.76,13.52-2.69,2.99-5.17,5.97-8.06,9.18-2.88,3.21-6.38,6.87-10.76,11.52l-10.65,11.85c-.1.11-3.48,4.08-3.58,4.2-.4.44-1.01.68-1.62.7-.82.03-3.14-1.83-4.84-3.49Z"/>
        <path class="cls-5" d="M435.67,204.78c-2.81-5.14-5.49-10.36-7.63-15.2-.88-1.92,2.71-4.24,4.14-5.61,2.19-1.83,3.99-3.42,6.36-5.53,11.94-10.94,21.41-20.59,33.33-31.87,3.97-3.76,3.23-2.97,10.26-9.42.94-.73,1.61-1.66,3.47-3.46,7.82-7.44,13.44-12.18,20.58-19.04l.13-.07c1.52-.9,3.32,2.4,4.25,4.11l.15.27c.72,1.32,1.67,3.37,2.68,5.22l8.72,15.96c1.66,3.03-1.86,5.47-2.43,5.98-.25.15-.56.51-.81.66-1.86,1.8-3.6,3.53-5.66,5.28-7.71,7.03-6.14,4.7-15.54,13.25-2.18,1.83-7.37,7.35-10.52,9.57-1.44,1.03-2.8,2.54-4.04,3.63-8.15,7.47-9.79,9.67-9.43,10.32,0,0,10.58-4.54,20.58-7.69,12.46-3.56,25.91-9.29,38.65-13.54.71-.24,1.08-.47,1.66-.64l.13-.07c.9-.19,2.07-.18,2.51.61l3.02,5.54c2.36,4.02,3.68,5.51,6.32,10.04.43.79,1.28,2.04,1.85,3.09.43.79.67,1.53.76,1.99-.05.21-.62.72-1.12,1.02-.38.23-.63.38-.96.39-2.56.83-8.05,3.04-10.81,3.81-2.76.77-4.57,1.14-7.33,1.91-2.18.6-26.28,8.29-28.52,9.09-10.6,4.21-23.56,8.07-46.15,14.85-2.11.73-4.42,1.4-6.66,2.21-1.73.51-1.93.45-2.49-.26l-.07-.13s-.07-.13-.22-.39c-.07-.14-.15-.27-.22-.4-2.85-4.6-6-10.06-8.95-15.47Z"/>
        <path class="cls-5" d="M479.46,304.25c-2.35,1-2.76,1.22-4.97,2.2-2.07.95-3.68,1.98-5.48,2.74-.55.24-.98.31-1.42.38-1.15.19-1.84-.47-2.28-1.47-.82-1.56-1.17-2.88-1.37-4.23-.22-1.5-.31-3.02-.58-4.82l-.16-1.05c-.99-4.6-1.79-8-2.45-12.35-.07-.45,0-.93.11-1.25.22-.5,1.04-.94,1.88-1.23.27-.2.55-.24.96-.46.15-.03.41-.22.55-.24,9.1-4.11,13.1-4.92,21.45-8.13,8.35-3.21,2.69-.75,7.64-3.09.41-.22.65-.57.89-.92-.09-.6-.41-2.7-.38-3.48-.22-1.5-.29-2.87-.53-4.51l-.23-1.5c-.16-1.05-.13-1.82-.28-2.87-.11-.75-.39-1.63-.6-2.98-.66-.5-.47-1.15-1.52-1.28-4.3-.22-6.62.01-10.9-.06-3.37.1-5.72.17-8.52.17-3.35.24-5.98.36-9.5.48-.89,0-1.77-.02-2.65-.03-.6-.05-1.22-.26-1.7-.49-.35-.41-.85-.78-.92-1.23-.63-1.28-1.05-3.05-1.32-4.85-.27-1.8-.44-3.92-.69-5.57l-.52-3.45c-.2-1.35-.57-2.82-.82-4.47-.36-2.4-.41-4.69.27-6.04.12-.17.26-.19.41-.22.43-.07.89,0,1.17-.04.6.06,1.17-.04,1.77.02,2.82.15,5.07.4,7.27.35.43-.07,1.32-.06,1.65.19,8.47-.46,15.47.08,25.4.45,18.05.58,31.1,1.2,46.07,1.82,6.07.24,12.42,1.34,19.44.97,1.46-.08,1.38.39,1.95,1.21l.2,1.35c.7,1.73,1.05,3.05,1.77,4.94.14.9.58,1.9.88,2.93.11.75,1.43,8.52,2.13,13.17l.45,3c.14,2.89-.03,5.69.09,8.43-.07.48-.15.95-.54,1.32-.65.57-1.3,1.14-2,1.4-3.58,1.66-7.23,2.87-10.83,4.39-2.52.87-5.16,1.92-7.49,3.07-7.21,3.95-14.26,6.02-22.3,9.34-3.89,1.56-8.09,3.01-11.97,4.57-5.57,2.14-9.59,4.8-15.83,7.36-2.37.85-4.17,1.61-6.94,2.83-2.62,1.2-4.37,2.25-6.72,3.25ZM512.82,263.75c.14-.02.17.13.31.11.29-.05.45.08.74.03,2.88-.47,7.1-2.7,12.98-4.74,4.22-1.31,8.46-2.46,13.79-4.26.55-.25.67-.42.63-.72-.05-.3-.21-.42-.25-.72-.02-.15-.35-1.33-1.83-1.39-10.4-.6-23.2.42-26.65.99l-.72.11c-.12.17-.27.2-.41.22-.72.12-.57,2.09-.34,3.59.11.75.18,1.2.25,1.65.39,1.63,1.06,4.13,1.06,4.13.19.28.16,1.05.44,1Z"/>
        <path class="cls-5" d="M460.48,311.56l.13-.74c.43-1.61,1.08-2.72,1.89-3.96.45-.84,1.53-1.09,2.38-.93l2.15.42c2.29.45,4.6.74,6.75,1.16,1.14.22,2.12.57,3.41.81,26.67,5.64,41.75,9.03,68.45,14.53.29.06.57.11.86.17,2.72.53,4.89.8,7.18,1.24,2.86.56,6.27,1.37,11.37,2.67,1.12.37,1.69.48,1.62,1.7-.11.6-.07,1.22-.15,1.67-.08.45-.3.87-.38,1.32-.38,1.32-.57,2.36-1.01,3.97-.6,1.74-.87,3.23-1.11,4.57l-.43,2.39c-.4,2.24-.89,4.15-2.06,6.55-.25.57-.85.61-1.56.46l-38.76-7.52c-4.01-.78-6.36-1.7-10.36-2.48-2.86-.56-6.07-1.64-8.65-2.14-1.57-.31-2.89-.41-3.59.23-2.71,1.94-4.83,12.96-6,19.52-.08.45-.16.89-.24,1.34l-.08.45c-.37,2.09-2.51,2.45-4.94,1.98-11.02-2.14-22.4-3.89-32.7-5.89-.69-.29-1.06-.67-1.07-1.44-.01-.78.15-1.67.28-2.41,1.14-6.42,2-12.89,3.28-20.05.21-1.19.45-2.53.66-3.73.98-5.52,1.77-10.77,2.68-15.85Z"/>
      </g>
      <g>
        <path class="cls-5" d="M94.53,391.45c-1.66.71-3.37,1.31-5.07,1.92-3.02,1.04-5.93,2.04-9.01,2.63-.33.02-.63.15-.96.17-4.61,1.36-8.39,1.3-12.22,1.14-1.51-.07-2.98-.04-4.52-.46-3.95-1.06-7.44-3.27-9.26-6.78-.57-1.18-1.39-2.39-1.96-3.57-.36-.92-.85-1.9-1.21-2.82-.36-.92-.62-1.88-.88-2.84-1.28-4.45-.72-8.86,2.06-13.13.72-1.37,1.71-2.63,2.57-3.95,4.92-6.97,13.23-12.28,24.98-17.27,1.27-.54,2.68-1.02,4.05-1.6,14.59-5.6,26.16-6.35,35.38.93,2.41,2.07,4.76,4.88,6.07,8.25.28.71.46,1.47.64,2.23.18.76.22,1.45.21,2.29.22,4.67.28,7.74-1.83,12.56-.99,2.44-2.7,4.48-4.54,6.21-2.48,2.12-4.98,3.9-7.72,5.66-4.13,2.59-8.73,4.54-13.4,6.88-1.17.5-2.21,1.06-3.39,1.56ZM89.31,373.67c.88-.37,1.92-.93,2.8-1.3,4.91-2.33,7.38-3.61,10.42-6.33.8-.58,1.05-1.4,1.07-2.24-.04-.1.02-.24-.02-.35-.08-.2-.26-.37-.38-.67l-.04-.1c-.72-1.84-3.03-1.93-5.11-1.4-1.55.42-3.18.63-4.69,1.15-2.13.67-3.15.98-4.82,1.69l-3.72,1.58c-1.53.77-1.92.93-3.39,1.56-2.13,1.26-4.23,2.04-6.04,3.52-1.19.75-2.25,1.55-3.13,2.52-.78.93-1.03,1.75-1.24,2.67-.12.29,0,.59.08.8.12.31.44.53,1.04.63.89.22,2,.46,3,.39,2-.14,3.92-.48,6-1,3.06-.94,5.11-1.81,8.14-3.1Z"/>
        <path class="cls-5" d="M92.52,454.62c-3.68-3.74-6.92-7.97-9.98-12.32-3.75-5.33-7.25-10.86-11-16.19l-.88-1.24c-.5-.71-.51-1.66-.67-2.63-.16-.97.25-1.69,1.02-2.28l3.83-2.94c.74-.43,1.51-1.02,2.19-1.54l1.87-1.43c2-1.26,4.27-2.31,6.59-3.13,1.59-.53,3.31-.89,4.91-1.03,5.61-.6,12.09,4.14,17.47,5.63,2.68.82,5.42,1.18,8.15.6,1.95-.4,3.8-1.13,5.73-1.92,3.8-1.68,4.46-2.05,5.74-3.03l.6-.46c1.28-.98,2.4-5.53.46-8.29-1.94-2.76-3.14-2.79-4.33-2.43-.09.06-.57.3-1,.63-1.87,1.43-3.09,2.5-5.39,4.26-1.3,1.13-1.92,1.74-2.77,2.39-.51.39-1.02.78-2,1.26-.43.33-.89.41-1.19.36-1.88-.62-2.96-1.97-4.03-3.48l-4.5-6.4c-.37-.53-.67-1.13-.96-1.73-.63-.89-.51-1.66.13-2.42.09-.07.26-.2.28-.35,1.98-1.65,4.07-3.53,6.05-5.18,13.29-10.18,25.84-13.77,34.43-1.75l.12.18c3.94,5.6,7.46,12.47,5.86,19.31-.79,3.34-2.31,6.96-4.19,9.5-.86,1.21-1.92,2.3-3.12,3.21l-.68.52c-1.96,1.5-4.28,2.87-6.49,4.01-1.32.74-2.68,1.23-4.1,1.63-5.62,1.7-9.74,1.99-14.96,1.47-3.34-.45-6.61-.27-9.82-1.1-.65-.18-3.64.05-4.42.24.04.24.68,1.53.81,1.71.27.75.71,1.37,1.14,2,1.09,1.36,2.09,2.78,3.09,4.2,1.57,2.22,2.98,4.42,4.48,6.55l.19.27c.13.18.52.56.77.91.31.44.54.95.37,1.08-1.42.96-3.11,2.1-5.32,3.8l-.34.26c-1.36,1.04-1.98,1.65-3.35,2.7-1.96,1.5-4.52,3.46-6.34,4.59-.6.45-1.36,1.04-2.43,1.58-.66.37-1.85-1.32-2.04-1.59Z"/>
        <path class="cls-5" d="M113.31,476.08c-1.13-.36-1.9-1.12-2.81-1.87-.69-.68-1.31-1.44-1.92-2.21-.69-.68-1.09-1.69-1.11-2.62-.04-1.56,0-3.2.4-4.77.56-1.73,1.56-3.16,2.8-4.52l.87-.96c2.62-2.88,8.6-2.73,11.29-.08.54.84,1.08,1.53,1.7,2.29,1.62,2.06,1.02,4.81,1.08,7.14-.25,2.04-1.33,3.7-3.07,5.62-2.84,3.12-6.28,2.9-9.22,1.97Z"/>
        <path class="cls-5" d="M185.64,483.7c-.98,1.57-2.05,3.08-3.12,4.59-1.91,2.65-3.76,5.21-5.96,7.53-.26.22-.43.49-.7.71-3.04,3.86-6.18,6.07-9.41,8.21-1.28.84-2.48,1.74-3.96,2.31-3.82,1.48-7.9,1.74-11.32-.05-1.12-.63-2.45-1.13-3.57-1.76-.8-.54-1.74-1.05-2.54-1.59-.8-.54-1.54-1.18-2.28-1.81-3.49-2.9-5.44-6.85-5.49-12.02-.16-1.56-.03-3.18-.05-4.77.23-8.66,4.15-17.97,11.07-29.06.75-1.2,1.64-2.44,2.45-3.73,8.92-13.29,18.01-20.79,29.57-20.31,3.11.27,6.58,1.18,9.5,3.16.62.42,1.18.94,1.74,1.45.56.51.98,1.06,1.43,1.75,2.73,3.7,4.46,6.19,5.37,11.41.53,2.59.23,5.29-.33,7.8-.88,3.22-1.96,6.17-3.24,9.24-1.98,4.58-4.69,8.92-7.24,13.63-.69,1.11-1.24,2.19-1.93,3.3ZM171.63,472.21c.52-.83,1.07-1.91,1.59-2.74,2.76-4.83,4.08-7.35,5.1-11.4.34-.95.1-1.78-.35-2.47-.09-.06-.12-.21-.21-.27-.18-.12-.41-.15-.68-.33l-.09-.06c-1.59-1.08-3.54.23-4.96,1.89-1.04,1.27-2.26,2.41-3.21,3.74-1.39,1.82-2.05,2.69-3.03,4.26l-2.19,3.51c-.83,1.54-1.06,1.91-1.93,3.29-1.06,2.31-2.36,4.19-3.04,6.49-.57,1.32-1,2.61-1.19,3.93-.13,1.22.11,2.05.44,2.93.06.3.33.48.5.61.27.18.65.18,1.2-.11.84-.34,1.9-.82,2.68-1.47,1.57-1.3,2.96-2.73,4.38-4.4,1.99-2.59,3.2-4.53,4.99-7.4Z"/>
        <path class="cls-5" d="M210.85,535.82c-2.98-.8-5.88-1.46-8.69-2.43-2.31-.8-4.48-1.67-6.42-2.93-2.24-1.36-4.15-3.06-6.02-4.87-1.2-1.11-1.9-2.4-2.41-3.97-.7-1.64-1.04-3.38-.91-5.19l-.07-1.88c-.27-2.65,0-5.23.53-7.95.17-.87.17-1.92.47-2.86.46-2.16.9-4.57,1.6-6.77l.97-3.03c.33-1.04.63-1.99,1.14-2.86.37-.8.67-1.74,1.03-2.55,2.5-6.1,5.47-12.62,8.81-17.5,6.54-10.39,13.79-16.7,25.38-15.7,2,.35,4.21.77,6.12,1.43l1.1.38c1.67.69,6.62,2.29,8.19,3.31,1.04.59,3.41,1.88,4.45,2.47,2.14,1.32,2.31,1.85,1.77,3.52-.5,1.57-1.14,3.56-1.7,5.68-.57,1.78-1.07,3.7-1.64,5.47-.3.94-.5,1.92-.77,2.76-.73,2.3-1.4,4.04-1.97,4.78-.94,1.53-1.9.73-5.08.21-1.3-.1-4.38-.94-5.61-1.25l-6.12-2.12c-1.8-.63-5.61-.9-6.98-.45-3.97,1.64-6.78,5.55-8.75,11.72-.37,1.15-.6,2.23-.6,3.28-.03.45.1.73.4.84.1.03.2.07.33,0,.23-.04.4-.21.67-.35,1.4-.56,2.87-.63,4.41-.56,2.84.17,5.38.59,7.59,1.35,5.82,2.02,9.46,6.3,10.1,12.68.14,3.07.07,5.37-1.13,9.48-.27.84-.4,1.6-.67,2.44-.9,2.83-2.17,5.4-3.91,7.71-3.44,4.5-9.85,7.5-15.63,5.73ZM216.52,513.51c.1-.31.07-.56-.04-.94-.2-.77-1.04-1.98-2.04-2.33-.3-.1-.63-.1-.87-.07-1.67,0-3.38.46-5.08.91-.67.35-1.3.94-1.97,1.29-.67.35-.94.84-1.3,1.64l-.1.31c-.17.52-.1,1.01.44,1.43.4.14.67.35.77.38,1.8.63,3.41.48,5.04.59,1,0,1.84-.52,2.84-.87.87-.28,1.4-.91,1.87-1.67.2-.28.37-.45.43-.66Z"/>
        <path class="cls-5" d="M247.73,493.14h.1c1.07-.1,2.23.03,3.28.14,1.05.11,2.21.24,3.24.57,2.08.44,5.94,1.18,10.04,1.62.31.03.52.06.84.09,1.79.19,3.49.15,4.96.31,1.05.11,1.99.32,2.78.85.89.65,1.34,1.47,1.24,2.57-.15,1.54-.27,2.74-.4,4.06-.24,2.41-.46,4.71-1.11,8.08-.6,3.92-.47,4.83-1.19,8.96-.21,1.09-.9,1.57-1.86,1.69-3.3.09-7.11-.09-10.79-.48-4.52-.48-9.11-1.3-12.6-2.56-.93-.32-1.95-.76-2.46-2.03-.17-.46-.24-.8-.2-1.24.07-.77.25-1.52.35-2.51.61-6.25,1.05-12.96,1.63-18.89.02-.22.05-.55.29-.75.48-.61,1.43-.51,1.85-.47Z"/>
        <path class="cls-5" d="M327.01,501.98c.2,1.86.28,3.74.37,5.61.13,3.31.25,6.51-.04,9.76-.07.34-.04.67-.11,1.01,0,4.99-1.1,8.78-2.3,12.57-.48,1.5-.86,2.98-1.67,4.4-2.06,3.67-5.06,6.56-8.79,7.43-1.25.25-2.58.74-3.83.99-.94.11-1.99.34-2.93.45-.95.11-1.91.1-2.86.1-4.46.06-8.36-1.71-11.54-5.68-1.07-1.1-1.96-2.44-2.94-3.66-5.07-6.85-7.7-16.65-9.07-29.8-.15-1.42-.2-2.97-.36-4.5-1.16-16.17,1.33-27.99,10.56-35.25,2.57-1.85,5.81-3.43,9.28-3.83.74-.08,1.48-.06,2.23-.03.75.03,1.4.17,2.17.42,4.36,1.06,7.21,1.84,11.08,5.28,1.98,1.66,3.39,3.94,4.48,6.26,1.28,3.07,2.23,6.07,3.1,9.3,1.25,4.85,1.79,10,2.66,15.34.14,1.32.37,2.51.51,3.83ZM309.19,502.34c-.1-.99-.33-2.18-.44-3.17-.79-5.57-1.3-8.39-2.98-12.2-.31-.96-1-1.44-1.77-1.68-.1.01-.22-.09-.33-.07-.21.03-.41.16-.72.2h-.1c-1.89.23-2.61,2.52-2.7,4.75-.04,1.67-.29,3.36-.22,5.02.03,2.32.04,3.43.23,5.3l.44,4.16c.29,1.74.34,2.18.51,3.83.58,2.48.71,4.8,1.59,7.03.36,1.4.81,2.68,1.46,3.83.64,1.03,1.33,1.51,2.12,1.98.23.2.55.16.76.13.32-.04.61-.29.86-.87.45-.83.97-1.89,1.19-2.91.42-2.05.64-4.07.73-6.29-.03-3.32-.27-5.63-.63-9.02Z"/>
        <path class="cls-5" d="M384.9,499.14c.57,1.54.89,3.06,1.13,4.62.34,1.87.41,3.61.15,5.37-.18,1.37-.32,2.84-.59,4.25-1.27,4.87-6.36,11.38-14.31,15.61-.75.42-1.54.73-2.33,1.05-1.58.63-3.18.91-4.89,1.48-2.05.58-4.21.85-6.5.47-.33.02-.61-.11-.88-.24-2.52-1-5.23-1.93-7.44-3.65-1.38-.99-2.69-2.11-3.98-3.14-3.14-2.41-5.14-5.39-6.27-8.48-1.92-5.25-1.51-10.61-.11-15.77.2-1.61.77-3.14,1.31-4.77.33-.96.79-1.85,1.26-2.74.02-.24.18-.43.34-.61.15-.53.23-.92.12-1.23-.07-.21-.29-.48-.6-.71-.35-.33-.8-.63-1.24-.92-1.71-.97-3.24-2.37-4.73-3.66-1.67-1.46-3.15-3.35-4.49-5.17-1.21-1.76-2.32-3.56-3.04-5.52-.3-.82-.6-1.65-.71-2.55-.16-.76-.37-1.62-.34-2.46,0-1.88-.19-3.93.17-5.73.35-2.14,1.2-4.14,2.64-5.77,1.12-1.27,2.3-2.68,3.65-3.93,2.27-1.85,4.88-3.36,7.65-4.46.1-.04.3-.12.4-.16,6.91-2.75,14.39-3.02,18.88.27,1.07.75,2.04,1.55,3.11,2.3,1.94,1.59,2.85,3.47,3.72,5.84.64,1.75,1.26,3.75,1.95,5.95,1.68,5.82-.71,11.96-2.25,17.65l.04.1c.11.31.61.11.88.24,1.76.48,3.3,1.28,4.91,2.29,2.11,1.76,4.42,3.43,6.61,5.39,1.86,1.38,3.27,3.06,4.2,5.29.19.51.48.99.66,1.51.36.68.69,1.26.95,1.98ZM351.32,467.67c-.45-1.24-1.2-2.35-2.5-2.19-.4.16-.63.13-.93.25-3.06,1.22-4.81,4.16-3.87,6.74l.19.51c1.14,2.5,3.02,4.23,4.6,6.08.39.44.67.91,1.51,1.05.6-.83.65-1.32.88-2.24,0-.59.15-1.12.32-1.9.36-1.8.69-3.69.48-5.5-.2-.86-.34-1.87-.68-2.79ZM359.94,512.85c2.07-.83,3.73-3.73,3.28-4.96l-.68-1.85c-.38-1.03-1.22-2.11-1.93-3.12-.97-.79-1.84-1.63-3.05-1.85-.47-.05-.84-.14-1.04-.06-.3.12-.42.4-.5.79-.8,2.44-1.88,4.76-.94,7.33.83,2.27,3.19,4.4,4.87,3.73Z"/>
        <path class="cls-5" d="M413.92,503.84c-.62,1.05-1.52,1.63-2.45,2.36-.81.52-1.67.95-2.54,1.38-.81.52-1.84.67-2.71.46-1.45-.36-2.96-.81-4.32-1.62-1.46-1-2.53-2.38-3.48-3.98l-.67-1.12c-2-3.38-.34-9.37,2.8-11.4.92-.33,1.7-.71,2.56-1.13,2.32-1.11,4.71.2,6.9.73,1.82.77,3.09,2.28,4.43,4.53,2.17,3.66,1.09,7.07-.52,9.8Z"/>
        <path class="cls-5" d="M439.44,432.77c1.21,1.39,2.33,2.85,3.47,4.31,1.97,2.6,3.88,5.11,5.47,7.92.13.32.35.56.48.88,2.8,4.04,4.05,7.77,5.22,11.58.45,1.5.99,2.94,1.13,4.58.4,4.23-.39,8.41-2.92,11.4-.87.97-1.67,2.18-2.54,3.15-.7.67-1.42,1.49-2.12,2.15-.7.67-1.48,1.25-2.25,1.84-3.57,2.79-7.73,3.74-12.53,2.49-1.49-.23-2.96-.77-4.43-1.16-7.97-2.43-15.6-8.75-24.12-18.54-.92-1.06-1.84-2.28-2.83-3.42-10.05-12.37-14.69-23.45-11.31-34.98,1.04-3.07,2.76-6.33,5.34-8.78.55-.52,1.17-.95,1.79-1.39.62-.44,1.23-.72,1.99-.99,4.12-1.82,6.87-2.93,11.93-2.52,2.54.13,4.96,1.11,7.15,2.31,2.76,1.7,5.22,3.54,7.74,5.62,3.74,3.15,7.08,6.99,10.79,10.77.85.98,1.71,1.8,2.56,2.78ZM425.23,443.99c-.64-.74-1.5-1.56-2.14-2.29-3.78-4.01-5.78-5.99-9.28-8.04-.8-.59-1.62-.55-2.38-.28-.08.08-.23.07-.31.14-.16.15-.24.38-.48.6l-.08.07c-1.41,1.33-.69,3.63.49,5.49.91,1.37,1.66,2.89,2.65,4.19,1.34,1.86,1.97,2.75,3.17,4.14l2.7,3.1c1.21,1.23,1.5,1.56,2.56,2.78,1.87,1.66,3.28,3.44,5.24,4.71,1.08.91,2.17,1.67,3.34,2.2,1.1.44,1.93.41,2.83.3.3.02.54-.21.69-.35.24-.22.33-.61.21-1.24-.1-.94-.28-2.12-.68-3.08-.81-1.91-1.77-3.68-2.96-5.53-1.9-2.67-3.39-4.39-5.59-6.92Z"/>
        <path class="cls-5" d="M494.12,420.77c-1.51,2.79-2.86,5.56-4.49,8.14-1.34,2.12-2.7,4.09-4.36,5.72-1.83,1.91-3.91,3.39-6.06,4.81-1.34.93-2.72,1.3-4.3,1.41-1.7.29-3.4.18-5.05-.42l-1.76-.41c-2.53-.41-4.85-1.34-7.23-2.58-.76-.39-1.73-.66-2.53-1.21-1.88-1.02-4-2.08-5.86-3.35l-2.56-1.75c-.88-.6-1.68-1.15-2.36-1.88-.65-.57-1.44-1.12-2.09-1.7-5.01-4.09-10.29-8.76-13.95-13.38-7.95-9.27-11.94-18.2-8.03-29.63.84-1.93,1.79-4.05,2.89-5.8l.64-1.01c1.08-1.51,3.83-6.08,5.17-7.41.81-.89,2.62-2.95,3.43-3.85,1.77-1.82,2.3-1.85,3.72-.88,1.32.91,3,2.06,4.83,3.18,1.5,1.03,3.15,2.03,4.65,3.05.79.55,1.65,1,2.35,1.48,1.94,1.33,3.39,2.45,3.92,3.21,1.18,1.34.19,2.11-1.11,5.18-.43,1.29-1.99,4.17-2.6,5.34l-3.54,5.62c-1.04,1.66-2.28,5.43-2.21,6.93.5,4.43,3.4,8.26,8.61,11.83.97.66,1.91,1.18,2.88,1.45.41.15.7.09.88-.19.06-.09.12-.18.09-.34.03-.24-.09-.46-.15-.76-.16-1.56.15-3.06.61-4.59.89-2.82,1.93-5.27,3.2-7.3,3.37-5.35,8.27-7.92,14.35-6.92,2.88.65,4.99,1.31,8.49,3.58.71.48,1.39.82,2.09,1.3,2.38,1.63,4.45,3.57,6.14,5.92,3.28,4.62,4.42,11.86,1.29,17.24ZM474.9,409.33c-.26-.18-.5-.21-.88-.21-.76,0-2.11.53-2.69,1.46-.17.28-.26.61-.29.86-.43,1.69-.45,3.52-.46,5.35.15.76.54,1.55.69,2.32.15.76.53,1.16,1.18,1.73l.26.18c.44.3.91.36,1.44-.07.23-.37.5-.58.55-.67,1.04-1.66,1.33-3.31,1.84-4.94.25-1.01-.01-1.99-.08-3.09-.04-.95-.48-1.65-1.07-2.32-.21-.27-.33-.49-.5-.61Z"/>
      </g>
    </g>
    <ellipse class="cls-6" cx="281.62" cy="266.9" rx="21.71" ry="22.64"/>
    <path class="cls-6" d="M279.2,237.07c-19.63,5.67-63.23-74.39-62.58-92.26.17-4.71,29.68-16.07,37.65-20.36,9.7-5.23,28.76-10.02,35.29,2.09,8.26,15.31,10,104.66-10.36,110.54Z"/>
    <path class="cls-6" d="M300.23,242.18c-3.36-3.58,2.47-11.37,7.38-39.74,1.78-10.31-.02-18.65,4.6-32.38,5.69-16.9,11.86-33.95,12.98-34.57,11.69-6.39,53.04,21.82,62.61,41.62,3.82,7.9,1.09,11.72.69,13.6-2.03,9.61-24.24,21.73-39.49,28.42-33.62,14.75-44.85,27.23-48.78,23.05Z"/>
    <path class="cls-6" d="M313.74,256.43c.4-.04-2.41-1.55-1.85-2.02,8.56-7.25,20.22-4.12,29.97-8.36,14.31-6.22,13.36-8.28,27.08-13.86,10.47-4.26,41.57-24.81,45.72-22.73,9.27,4.65,13.5,41.06,13.63,48.83.12,7.05,1.71,9.54,0,12.3-6.05,9.77-61.38,8.91-90.52-2.68"/>
    <path class="cls-6" d="M311.76,270.91c2.04-2.25,9.44,7.59,26,11.62,11.28,2.74,16.61.31,37.14,3.87,9.37,1.63,26.62.52,28.6,3.14,5.41,7.15,6.84,28.18-1.73,34.88-6.93,5.41-34.26-.02-38.76-.82-14.23-2.51-23.31-12.53-33.43-24.02-8.63-9.8-20.42-25.82-17.83-28.67Z"/>
    <path class="cls-6" d="M306.56,284.08c1.49-.45,3.5,16,17.09,30.22,7.27,7.61,15.14,11.75,22.29,15.5,16.77,8.8,21.7,6.28,29.72,13.95,1.61,1.54,12.42,11.87,11.14,24.8-1.79,18.07-24.83,56.61-36.48,50.85-7.14-3.53-6.13-37.14-16.27-59.38-7.41-16.26-10.44-15.6-17.09-30.22-10.59-23.3-12.11-45.2-10.4-45.72Z"/>
    <path class="cls-6" d="M292.45,297.26c3.47,1.05.75,10.47,7.43,27.12,2.32,5.78,3.46,6.67,5.2,12.4,1.69,5.57,16.93,19.74,15.4,28.04-.77,4.2.19,20.78-5.62,23.46-7.5,3.46-34.34-19.62-39.49-28.25-6.72-11.24-3.58-24-1.49-32.55,3.95-16.1,13.9-31.63,18.57-30.22Z"/>
    <path class="cls-6" d="M269.42,294.4c4.59,6.65-10.52,15.95-10.4,38.75.06,11.23,3.76,17.39,0,27.9-.92,2.56-3.43,9.33-9.66,13.95-11.75,8.73-37.67,16.21-44.35,5.28-4.08-6.67,4.74-26.26,10.92-45.58,5.53-17.26,8.3-25.9,15.6-32.55,12.59-11.46,33.17-14.58,37.89-7.75Z"/>
    <path class="cls-6" d="M250.85,282.53c-.53,3.98-13.44.64-31.2,9.3-18.34,8.94-18.4,19.23-31.94,21.7-15.85,2.89-29.7-8.67-34.17-12.4-5.51-4.59-25.32-12.94-23.77-21.58,1.88-10.49,29.51-14.67,37.14-16.39,6.31-1.42,17.16-3,37.14.77,20.46,3.87,47.57,12.8,46.8,18.6Z"/>
    <path class="cls-6" d="M253.82,259.28c-4.22,6.9-32.17-15.39-70.57-13.95-25.79.97-38.79,11.97-43.83,5.42-7.57-9.84,16.47-41.56,20.8-47.27,14.73-19.43,20.43-42.42,31.82-42.58,13.98-.2,18.36,27.97,58.07,87.53,1.91,2.87,5.41,8.08,3.71,10.85Z"/>
  </g>
</svg>