<?xml version="1.0" encoding="UTF-8"?>
<svg id="Layer_1" data-name="Layer 1" xmlns="http://www.w3.org/2000/svg" viewBox="0 0 1425.06 965.17">
  <defs>
    <style>
      .cls-1 {
        fill: #fff;
        stroke: #000;
        stroke-miterlimit: 10;
      }
    </style>
  </defs>
  <ellipse cx="712.53" cy="482.59" rx="801.76" ry="312.25" transform="translate(-145.7 419.12) rotate(-29.88)"/>
  <ellipse class="cls-1" cx="676.68" cy="388.54" rx="269" ry="108.81" transform="translate(-103.61 388.76) rotate(-29.88)"/>
  <path class="cls-1" d="M635.46,526.58c5.21,12.05-13.18,10.33-11.61,19.49,1.26,7.39,13.73,8.18,15.55,13.77,2.69,8.27-18.44,26.54-98.78,66.04-16.38,11.94-23.65,20.16-21.82,24.66,2.86,7.03,27.93,4.97,75.22-6.18,5.15.49,8.21,1.88,9.18,4.15,2.43,5.74-8.44,17.15-32.62,34.23-14.44,5.83-30.44,13.82-46.82,24.88-4.76,3.21-9.23,6.47-13.42,9.73.49,3.21,2.06,10.74,7.65,13.32,5.97,2.76,13.23-1.64,17.33-4.1,18.43-11.07,37.97-22.1,44.01-25.29,7.78-4.1,38.61-20.36,61.05-8.14,3.72,2.03,12.64,5.93,13.32,12.55,1.6,15.6-43.35,31.19-50.04,33.46-9.46.99-15.36,9.03-14.17,15.69.31,1.76,1.12,3.41,2.31,4.87,2.93,3.6,7.86,4.91,12.45,4.03,3.54-.68,8.83-.98,14.59,1.19,3.55,1.34,10.52,3.74,12.78,10.26,2.1,6.08-.6,13.54-6.55,18.86-32.69,17.74-65.39,35.48-98.08,53.22-12.48,6.77-18.32,22.21-12.02,34.8,1.11,2.22,2.56,4.29,4.43,6.1,7.57,7.31,20.47,11.94,42.45,3.27q59.42-23.43,125.33-50.45c8.7-3.57,28.18-11.37,29.07-23.17.24-3.17-.7-8.82-4.57-11.74-4.89-3.69-10.59-.15-13.22-2.83-3.79-3.87,2.39-17.14,9.48-27,16.36-22.76,41.07-31.54,46.89-33.77,22.98-8.78,55.39-26.19,95.91-64.45,5.71-13.31,4.6-18.86,2.2-21.38-4.1-4.33-12.38-.23-30.79-3.15-11.89-1.88-13.16-4.34-13.48-5.19-2.2-5.69,8.76-14.87,13.71-19.01,21.36-17.9,36.86-16.52,41.79-29.4,1.86-4.87,2.74-13.15-1.53-17.8-10.49-11.41-49.4,1.93-76.85,20.08-23.86,15.78-35.98,33.15-49.41,28.75-4-1.31-9.53-5.02-10.1-10.01-1.83-16.24,49.54-42.43,65.49-50.56,1.69-.86,8.19-4.15,13.15-11.15,4.73-6.67,8.7-17.61,4.69-22.1-4.4-4.93-16.88-.35-27.34,3.49-26.41,9.7-35.84,22.59-46.33,18.35-4.45-1.8-8.25-6.34-8.89-11.06-1.26-9.32,9.94-18.26,39.93-37.67,34.66-22.44,64.2-39.32,65.15-54.32.13-2.04.5-7.96-3.14-11.13-3.94-3.44-9.61-1.07-11-3.38-2.12-3.54,8.49-13.53,11.33-16.21,36.4-34.34,45.94-48.47,50.62-59.69,2.57-6.17,10.26-16.38,10.86-19.88"/>
  <ellipse cx="681.47" cy="377.36" rx="30.3" ry="14.22" transform="translate(-97.41 389.66) rotate(-29.88)"/>
</svg>