<?xml version="1.0" encoding="UTF-8"?>
<svg id="Layer_1" data-name="Layer 1" xmlns="http://www.w3.org/2000/svg" xmlns:xlink="http://www.w3.org/1999/xlink" viewBox="0 0 4285.98 2205.35">
  <defs>
    <style>
      .cls-1, .cls-2, .cls-3 {
        fill: none;
      }

      .cls-2, .cls-3 {
        stroke: #77b09f;
        stroke-miterlimit: 10;
      }

      .cls-4 {
        clip-path: url(#clippath-1);
      }

      .cls-3 {
        stroke-width: 7px;
      }

      .cls-5 {
        clip-path: url(#clippath);
      }
    </style>
    <clipPath id="clippath">
      <rect class="cls-1" width="4285.98" height="2205.35"/>
    </clipPath>
    <clipPath id="clippath-1">
      <path class="cls-2" d="M2131.71-3868.19c466.98,622.71,933.95,1245.41,1400.93,1868.12,215.85,287.84,430.91,575.64,656.72,855.8,126.59,157.05,254.36,313.34,375.64,474.56,110.03,146.27,219.63,292.87,329.45,439.31,277.12,369.53,554.23,739.06,831.35,1108.59-32.5,33.12-64.99,66.24-97.42,99.43-134.83,138.05-267.84,277.84-396.82,421.39-71.86,79.98-143.63,160.14-208.94,245.63-70.28,91.99-134.85,188.25-196.27,286.34-243.76,389.28-439.39,806.45-683.82,1195.33-104.84,166.8-218.38,333.46-358.53,472.93-131.93,131.29-287.34,236.04-448.51,327.9-346.74,197.62-729.71,339.89-1041.36,594.72-174.71,142.85-312.28,325.35-443,507.8-158.9,221.79-304.59,452.7-451.65,682.39-145.62-194.18-291.23-388.35-436.85-582.53-66.22-88.31-130.11-179.11-201.19-263.61-69.64-82.79-146.12-159.45-223.41-235.03-126.43-123.62-254.55-245.82-361.21-387.49-105.39-139.98-210.25-280.36-315.37-420.54-102.71-136.97-210.65-271.47-307.66-412.55-103.04-149.85-183.47-313.77-269.39-473.62-42.74-79.5-86.68-158.48-135.43-234.49-47.58-74.17-101.64-143.73-154.47-214.17-111.52-148.71-223.04-297.42-334.56-446.13-250.1-333.51-500.2-667.02-750.31-1000.52,146-236.99,290.4-475.41,449.91-703.68,127.98-183.14,263.94-366.21,439.35-506.87C-889.15-419.34-502.4-546.03-153.61-733.05c162.49-87.13,319.01-188.46,450.76-318.45,143.69-141.77,247.04-316.25,332.7-497.71,204.51-433.24,318.61-902.88,521.9-1336.63,49.6-105.82,104.89-209.45,170.78-306.1,61.47-90.16,133.95-171.83,212.02-247.92,141.96-138.37,304.06-251.59,473.06-354.26,41.17-25.01,82.64-49.55,124.11-74.07Z"/>
    </clipPath>
  </defs>
  <g class="cls-5">
    <g>
      <g class="cls-4">
        <g>
          <path class="cls-3" d="M3028.79-2671.95c-179.05,105.89-356.67,214.37-513.91,351.56-147.03,128.27-272.88,274.94-369.95,444.51-108.44,189.43-189.08,393.8-264.46,598.15-84.78,229.84-161.56,462.67-252.37,690.26-93,233.08-200.36,468.17-365.63,659.73"/>
          <path class="cls-3" d="M3087.78-2593.28c-179.05,105.89-356.67,214.37-513.91,351.56-147.03,128.27-272.88,274.94-369.95,444.51-108.44,189.43-189.08,393.8-264.46,598.15-84.78,229.84-161.56,462.67-252.37,690.26-93,233.08-200.36,468.17-365.63,659.73"/>
          <path class="cls-3" d="M3146.78-2514.61c-179.05,105.89-356.67,214.37-513.91,351.56-147.03,128.27-272.88,274.94-369.95,444.51-108.44,189.43-189.08,393.8-264.46,598.15-84.78,229.84-161.56,462.67-252.37,690.26-93,233.08-200.36,468.17-365.63,659.73"/>
          <path class="cls-3" d="M3205.78-2435.94c-179.05,105.89-356.67,214.37-513.91,351.56-147.03,128.27-272.88,274.94-369.95,444.51-108.44,189.43-189.08,393.8-264.46,598.15-84.78,229.84-161.56,462.67-252.37,690.26-93,233.08-200.36,468.17-365.63,659.73"/>
          <path class="cls-3" d="M3264.77-2357.27c-179.05,105.89-356.67,214.37-513.91,351.56-147.03,128.27-272.88,274.94-369.95,444.51-108.44,189.43-189.08,393.8-264.46,598.15-84.78,229.84-161.56,462.67-252.37,690.26-93,233.08-200.36,468.17-365.63,659.73"/>
          <path class="cls-3" d="M3323.77-2278.6c-179.05,105.89-356.67,214.37-513.91,351.56-147.03,128.27-272.88,274.94-369.95,444.51-108.44,189.43-189.08,393.8-264.46,598.15-84.78,229.84-161.56,462.67-252.37,690.26-93,233.08-200.36,468.17-365.63,659.73"/>
          <path class="cls-3" d="M3382.76-2199.93c-179.05,105.89-356.67,214.37-513.91,351.56-147.03,128.27-272.88,274.94-369.95,444.51-108.44,189.43-189.08,393.8-264.46,598.15-84.78,229.84-161.56,462.67-252.37,690.26-93,233.08-200.36,468.17-365.63,659.73"/>
          <path class="cls-3" d="M3441.76-2121.26c-179.05,105.89-356.67,214.37-513.91,351.56-147.03,128.27-272.88,274.94-369.95,444.51-108.44,189.43-189.08,393.8-264.46,598.15-84.78,229.84-161.56,462.67-252.37,690.26-93,233.08-200.36,468.17-365.63,659.73"/>
          <path class="cls-3" d="M3500.75-2042.59c-179.05,105.89-356.67,214.37-513.91,351.56-147.03,128.27-272.88,274.94-369.95,444.51-108.44,189.43-189.08,393.8-264.46,598.15-84.78,229.84-161.56,462.67-252.37,690.26-93,233.08-200.36,468.17-365.63,659.73"/>
          <path class="cls-3" d="M3559.75-1963.92c-179.05,105.89-356.67,214.37-513.91,351.56-147.03,128.27-272.88,274.94-369.95,444.51-108.44,189.43-189.08,393.8-264.46,598.15-84.78,229.84-161.56,462.67-252.37,690.26-93,233.08-200.36,468.17-365.63,659.73"/>
          <path class="cls-3" d="M3618.75-1885.25c-179.05,105.89-356.67,214.37-513.91,351.56-147.03,128.27-272.88,274.94-369.95,444.51-108.44,189.43-189.08,393.8-264.46,598.15-84.78,229.84-161.56,462.67-252.37,690.26-93,233.08-200.36,468.17-365.63,659.73"/>
          <path class="cls-3" d="M3677.74-1806.58c-179.05,105.89-356.67,214.37-513.91,351.56-147.03,128.27-272.88,274.94-369.95,444.51-108.44,189.43-189.08,393.8-264.46,598.15-84.78,229.84-161.56,462.67-252.37,690.26-93,233.08-200.36,468.17-365.63,659.73"/>
          <path class="cls-3" d="M3736.74-1727.91c-179.05,105.89-356.67,214.37-513.91,351.56-147.03,128.27-272.88,274.94-369.95,444.51-108.44,189.43-189.08,393.8-264.46,598.15-84.78,229.84-161.56,462.67-252.37,690.26-93,233.08-200.36,468.17-365.63,659.73"/>
          <path class="cls-3" d="M3795.73-1649.24c-179.05,105.89-356.67,214.37-513.91,351.56-147.03,128.27-272.88,274.94-369.95,444.51-108.44,189.43-189.08,393.8-264.46,598.15-84.78,229.84-161.56,462.67-252.37,690.26-93,233.08-200.36,468.17-365.63,659.73"/>
          <path class="cls-3" d="M3854.73-1570.57c-179.05,105.89-356.67,214.37-513.91,351.56-147.03,128.27-272.88,274.94-369.95,444.51-108.44,189.43-189.08,393.8-264.46,598.15-84.78,229.84-161.56,462.67-252.37,690.26-93,233.08-200.36,468.17-365.63,659.73"/>
          <path class="cls-3" d="M3914.81-1490.91c-178.78,107.32-356.09,217.19-513.66,354.69-146.74,128.04-271.03,272.93-367.84,442.26-108.64,190.03-190.11,394.65-266.45,599.33-85.8,230.06-163.8,463.07-255.67,690.84-93.38,231.53-200.72,464.58-363.78,656.11"/>
          <path class="cls-3" d="M3980.12-1406.56c-176.21,110.18-350.91,222.76-507.24,360.47-69.75,61.44-137.57,126.74-198.39,197.12-64.93,75.13-119.89,159.29-169.41,245.16-109.06,189.11-192.26,392.28-270.57,595.62-87.87,228.17-168.32,459.24-261.96,685.17-95.52,230.46-204.36,461.86-366.13,653.99"/>
          <path class="cls-3" d="M4049.89-1318.19c-171.78,113.59-342.07,229.35-495.55,367.3-69.39,62.36-136.69,128.21-198.01,198.59-65.37,75.04-120.89,159.19-171.31,244.79-110.74,188-196.73,389.82-278.04,591.89-90.25,224.3-173.57,451.42-269.2,673.53-98.82,229.52-210.41,459.44-372.39,651.74"/>
          <path class="cls-3" d="M4122.79-1226.99c-167.35,118.22-333.22,238.41-483.69,377.98-142.78,132.43-268.15,276.59-369.17,443.51-112.43,185.78-201.58,384.92-286.19,584.55-93.73,221.14-180.88,445.11-279.71,664.06-102.56,227.2-217.35,454.17-379.63,645.22"/>
          <path class="cls-3" d="M4197.49-1134.18c-163.01,123.69-324.58,249.16-472.11,391.33-138.83,133.78-264.51,277.59-366.92,441.35-114.97,183.84-207.85,380.8-296.36,578.41-96.97,216.47-187.82,435.72-289.53,650.05-106.96,225.38-225.62,449.99-389.17,640.03"/>
          <path class="cls-3" d="M4272.66-1040.95c-157.17,128.26-313,258.03-456.63,401.54-136.24,136.13-263.42,280.67-368.22,442.64-117.63,181.81-214.31,376.54-306.85,572-101.22,213.8-196.65,430.36-302.5,641.95-110.72,221.32-232.61,441.21-396.07,628.48"/>
          <path class="cls-3" d="M4346.96-948.49c-152.2,133.15-303.21,267.56-443.78,413.12-133.42,138.15-261.33,282.78-368.03,442.81-119.6,179.4-219.68,371.22-315.8,563.94-104.95,210.42-204.47,423.57-313.77,631.8-114.76,218.63-240.08,435.38-404.2,621.16"/>
          <path class="cls-3" d="M4419.06-858.02c-148.24,138-295.46,277.02-434,424.87-131.75,140.61-260.36,285.73-368.99,445.19-119.19,174.96-220.82,361.39-318.75,548.83-108.68,208.02-212.17,418.77-324.78,624.72-118.67,217.03-247.25,431.9-412.17,617.41"/>
          <path class="cls-3" d="M4487.63-770.73c-144.55,141.51-288.29,283.81-425.24,432.77-130.43,141.88-259.12,286.56-368.93,445.24-120.16,173.65-224.09,358.07-324.57,543.59-111.35,205.59-217.89,413.81-332.88,617.42-121.51,215.15-252.22,427.94-416.64,613.38"/>
          <path class="cls-3" d="M4551.33-687.81c-142.04,143.87-283.49,288.31-419.97,437.51-130.3,142.45-258.62,286.47-368.91,445.25-120.29,173.19-225.66,356.36-327.84,540.65-113.11,203.99-221.79,410.46-338.26,612.58-123.33,214.04-255.08,425.63-417.99,612.17"/>
          <path class="cls-3" d="M4610.6-608.9c-141.59,144.3-282.65,289.1-419.24,438.17-130.53,142.46-258.65,286.23-368.92,445.25-120.14,173.25-225.73,356.23-328.21,540.31-113.41,203.72-222.51,409.85-339.19,611.74-123.62,213.89-255.44,425.35-417.68,612.45"/>
          <path class="cls-3" d="M4669.59-530.23c-141.59,144.3-282.65,289.1-419.24,438.17-130.53,142.46-258.65,286.23-368.92,445.25-120.14,173.25-225.73,356.23-328.21,540.31-113.41,203.72-222.51,409.85-339.19,611.74-123.62,213.89-255.44,425.35-417.68,612.45"/>
          <path class="cls-3" d="M4728.59-451.56c-141.59,144.3-282.65,289.1-419.24,438.17-130.53,142.46-258.65,286.23-368.92,445.25-120.14,173.25-225.73,356.23-328.21,540.31-113.41,203.72-222.51,409.85-339.19,611.74-123.62,213.89-255.44,425.35-417.68,612.45"/>
          <path class="cls-3" d="M4787.58-372.89c-141.59,144.3-282.65,289.1-419.24,438.17-130.53,142.46-258.65,286.23-368.92,445.25-120.14,173.25-225.73,356.23-328.21,540.31-113.41,203.72-222.51,409.85-339.19,611.74-123.62,213.89-255.44,425.35-417.68,612.45"/>
          <path class="cls-3" d="M4846.58-294.22c-141.59,144.3-282.65,289.1-419.24,438.17-130.53,142.46-258.65,286.23-368.92,445.25-120.14,173.25-225.73,356.23-328.21,540.31-113.41,203.72-222.51,409.85-339.19,611.74-123.62,213.89-255.44,425.35-417.68,612.45"/>
          <path class="cls-3" d="M4905.57-215.55c-141.59,144.3-282.65,289.1-419.24,438.17-130.53,142.46-258.65,286.23-368.92,445.25-120.14,173.25-225.73,356.23-328.21,540.31-113.41,203.72-222.51,409.85-339.19,611.74-123.62,213.89-255.44,425.35-417.68,612.45"/>
          <path class="cls-3" d="M4964.57-136.88c-141.59,144.3-282.65,289.1-419.24,438.17-130.53,142.46-258.65,286.23-368.92,445.25-120.14,173.25-225.73,356.23-328.21,540.31-113.41,203.72-222.51,409.85-339.19,611.74-123.62,213.89-255.44,425.35-417.68,612.45"/>
          <path class="cls-3" d="M5023.57-58.21c-141.59,144.3-282.65,289.1-419.24,438.17-130.53,142.46-258.65,286.23-368.92,445.25-120.14,173.25-225.73,356.23-328.21,540.31-113.41,203.72-222.51,409.85-339.19,611.74-123.62,213.89-255.44,425.35-417.68,612.45"/>
          <path class="cls-3" d="M5082.56,20.46c-141.59,144.3-282.65,289.1-419.24,438.17-130.53,142.46-258.65,286.23-368.92,445.25-120.14,173.25-225.73,356.23-328.21,540.31-113.41,203.72-222.51,409.85-339.19,611.74-123.62,213.89-255.44,425.35-417.68,612.45"/>
          <path class="cls-3" d="M5141.56,99.13c-141.59,144.3-282.65,289.1-419.24,438.17-130.53,142.46-258.65,286.23-368.92,445.25-120.14,173.25-225.73,356.23-328.21,540.31-113.41,203.72-222.51,409.85-339.19,611.74-123.62,213.89-255.44,425.35-417.68,612.45"/>
          <path class="cls-3" d="M5200.55,177.8c-141.59,144.3-282.65,289.1-419.24,438.17-130.53,142.46-258.65,286.23-368.92,445.25-120.14,173.25-225.73,356.23-328.21,540.31-113.41,203.72-222.51,409.85-339.19,611.74-123.62,213.89-255.44,425.35-417.68,612.45"/>
          <path class="cls-3" d="M5259.55,256.47c-141.59,144.3-282.65,289.1-419.24,438.17-130.53,142.46-258.65,286.23-368.92,445.25-120.14,173.25-225.73,356.23-328.21,540.31-113.41,203.72-222.51,409.85-339.19,611.74-123.62,213.89-255.44,425.35-417.68,612.45"/>
          <path class="cls-3" d="M5318.54,335.14c-141.59,144.3-282.65,289.1-419.24,438.17-130.53,142.46-258.65,286.23-368.92,445.25-120.14,173.25-225.73,356.23-328.21,540.31-113.41,203.72-222.51,409.85-339.19,611.74-123.62,213.89-255.44,425.35-417.68,612.45"/>
          <path class="cls-3" d="M5377.54,413.81c-141.59,144.3-282.65,289.1-419.24,438.17-130.53,142.46-258.65,286.23-368.92,445.25-120.14,173.25-225.73,356.23-328.21,540.31-113.41,203.72-222.51,409.85-339.19,611.74-123.62,213.89-255.44,425.35-417.68,612.45"/>
          <path class="cls-3" d="M5436.54,492.48c-141.59,144.3-282.65,289.1-419.24,438.17-130.53,142.46-258.65,286.23-368.92,445.25-120.14,173.25-225.73,356.23-328.21,540.31-113.41,203.72-222.51,409.85-339.19,611.74-123.62,213.89-255.44,425.35-417.68,612.45"/>
          <path class="cls-3" d="M5495.53,571.15c-141.59,144.3-282.65,289.1-419.24,438.17-130.53,142.46-258.65,286.23-368.92,445.25-120.14,173.25-225.73,356.23-328.21,540.31-113.41,203.72-222.51,409.85-339.19,611.74-123.62,213.89-255.44,425.35-417.68,612.45"/>
          <path class="cls-3" d="M5554.53,649.82c-141.59,144.3-282.65,289.1-419.24,438.17-130.53,142.46-258.65,286.23-368.92,445.25-120.14,173.25-225.73,356.23-328.21,540.31-113.41,203.72-222.51,409.85-339.19,611.74-123.62,213.89-255.44,425.35-417.68,612.45"/>
          <path class="cls-3" d="M5613.52,728.49c-141.59,144.3-282.65,289.1-419.24,438.17-130.53,142.46-258.65,286.23-368.92,445.25-120.14,173.25-225.73,356.23-328.21,540.31-113.41,203.72-222.51,409.85-339.19,611.74-123.62,213.89-255.44,425.35-417.68,612.45"/>
          <path class="cls-3" d="M5672.52,807.16c-141.59,144.3-282.65,289.1-419.24,438.17-130.53,142.46-258.65,286.23-368.92,445.25-120.14,173.25-225.73,356.23-328.21,540.31-113.41,203.72-222.51,409.85-339.19,611.74-123.62,213.89-255.44,425.35-417.68,612.45"/>
          <path class="cls-3" d="M5731.51,885.83c-141.59,144.3-282.65,289.1-419.24,438.17-130.53,142.46-258.65,286.23-368.92,445.25-120.14,173.25-225.73,356.23-328.21,540.31-113.41,203.72-222.51,409.85-339.19,611.74-123.62,213.89-255.44,425.35-417.68,612.45"/>
          <path class="cls-3" d="M377.54-1107.78C211.16-919.19-2.71-785.73-225.34-673.24c-336.86,170.2-703.55,299.78-995.37,546.37-156.23,132.01-280.18,299.56-397.24,465.98-150.75,214.32-287.63,438.06-424.95,661.1"/>
          <path class="cls-3" d="M436.53-1029.11c-166.38,188.6-380.25,322.06-602.88,434.54C-503.21-424.37-869.9-294.79-1161.71-48.2c-156.23,132.01-280.18,299.56-397.24,465.98-150.75,214.32-287.63,438.06-424.95,661.1"/>
          <path class="cls-3" d="M495.53-950.44c-166.38,188.6-380.25,322.06-602.88,434.54C-444.21-345.7-810.9-216.12-1102.72,30.47c-156.23,132.01-280.18,299.56-397.24,465.98-150.75,214.32-287.63,438.06-424.95,661.1"/>
          <path class="cls-3" d="M554.53-871.77C388.15-683.18,174.28-549.72-48.36-437.23-385.22-267.03-751.91-137.45-1043.72,109.14c-156.23,132.01-280.18,299.56-397.24,465.98-150.75,214.32-287.63,438.06-424.95,661.1"/>
          <path class="cls-3" d="M613.52-793.1C447.14-604.51,233.27-471.05,10.64-358.56-326.22-188.36-692.91-58.78-984.73,187.81c-156.23,132.01-280.18,299.56-397.24,465.98-150.75,214.32-287.63,438.06-424.95,661.1"/>
          <path class="cls-3" d="M672.52-714.43c-166.38,188.6-380.25,322.06-602.88,434.54C-267.23-109.69-633.92,19.89-925.73,266.48c-156.23,132.01-280.18,299.56-397.24,465.98-150.75,214.32-287.63,438.06-424.95,661.1"/>
          <path class="cls-3" d="M731.51-635.76c-166.38,188.6-380.25,322.06-602.88,434.54C-208.23-31.02-574.92,98.56-866.74,345.15c-156.23,132.01-280.18,299.56-397.24,465.98-150.75,214.32-287.63,438.06-424.95,661.1"/>
          <path class="cls-3" d="M790.51-557.09C624.13-368.5,410.26-235.04,187.62-122.55-149.23,47.65-515.92,177.23-807.74,423.82c-156.23,132.01-280.18,299.56-397.24,465.98-150.75,214.32-287.63,438.06-424.95,661.1"/>
          <path class="cls-3" d="M849.5-478.42C683.13-289.83,469.26-156.37,246.62-43.88-90.24,126.32-456.93,255.9-748.75,502.49c-156.23,132.01-280.18,299.56-397.24,465.98-150.75,214.32-287.63,438.06-424.95,661.1"/>
          <path class="cls-3" d="M908.5-399.75C742.12-211.16,528.25-77.7,305.62,34.79-31.24,204.99-397.93,334.57-689.75,581.16c-156.23,132.01-280.18,299.56-397.24,465.98-150.75,214.32-287.63,438.06-424.95,661.1"/>
          <path class="cls-3" d="M967.5-321.08C801.12-132.49,587.25.97,364.61,113.46,27.75,283.66-338.94,413.24-630.75,659.83c-156.23,132.01-280.18,299.56-397.24,465.98-150.75,214.32-287.63,438.06-424.95,661.1"/>
          <path class="cls-3" d="M1026.49-242.41C860.11-53.82,646.24,79.64,423.61,192.13,86.75,362.33-279.94,491.91-571.76,738.5c-156.23,132.01-280.18,299.56-397.24,465.98-150.75,214.32-287.63,438.06-424.95,661.1"/>
          <path class="cls-3" d="M1085.49-163.74C919.11,24.85,705.24,158.31,482.6,270.8,145.74,441-220.95,570.58-512.76,817.17c-156.23,132.01-280.18,299.56-397.24,465.98-150.75,214.32-287.63,438.06-424.95,661.1"/>
          <path class="cls-3" d="M1144.48-85.07c-166.38,188.6-380.25,322.06-602.88,434.54C204.74,519.67-161.95,649.25-453.77,895.84c-156.23,132.01-280.18,299.56-397.24,465.98-150.75,214.32-287.63,438.06-424.95,661.1"/>
          <path class="cls-3" d="M1203.48-6.4c-166.38,188.6-380.25,322.06-602.88,434.54C263.74,598.34-102.95,727.92-394.77,974.51c-156.23,132.01-280.18,299.56-397.24,465.98-150.75,214.32-287.63,438.06-424.95,661.1"/>
          <path class="cls-3" d="M1262.47,72.27c-166.38,188.6-380.25,322.06-602.88,434.54C322.73,677.01-43.96,806.59-335.78,1053.18c-156.23,132.01-280.18,299.56-397.24,465.98-150.75,214.32-287.63,438.06-424.95,661.1"/>
          <path class="cls-3" d="M1321.47,150.94c-166.38,188.6-380.25,322.06-602.88,434.54C381.73,755.68,15.04,885.26-276.78,1131.85c-156.23,132.01-280.18,299.56-397.24,465.98-150.75,214.32-287.63,438.06-424.95,661.1"/>
          <path class="cls-3" d="M1380.46,229.61c-166.38,188.6-380.25,322.06-602.88,434.54C440.72,834.35,74.03,963.93-217.78,1210.52c-156.23,132.01-280.18,299.56-397.24,465.98-150.75,214.32-287.63,438.06-424.95,661.1"/>
          <path class="cls-3" d="M1439.46,308.28c-166.38,188.6-380.25,322.06-602.88,434.54-336.86,170.2-703.55,299.78-995.37,546.37-156.23,132.01-280.18,299.56-397.24,465.98-150.75,214.32-287.63,438.06-424.95,661.1"/>
          <path class="cls-3" d="M1498.46,386.95c-166.38,188.6-380.25,322.06-602.88,434.54-336.86,170.2-703.55,299.78-995.37,546.37-156.23,132.01-280.18,299.56-397.24,465.98-150.75,214.32-287.63,438.06-424.95,661.1"/>
          <path class="cls-3" d="M1557.45,465.62c-166.4,188.37-380.45,321.66-602.78,434.38-337.19,170.97-704.33,301.61-996.71,548.42-156.34,131.97-280.22,299.62-397.31,466.09-150.45,213.88-287.05,437.16-424.07,659.76"/>
          <path class="cls-3" d="M1616.45,544.29c-167.75,189.61-383.91,323.83-607.3,438.4-337.81,173.24-705.22,307.59-998.8,555.06-155.66,131.2-279.02,297.71-395.67,463.25-150.11,213.03-286.21,435.56-422.69,657.43"/>
          <path class="cls-3" d="M1675.44,622.96c-168.47,190.41-385.43,326.14-608.87,443.03-342.41,179.13-715.45,319.33-1013.05,572.46-154.34,131.28-277.21,296.76-393.32,461.59-147.68,209.65-281.57,428.64-415.77,647.03"/>
          <path class="cls-3" d="M1734.44,701.63c-170.96,193.41-391.18,332.05-617.05,452.65-344.91,184.17-720.15,330.81-1020.55,587.33-152.97,130.63-275.47,294.05-390.96,457.61-146.24,207.12-278.53,423.69-411.1,639.68"/>
          <path class="cls-3" d="M1793.43,780.3c-172.42,195.38-394.18,336.79-620.99,460.89-349.38,191.17-729.45,345.1-1034.55,606.99-152.97,131.31-276.17,294.47-391.96,458.43-143.11,202.66-272.47,414.62-402.06,626.05"/>
          <path class="cls-3" d="M1852.43,858.97c-174.72,198.34-399.21,343.02-628.11,471.13-352.84,197.48-736.22,358.65-1045.21,625-152.39,131.36-275.92,293.3-391.64,456.88-140.75,198.98-267.73,407.26-394.89,615.04"/>
          <path class="cls-3" d="M1911.43,937.64c-176.19,200.32-402.14,347.68-631.96,479.22-358.76,205.33-748.84,374.23-1063.15,648.1-150.62,131.24-273.72,291.71-388.65,454.21-137.62,194.58-261.73,398.27-385.94,601.54"/>
          <path class="cls-3" d="M1970.42,1016.31c-178.71,203.36-407.89,353.76-640.17,488.92-361.23,210.2-753.34,385.31-1070.46,662.63-149.35,130.6-272.09,289.25-386.46,450.52-136.16,191.99-258.63,393.22-381.16,594.04"/>
          <path class="cls-3" d="M2029.42,1094.98c-179.41,204.13-409.22,355.97-641.54,493.2-364.47,215.3-759.9,395.74-1080.77,676.7-149.8,131.17-273.14,290.16-387.92,452.05-133.81,188.71-254.12,386.51-374.45,583.95"/>
          <path class="cls-3" d="M2088.41,1173.65c-180.81,205.4-412.65,358.37-646.1,497.37-365,217.31-760.56,400.95-1082.5,682.7-150.62,131.82-274.48,291.48-389.83,454.23-132.12,186.41-250.91,381.78-369.68,576.83"/>
          <path class="cls-3" d="M2147.41,1252.32c-180.84,205.2-412.78,358.04-645.99,497.19-365.31,217.97-761.17,402.47-1083.66,684.46-150.72,131.8-274.52,291.54-389.9,454.34-131.85,186.04-250.41,381-368.92,575.67"/>
          <path class="cls-3" d="M2206.4,1330.99c-180.84,205.2-412.78,358.04-645.99,497.19-365.31,217.97-761.17,402.47-1083.66,684.46-150.72,131.8-274.52,291.54-389.9,454.34-131.85,186.04-250.41,381-368.92,575.67"/>
          <path class="cls-3" d="M2265.4,1409.66c-180.84,205.2-412.78,358.04-645.99,497.19-365.31,217.97-761.17,402.47-1083.66,684.46-150.72,131.8-274.52,291.54-389.9,454.34-131.85,186.04-250.41,381-368.92,575.67"/>
          <path class="cls-3" d="M2324.39,1488.33c-180.84,205.2-412.78,358.04-645.99,497.19-365.31,217.97-761.17,402.47-1083.66,684.46-150.72,131.8-274.52,291.54-389.9,454.34-131.85,186.04-250.41,381-368.92,575.67"/>
          <path class="cls-3" d="M2383.39,1567c-180.84,205.2-412.78,358.04-645.99,497.19-365.31,217.97-761.17,402.47-1083.66,684.46-150.72,131.8-274.52,291.54-389.9,454.34-131.85,186.04-250.41,381-368.92,575.67"/>
          <path class="cls-3" d="M2442.39,1645.67c-180.84,205.2-412.78,358.04-645.99,497.19-365.31,217.97-761.17,402.47-1083.66,684.46-150.72,131.8-274.52,291.54-389.9,454.34-131.85,186.04-250.41,381-368.92,575.67"/>
          <path class="cls-3" d="M2501.38,1724.34c-180.84,205.2-412.78,358.04-645.99,497.19-365.31,217.97-761.17,402.47-1083.66,684.46-150.72,131.8-274.52,291.54-389.9,454.34-131.85,186.04-250.41,381-368.92,575.67"/>
          <path class="cls-3" d="M2560.38,1803.01c-180.84,205.2-412.78,358.04-645.99,497.19-365.31,217.97-761.17,402.47-1083.66,684.46-150.72,131.8-274.52,291.54-389.9,454.34-131.85,186.04-250.41,381-368.92,575.67"/>
          <path class="cls-3" d="M2619.37,1881.68c-180.84,205.2-412.78,358.04-645.99,497.19-365.31,217.97-761.17,402.47-1083.66,684.46-150.72,131.8-274.52,291.54-389.9,454.34-131.85,186.04-250.41,381-368.92,575.67"/>
          <path class="cls-3" d="M2678.37,1960.35c-180.84,205.2-412.78,358.04-645.99,497.19-365.31,217.97-761.17,402.47-1083.66,684.46-150.72,131.8-274.52,291.54-389.9,454.34-131.85,186.04-250.41,381-368.92,575.67"/>
          <path class="cls-3" d="M2737.36,2039.02c-180.86,205.23-412.47,358.18-645.89,497.08-364.56,216.93-759.54,400.23-1081.11,681.55-150.69,131.83-274.45,291.49-389.84,454.27-132.34,186.7-251.46,382.29-370.56,577.55"/>
          <path class="cls-3" d="M2796.36,2117.69c-179.4,203.58-408.65,355.34-640.53,492.59-363.56,215.2-757.73,395.82-1078.03,676.11-149.96,131.23-273.12,290.28-388.1,452.19-134.18,188.93-255.15,386.78-376.14,584.28"/>
          <path class="cls-3" d="M2855.35,2196.36c-178.65,202.71-406.96,353.29-638.45,488.9-359.91,210.84-750.18,387.17-1066.52,664.01-149.41,130.76-272,289.41-386.79,450.57-136.65,191.86-260.09,392.7-383.59,593.14"/>
        </g>
      </g>
      <path class="cls-2" d="M2131.71-3868.19c466.98,622.71,933.95,1245.41,1400.93,1868.12,215.85,287.84,430.91,575.64,656.72,855.8,126.59,157.05,254.36,313.34,375.64,474.56,110.03,146.27,219.63,292.87,329.45,439.31,277.12,369.53,554.23,739.06,831.35,1108.59-32.5,33.12-64.99,66.24-97.42,99.43-134.83,138.05-267.84,277.84-396.82,421.39-71.86,79.98-143.63,160.14-208.94,245.63-70.28,91.99-134.85,188.25-196.27,286.34-243.76,389.28-439.39,806.45-683.82,1195.33-104.84,166.8-218.38,333.46-358.53,472.93-131.93,131.29-287.34,236.04-448.51,327.9-346.74,197.62-729.71,339.89-1041.36,594.72-174.71,142.85-312.28,325.35-443,507.8-158.9,221.79-304.59,452.7-451.65,682.39-145.62-194.18-291.23-388.35-436.85-582.53-66.22-88.31-130.11-179.11-201.19-263.61-69.64-82.79-146.12-159.45-223.41-235.03-126.43-123.62-254.55-245.82-361.21-387.49-105.39-139.98-210.25-280.36-315.37-420.54-102.71-136.97-210.65-271.47-307.66-412.55-103.04-149.85-183.47-313.77-269.39-473.62-42.74-79.5-86.68-158.48-135.43-234.49-47.58-74.17-101.64-143.73-154.47-214.17-111.52-148.71-223.04-297.42-334.56-446.13-250.1-333.51-500.2-667.02-750.31-1000.52,146-236.99,290.4-475.41,449.91-703.68,127.98-183.14,263.94-366.21,439.35-506.87C-889.15-419.34-502.4-546.03-153.61-733.05c162.49-87.13,319.01-188.46,450.76-318.45,143.69-141.77,247.04-316.25,332.7-497.71,204.51-433.24,318.61-902.88,521.9-1336.63,49.6-105.82,104.89-209.45,170.78-306.1,61.47-90.16,133.95-171.83,212.02-247.92,141.96-138.37,304.06-251.59,473.06-354.26,41.17-25.01,82.64-49.55,124.11-74.07Z"/>
    </g>
  </g>
</svg>