<svg width="1368" height="778" viewBox="0 0 1568 778" fill="none" xmlns="http://www.w3.org/2000/svg">
<mask id="mask0_314_202" style="mask-type:luminance" maskUnits="userSpaceOnUse" x="0" y="0" width="1592" height="778">
<path d="M0.5 777.5V0.5H1591.5V777.5H0.5Z" fill="white" stroke="white"/>
</mask>
<g mask="url(#mask0_314_202)">
<mask id="mask1_314_202" style="mask-type:luminance" maskUnits="userSpaceOnUse" x="-777" y="-1365" width="2901" height="3376">
<path d="M554.682 -1197.58C626.013 -1267.65 708.49 -1316.6 791.937 -1363.56C1012.62 -1084.07 1234.97 -806.547 1457.31 -529.036L1457.36 -528.969C1679.73 -251.427 1902.09 26.1085 2122.78 305.606C1983.21 440.642 1849.41 574.862 1743.48 748.754C1717.88 790.788 1693.18 834.282 1668.47 878.039C1666.49 881.555 1664.5 885.073 1662.51 888.592C1639.78 928.866 1616.96 969.28 1593.34 1008.91C1541.95 1095.11 1486.74 1177.59 1420.21 1246.84C1355.16 1314.54 1278.45 1361.12 1198.72 1401.5C1166.67 1417.73 1134.15 1432.95 1101.69 1448.14C1093.77 1451.85 1085.85 1455.56 1077.94 1459.28C1037.65 1478.22 997.686 1497.48 959.137 1518.92C778.892 1619.16 659.799 1796.58 539.332 1976.05C531.713 1987.4 524.088 1998.76 516.442 2010.11C485.808 1971.32 455.178 1932.52 424.549 1893.73C393.777 1854.75 363.006 1815.78 332.231 1776.81C280.013 1710.69 222.164 1655.56 162.979 1599.17C158.177 1594.59 153.367 1590.01 148.55 1585.41C55.741 1496.82 -26.5884 1387.22 -106.746 1280.51C-122.279 1259.83 -137.73 1239.26 -153.16 1218.98C-188.377 1172.68 -217.281 1121.16 -246.241 1069.55C-258.33 1048.01 -270.429 1026.44 -283.001 1005.24C-318.26 945.745 -360.201 893.156 -402.226 840.461C-409.858 830.893 -417.492 821.32 -425.089 811.702C-541.935 663.712 -658.78 515.722 -775.626 367.755C-767.871 355.794 -760.142 343.821 -752.418 331.856C-634.188 148.709 -517.379 -32.236 -333.82 -128.612L-334.053 -129.055L-333.82 -128.613C-295.257 -148.865 -255.13 -166.775 -214.602 -184.364C-206.64 -187.819 -198.663 -191.261 -190.679 -194.707C-158.025 -208.799 -125.26 -222.94 -93.0011 -238.17C-12.7038 -276.082 64.507 -320.77 129.221 -388.383C196.777 -458.976 243.201 -550.37 282.434 -647.116C300.799 -692.402 317.592 -738.872 334.239 -784.937C335.375 -788.079 336.509 -791.219 337.644 -794.356C355.413 -843.5 373.126 -892.058 392.527 -938.116C433.741 -1035.99 482.8 -1126.97 554.682 -1197.58Z" fill="white" stroke="white"/>
</mask>
<g mask="url(#mask1_314_202)">
<path d="M1124.31 -943.393C968.74 -855.844 835.71 -757.373 750.18 -575.659C656.388 -376.431 609.416 -139.288 468.235 24.7117" stroke="#77B09F" stroke-opacity="0.6" stroke-width="4" stroke-miterlimit="10"/>
<path d="M1146.17 -915.711C990.6 -828.162 857.569 -729.691 772.04 -547.977C678.247 -348.749 631.275 -111.606 490.094 52.3934" stroke="#77B09F" stroke-opacity="0.6" stroke-width="4" stroke-miterlimit="10"/>
<path d="M1168.03 -888.054C1012.46 -800.505 879.429 -702.034 793.9 -520.32C700.107 -321.092 653.135 -83.9492 511.954 80.0506" stroke="#77B09F" stroke-opacity="0.6" stroke-width="4" stroke-miterlimit="10"/>
<path d="M1189.87 -860.373C1034.3 -772.824 901.27 -674.353 815.741 -492.639C721.948 -293.411 674.976 -56.268 533.795 107.732" stroke="#77B09F" stroke-opacity="0.6" stroke-width="4" stroke-miterlimit="10"/>
<path d="M1211.73 -832.691C1056.16 -745.142 923.129 -646.671 837.6 -464.957C743.807 -265.729 696.835 -28.5864 555.654 135.413" stroke="#77B09F" stroke-opacity="0.6" stroke-width="4" stroke-miterlimit="10"/>
<path d="M1233.57 -805.009C1078 -717.46 944.971 -618.989 859.442 -437.275C765.649 -238.047 718.677 -0.904317 577.496 163.095" stroke="#77B09F" stroke-opacity="0.6" stroke-width="4" stroke-miterlimit="10"/>
<path d="M1255.43 -777.329C1099.86 -689.78 966.829 -591.309 881.3 -409.595C787.507 -210.367 740.535 26.776 599.354 190.776" stroke="#77B09F" stroke-opacity="0.6" stroke-width="4" stroke-miterlimit="10"/>
<path d="M1277.29 -749.671C1121.72 -662.122 988.69 -563.651 903.161 -381.937C809.368 -182.709 762.396 54.4336 621.215 218.433" stroke="#77B09F" stroke-opacity="0.6" stroke-width="4" stroke-miterlimit="10"/>
<path d="M1299.13 -721.991C1143.56 -634.441 1010.53 -535.97 925.002 -354.256C831.209 -155.028 784.237 82.1143 643.057 246.114" stroke="#77B09F" stroke-opacity="0.6" stroke-width="4" stroke-miterlimit="10"/>
<path d="M1320.99 -694.309C1165.42 -606.759 1032.39 -508.288 946.861 -326.574C853.068 -127.346 806.096 109.796 664.916 273.796" stroke="#77B09F" stroke-opacity="0.6" stroke-width="4" stroke-miterlimit="10"/>
<path d="M1342.85 -666.628C1187.28 -579.079 1054.25 -480.608 968.722 -298.894C874.929 -99.6654 827.957 137.477 686.776 301.477" stroke="#77B09F" stroke-opacity="0.6" stroke-width="4" stroke-miterlimit="10"/>
<path d="M1364.69 -638.947C1209.12 -551.398 1076.09 -452.927 990.562 -271.213C896.769 -71.9849 849.797 165.158 708.616 329.158" stroke="#77B09F" stroke-opacity="0.6" stroke-width="4" stroke-miterlimit="10"/>
<path d="M1386.55 -611.289C1230.98 -523.739 1097.95 -425.268 1012.42 -243.554C918.628 -44.3261 871.656 192.816 730.476 356.816" stroke="#77B09F" stroke-opacity="0.6" stroke-width="4" stroke-miterlimit="10"/>
<path d="M1408.41 -583.607C1252.84 -496.058 1119.81 -397.587 1034.28 -215.873C940.489 -16.6445 893.517 220.498 752.336 384.498" stroke="#77B09F" stroke-opacity="0.6" stroke-width="4" stroke-miterlimit="10"/>
<path d="M1430.25 -555.926C1274.68 -468.377 1141.65 -369.906 1056.12 -188.192C962.33 11.0362 915.358 248.179 774.177 412.179" stroke="#77B09F" stroke-opacity="0.6" stroke-width="4" stroke-miterlimit="10"/>
<path d="M1452.4 -528C1297.05 -439.518 1164.61 -341.424 1078.8 -159.821C984.719 39.2293 936.329 275.173 796.018 439.861" stroke="#77B09F" stroke-opacity="0.6" stroke-width="4" stroke-miterlimit="10"/>
<path d="M1476.41 -498.477C1322.71 -407.465 1191.36 -308.683 1104.63 -128.723C1009.19 69.3068 957.129 302.476 817.858 467.541" stroke="#77B09F" stroke-opacity="0.6" stroke-width="4" stroke-miterlimit="10"/>
<path d="M1502.13 -467.489C1351.32 -373.547 1220.88 -272.035 1133.03 -95.4486C1035.36 100.849 978.743 330.755 839.718 495.221" stroke="#77B09F" stroke-opacity="0.6" stroke-width="4" stroke-miterlimit="10"/>
<path d="M1529.04 -435.479C1382.11 -337.762 1252.5 -233.032 1163.23 -60.6409C1062.74 133.415 1000.93 359.725 861.579 522.881" stroke="#77B09F" stroke-opacity="0.6" stroke-width="4" stroke-miterlimit="10"/>
<path d="M1556.67 -402.869C1414.2 -301.113 1285.27 -192.586 1194.49 -24.9016C1090.82 166.58 1023.46 389.071 883.438 550.585" stroke="#77B09F" stroke-opacity="0.6" stroke-width="4" stroke-miterlimit="10"/>
<path d="M1584.52 -370.061C1446.69 -264.175 1318.4 -151.853 1226.08 11.1035C1119.13 199.899 1046.14 418.461 905.278 578.244" stroke="#77B09F" stroke-opacity="0.6" stroke-width="4" stroke-miterlimit="10"/>
<path d="M1612.09 -337.496C1478.7 -227.571 1351.1 -111.919 1257.27 46.7535C1147.17 232.951 1068.72 447.63 927.139 605.902" stroke="#77B09F" stroke-opacity="0.6" stroke-width="4" stroke-miterlimit="10"/>
<path d="M1638.92 -305.575C1509.41 -191.898 1382.56 -73.7597 1287.33 81.4496C1174.5 265.361 1090.99 476.354 948.997 633.606" stroke="#77B09F" stroke-opacity="0.6" stroke-width="4" stroke-miterlimit="10"/>
<path d="M1664.49 -274.721C1538.02 -157.804 1411.95 -38.2666 1315.51 114.523C1200.56 296.659 1112.72 504.3 970.858 661.263" stroke="#77B09F" stroke-opacity="0.6" stroke-width="4" stroke-miterlimit="10"/>
<path d="M1688.32 -245.351C1563.74 -125.925 1438.37 -6.27735 1341.07 145.38C1224.89 326.473 1133.67 531.272 992.718 688.946" stroke="#77B09F" stroke-opacity="0.6" stroke-width="4" stroke-miterlimit="10"/>
<path d="M1710.35 -217.514C1586.15 -97.3779 1461.02 21.9593 1363.5 173.55C1247.13 354.465 1154.85 558.311 1014.56 716.605" stroke="#77B09F" stroke-opacity="0.6" stroke-width="4" stroke-miterlimit="10"/>
<path d="M1732.21 -189.833C1608.01 -69.697 1482.88 49.6401 1385.36 201.231C1268.99 382.146 1176.71 585.991 1036.42 744.286" stroke="#77B09F" stroke-opacity="0.6" stroke-width="4" stroke-miterlimit="10"/>
<path d="M1754.06 -162.152C1629.86 -42.0161 1504.74 77.3211 1407.22 228.912C1290.85 409.827 1198.57 613.672 1058.28 771.967" stroke="#77B09F" stroke-opacity="0.6" stroke-width="4" stroke-miterlimit="10"/>
<path d="M1775.91 -134.493C1651.71 -14.3569 1526.58 104.98 1429.06 256.571C1312.69 437.486 1220.41 641.331 1080.12 799.626" stroke="#77B09F" stroke-opacity="0.6" stroke-width="4" stroke-miterlimit="10"/>
<path d="M1797.77 -106.814C1673.57 13.3223 1548.44 132.66 1450.92 284.251C1334.55 465.165 1242.27 669.011 1101.98 827.306" stroke="#77B09F" stroke-opacity="0.6" stroke-width="4" stroke-miterlimit="10"/>
<path d="M1819.63 -79.1316C1695.43 41.0047 1570.3 160.342 1472.78 311.933C1356.41 492.848 1264.13 696.693 1123.84 854.988" stroke="#77B09F" stroke-opacity="0.6" stroke-width="4" stroke-miterlimit="10"/>
<path d="M1841.47 -51.4517C1717.27 68.6846 1592.14 188.022 1494.62 339.613C1378.25 520.528 1285.97 724.373 1145.68 882.668" stroke="#77B09F" stroke-opacity="0.6" stroke-width="4" stroke-miterlimit="10"/>
<path d="M1863.33 -23.769C1739.13 96.3672 1614 215.704 1516.48 367.295C1400.11 548.21 1307.83 752.056 1167.54 910.35" stroke="#77B09F" stroke-opacity="0.6" stroke-width="4" stroke-miterlimit="10"/>
<path d="M1885.17 3.88843C1760.97 124.025 1635.84 243.362 1538.32 394.953C1421.95 575.868 1329.67 779.713 1189.38 938.008" stroke="#77B09F" stroke-opacity="0.6" stroke-width="4" stroke-miterlimit="10"/>
<path d="M1907.03 31.5698C1782.83 151.706 1657.7 271.043 1560.18 422.634C1443.81 603.549 1351.53 807.395 1211.24 965.689" stroke="#77B09F" stroke-opacity="0.6" stroke-width="4" stroke-miterlimit="10"/>
<path d="M1928.89 59.2505C1804.69 179.387 1679.56 298.724 1582.04 450.315C1465.67 631.23 1373.39 835.075 1233.1 993.37" stroke="#77B09F" stroke-opacity="0.6" stroke-width="4" stroke-miterlimit="10"/>
<path d="M1950.73 86.9316C1826.53 207.068 1701.4 326.405 1603.88 477.996C1487.51 658.911 1395.23 862.756 1254.94 1021.05" stroke="#77B09F" stroke-opacity="0.6" stroke-width="4" stroke-miterlimit="10"/>
<path d="M1972.59 114.612C1848.39 234.749 1723.26 354.086 1625.74 505.677C1509.37 686.592 1417.09 890.437 1276.8 1048.73" stroke="#77B09F" stroke-opacity="0.6" stroke-width="4" stroke-miterlimit="10"/>
<path d="M1994.45 142.272C1870.25 262.409 1745.12 381.746 1647.6 533.337C1531.23 714.252 1438.95 918.097 1298.66 1076.39" stroke="#77B09F" stroke-opacity="0.6" stroke-width="4" stroke-miterlimit="10"/>
<path d="M2016.29 169.953C1892.09 290.089 1766.96 409.426 1669.44 561.017C1553.07 741.932 1460.79 945.778 1320.5 1104.07" stroke="#77B09F" stroke-opacity="0.6" stroke-width="4" stroke-miterlimit="10"/>
<path d="M2038.15 197.634C1913.95 317.771 1788.82 437.108 1691.3 588.699C1574.93 769.614 1482.65 973.459 1342.36 1131.75" stroke="#77B09F" stroke-opacity="0.6" stroke-width="4" stroke-miterlimit="10"/>
<path d="M2060.01 225.315C1935.81 345.451 1810.68 464.788 1713.16 616.379C1596.79 797.294 1504.51 1001.14 1364.22 1159.43" stroke="#77B09F" stroke-opacity="0.6" stroke-width="4" stroke-miterlimit="10"/>
<path d="M2081.85 252.996C1957.65 373.132 1832.52 492.469 1735 644.06C1618.63 824.975 1526.35 1028.82 1386.06 1187.12" stroke="#77B09F" stroke-opacity="0.6" stroke-width="4" stroke-miterlimit="10"/>
<path d="M2103.71 280.656C1979.51 400.792 1854.38 520.129 1756.86 671.72C1640.49 852.635 1548.21 1056.48 1407.92 1214.77" stroke="#77B09F" stroke-opacity="0.6" stroke-width="4" stroke-miterlimit="10"/>
<path d="M2125.57 308.336C2001.37 428.472 1876.24 547.809 1778.72 699.401C1662.35 880.315 1570.07 1084.16 1429.78 1242.46" stroke="#77B09F" stroke-opacity="0.6" stroke-width="4" stroke-miterlimit="10"/>
<path d="M140.433 -390.438C-2.12832 -243.82 -192.475 -201.887 -359.259 -107.146C-532.927 -8.475 -644.571 177.368 -758.616 353.221" stroke="#77B09F" stroke-opacity="0.6" stroke-width="4" stroke-miterlimit="10"/>
<path d="M162.293 -362.758C19.732 -216.139 -170.614 -174.207 -337.399 -79.4653C-511.067 19.2054 -622.711 205.048 -736.756 380.902" stroke="#77B09F" stroke-opacity="0.6" stroke-width="4" stroke-miterlimit="10"/>
<path d="M184.151 -335.076C41.5895 -188.458 -148.757 -146.526 -315.542 -51.7839C-489.21 46.8868 -600.853 232.73 -714.898 408.583" stroke="#77B09F" stroke-opacity="0.6" stroke-width="4" stroke-miterlimit="10"/>
<path d="M205.993 -307.417C63.4322 -160.798 -126.914 -118.866 -293.699 -24.124C-467.367 74.5467 -579.01 260.39 -693.056 436.243" stroke="#77B09F" stroke-opacity="0.6" stroke-width="4" stroke-miterlimit="10"/>
<path d="M227.854 -279.736C85.2925 -133.117 -105.054 -91.1852 -271.839 3.55645C-445.506 102.227 -557.15 288.07 -671.195 463.923" stroke="#77B09F" stroke-opacity="0.6" stroke-width="4" stroke-miterlimit="10"/>
<path d="M249.694 -252.054C107.132 -105.436 -83.214 -63.5033 -249.999 31.2383C-423.667 129.909 -535.31 315.752 -649.355 491.605" stroke="#77B09F" stroke-opacity="0.6" stroke-width="4" stroke-miterlimit="10"/>
<path d="M271.553 -224.374C128.992 -77.7549 -61.3545 -35.8226 -228.139 58.919C-401.807 157.59 -513.451 343.432 -627.496 519.286" stroke="#77B09F" stroke-opacity="0.6" stroke-width="4" stroke-miterlimit="10"/>
<path d="M293.414 -196.692C150.853 -50.0735 -39.4932 -8.14122 -206.278 86.6004C-379.946 185.271 -491.59 371.114 -605.635 546.967" stroke="#77B09F" stroke-opacity="0.6" stroke-width="4" stroke-miterlimit="10"/>
<path d="M315.254 -169.034C172.693 -22.4155 -17.6534 19.5167 -184.438 114.258C-358.106 212.929 -469.75 398.772 -583.795 574.625" stroke="#77B09F" stroke-opacity="0.6" stroke-width="4" stroke-miterlimit="10"/>
<path d="M337.114 -141.354C194.552 5.26512 4.20596 47.1974 -162.579 141.939C-336.247 240.61 -447.89 426.453 -561.936 602.306" stroke="#77B09F" stroke-opacity="0.6" stroke-width="4" stroke-miterlimit="10"/>
<path d="M358.974 -113.672C216.413 32.9465 26.0663 74.8788 -140.718 169.62C-314.386 268.291 -426.03 454.134 -540.075 629.987" stroke="#77B09F" stroke-opacity="0.6" stroke-width="4" stroke-miterlimit="10"/>
<path d="M380.816 -85.9907C238.254 60.6279 47.9081 102.56 -118.877 197.302C-292.545 295.973 -404.188 481.815 -518.233 657.669" stroke="#77B09F" stroke-opacity="0.6" stroke-width="4" stroke-miterlimit="10"/>
<path d="M402.675 -58.3096C260.114 88.3091 69.7675 130.241 -97.0172 224.983C-270.685 323.654 -382.329 509.496 -496.374 685.35" stroke="#77B09F" stroke-opacity="0.6" stroke-width="4" stroke-miterlimit="10"/>
<path d="M424.534 -30.6521C281.972 115.967 91.6259 157.899 -75.1588 252.641C-248.827 351.311 -360.47 537.154 -474.516 713.007" stroke="#77B09F" stroke-opacity="0.6" stroke-width="4" stroke-miterlimit="10"/>
<path d="M446.376 -2.97046C303.815 143.648 113.469 185.58 -53.3161 280.322C-226.984 378.993 -338.628 564.836 -452.673 740.689" stroke="#77B09F" stroke-opacity="0.6" stroke-width="4" stroke-miterlimit="10"/>
<path d="M468.234 24.7109C325.673 171.33 135.326 213.262 -31.4587 308.003C-205.127 406.674 -316.77 592.517 -430.815 768.371" stroke="#77B09F" stroke-opacity="0.6" stroke-width="4" stroke-miterlimit="10"/>
<path d="M490.074 52.3916C347.513 199.01 157.167 240.942 -9.61783 335.684C-183.286 434.355 -294.929 620.197 -408.975 796.051" stroke="#77B09F" stroke-opacity="0.6" stroke-width="4" stroke-miterlimit="10"/>
<path d="M511.936 80.0728C369.375 226.691 179.028 268.624 12.2435 363.365C-161.424 462.036 -273.068 647.879 -387.113 823.732" stroke="#77B09F" stroke-opacity="0.6" stroke-width="4" stroke-miterlimit="10"/>
<path d="M533.793 107.732C391.232 254.351 200.886 296.283 34.1009 391.025C-139.567 489.695 -251.211 675.538 -365.256 851.392" stroke="#77B09F" stroke-opacity="0.6" stroke-width="4" stroke-miterlimit="10"/>
<path d="M555.636 135.413C413.075 282.031 222.728 323.964 55.9437 418.705C-117.724 517.376 -229.368 703.219 -343.413 879.072" stroke="#77B09F" stroke-opacity="0.6" stroke-width="4" stroke-miterlimit="10"/>
<path d="M577.494 163.094C434.839 309.646 244.246 352.045 77.4239 446.92C-96.1305 545.635 -207.68 731.1 -321.687 906.909" stroke="#77B09F" stroke-opacity="0.6" stroke-width="4" stroke-miterlimit="10"/>
<path d="M599.355 190.774C456.019 337.77 264.349 382.1 96.921 478.018C-76.0283 577.11 -187.275 760.8 -301.074 936.409" stroke="#77B09F" stroke-opacity="0.6" stroke-width="4" stroke-miterlimit="10"/>
<path d="M621.197 218.456C476.669 366.695 283.353 413.756 114.753 511.516C-57.2316 611.23 -168.119 792.234 -281.597 967.51" stroke="#77B09F" stroke-opacity="0.6" stroke-width="4" stroke-miterlimit="10"/>
<path d="M643.056 246.115C496.958 396.175 301.601 446.542 131.393 546.745C-39.3436 647.258 -149.853 824.954 -262.896 999.764" stroke="#77B09F" stroke-opacity="0.6" stroke-width="4" stroke-miterlimit="10"/>
<path d="M664.916 273.796C517.022 426.031 319.376 480.039 147.316 583.016C-21.9842 684.351 -132.153 858.473 -244.667 1032.71" stroke="#77B09F" stroke-opacity="0.6" stroke-width="4" stroke-miterlimit="10"/>
<path d="M686.757 301.478C537.048 456.066 336.925 513.847 162.917 619.644C-4.83215 721.622 -114.774 892.414 -226.645 1065.91" stroke="#77B09F" stroke-opacity="0.6" stroke-width="4" stroke-miterlimit="10"/>
<path d="M708.616 329.159C557.053 485.989 354.699 547.366 178.781 655.982C12.4877 758.648 -97.1893 926.067 -208.474 1098.9" stroke="#77B09F" stroke-opacity="0.6" stroke-width="4" stroke-miterlimit="10"/>
<path d="M730.457 356.84C577.231 515.601 372.891 580.242 195.309 691.344C30.3399 794.565 -79.1291 959.031 -189.846 1131.24" stroke="#77B09F" stroke-opacity="0.6" stroke-width="4" stroke-miterlimit="10"/>
<path d="M752.317 384.498C597.748 544.68 391.876 611.962 213.008 725.04C49.0979 828.66 -60.1821 990.751 -170.445 1162.48" stroke="#77B09F" stroke-opacity="0.6" stroke-width="4" stroke-miterlimit="10"/>
<path d="M774.176 412.18C618.775 573.005 411.921 642.219 232.334 756.384C69.1231 860.16 -40.0244 1020.79 -149.947 1192.13" stroke="#77B09F" stroke-opacity="0.6" stroke-width="4" stroke-miterlimit="10"/>
<path d="M796.017 439.86C640.427 600.664 433.364 670.432 253.645 784.819C90.6047 888.618 -18.4672 1048.82 -128.314 1220.08" stroke="#77B09F" stroke-opacity="0.6" stroke-width="4" stroke-miterlimit="10"/>
<path d="M817.877 467.542C662.287 628.346 455.225 698.114 275.506 812.501C112.465 916.3 3.39312 1076.5 -106.454 1247.76" stroke="#77B09F" stroke-opacity="0.6" stroke-width="4" stroke-miterlimit="10"/>
<path d="M839.737 495.201C684.147 656.004 477.084 725.772 297.365 840.159C134.324 943.958 25.2525 1104.16 -84.5947 1275.42" stroke="#77B09F" stroke-opacity="0.6" stroke-width="4" stroke-miterlimit="10"/>
<path d="M861.578 522.881C705.988 683.685 498.925 753.453 319.206 867.84C156.165 971.639 47.0933 1131.84 -62.7539 1303.1" stroke="#77B09F" stroke-opacity="0.6" stroke-width="4" stroke-miterlimit="10"/>
<path d="M883.438 550.563C727.847 711.366 520.785 781.135 341.066 895.522C178.025 999.32 68.9532 1159.52 -40.894 1330.78" stroke="#77B09F" stroke-opacity="0.6" stroke-width="4" stroke-miterlimit="10"/>
<path d="M905.297 578.244C749.707 739.047 542.644 808.816 362.925 923.203C199.884 1027 90.8126 1187.21 -19.0347 1358.46" stroke="#77B09F" stroke-opacity="0.6" stroke-width="4" stroke-miterlimit="10"/>
<path d="M927.139 605.925C771.549 766.729 564.486 836.497 384.767 950.884C221.726 1054.68 112.654 1214.89 2.80713 1386.15" stroke="#77B09F" stroke-opacity="0.6" stroke-width="4" stroke-miterlimit="10"/>
<path d="M948.999 633.584C793.409 794.387 586.346 864.156 406.627 978.543C243.586 1082.34 134.514 1242.55 24.667 1413.8" stroke="#77B09F" stroke-opacity="0.6" stroke-width="4" stroke-miterlimit="10"/>
<path d="M970.839 661.264C815.249 822.067 608.186 891.836 428.467 1006.22C265.426 1110.02 156.355 1270.23 46.5073 1441.48" stroke="#77B09F" stroke-opacity="0.6" stroke-width="4" stroke-miterlimit="10"/>
<path d="M992.699 688.945C837.109 849.749 630.046 919.517 450.327 1033.9C287.286 1137.7 178.214 1297.91 68.3672 1469.17" stroke="#77B09F" stroke-opacity="0.6" stroke-width="4" stroke-miterlimit="10"/>
<path d="M1014.56 716.627C859.12 877.297 652.454 946.622 472.905 1060.81C309.676 1164.63 200.547 1325.23 90.5107 1496.56" stroke="#77B09F" stroke-opacity="0.6" stroke-width="4" stroke-miterlimit="10"/>
<path d="M1036.4 744.308C881.755 904.201 676.299 972.127 497.583 1085.4C333.823 1189.2 224.468 1351.12 113.921 1522.53" stroke="#77B09F" stroke-opacity="0.6" stroke-width="4" stroke-miterlimit="10"/>
<path d="M1058.26 771.966C904.958 930.46 701.261 996.5 523.925 1108.2C359.428 1211.8 249.675 1375.8 138.429 1547.32" stroke="#77B09F" stroke-opacity="0.6" stroke-width="4" stroke-miterlimit="10"/>
</g>
</g>
</svg>
