<?xml version="1.0" encoding="UTF-8"?>
<svg id="Layer_1" xmlns="http://www.w3.org/2000/svg" baseProfile="tiny" version="1.2" viewBox="0 0 1464.9 1365.7">
  <path d="M972,569.8c-4.6,105.2-198.6,162.2-193.1,17.9-14.1-118.4,195.6-116.6,193.1-17.9Z" fill="#3a140c"/>
  <path d="M870,454.4c174.2-320,155.7-435.9-218.5-322-76.8,26,207,374.4,218.5,322Z" fill="#ef0a7c"/>
  <path d="M1047.1,462.5c152.6-74,213-184,321.6-314.7,31.3-37.4-13-114.4-37.9-118.9-269.7-85.9-311.7,11.6-330.9,283-17.6,132.8-92.5,187.7,47.3,150.6Z" fill="#ef0a7c"/>
  <path d="M1002.4,591.1c109.1,74.8,157.7,9.6,288.1,1.7,68-7.3,100.1-.1,131.9-28.4,88.9-91,33.8-292.3-108.7-275.8-31.8,6.4-106.6,111-133.7,126.8-3.8,24-268.4,91.9-177.6,175.6Z" fill="#ef0a7c"/>
  <path d="M997.3,688.1c-31,106.7,127.2,151.7,181.6,268.2,148.5,239.6,295.2,34.6,230.5-163.6-22.2-181.9-268-141.2-364.3-141.1-19.9-7.8-44.9,16.3-47.8,36.6Z" fill="#ef0a7c"/>
  <path d="M915,750.1c54-71.6,140.4,164.2,165.4,179.5,87.5,111.7,284.5,285.3,150.5,432.3-11.6,24.8-306.6-112.2-327.6-135-94.7-40-85.1-183.6-53.8-223,58-98.5-2.7-148.8,65.5-253.8Z" fill="#ef0a7c"/>
  <path d="M837.7,692.2c67.2,17.9-42.8,230-29.4,256.7,1.4,92.4-64.8,127.2-116.8,129.3-265.3.7-97.9-178,18-260,35.1-57.3,61.5-116,128.2-126Z" fill="#ef0a7c"/>
  <path d="M201.4,750.1c34-48,314.3-73.6,366.3-110.5,48.5-21.1,83-42.8,125.1-30.7,141.3,64.5-27.3,176.2-116.3,235-75.3,58.6-79.8,84.9-126,93.9-102.9-6.6-368.6-53.6-249.1-187.8Z" fill="#ef0a7c"/>
  <path d="M716.6,500.1c59,24.8,14.3,60-31.9,69.9-222.8,52.9-470.5,195.8-613.4,21.9-164.3-131.2-12.4-306.6,158.3-211.7,227.7,89.6,253.4,71.5,487,119.9Z" fill="#ef0a7c"/>
  <path d="M778.9,478.1c69.3-73.5-397.9-368.9-376.7-393.3-38.2-32.6-75.6-91.5-136.7-57.7-36.9,9.9-78.6,153.6-87.6,170.7,10,78.4,52.9,129.5,144.5,163.4,103.8,27.7,318.8,126.2,456.4,116.9Z" fill="#ef0a7c"/>
</svg>