<svg width="344" height="377" viewBox="0 0 344 377" fill="none" xmlns="http://www.w3.org/2000/svg">
<path d="M150.492 161.311C152.767 159.134 155.321 157.307 158.093 155.94C166.337 151.873 176.426 152.128 184.222 157.126C199.669 167.033 202.223 196.691 184.451 205.656C176.071 209.885 165.873 208.382 157.807 203.487C154.312 201.366 150.98 198.431 149.603 194.366C148.717 191.753 148.715 188.885 149.003 186.12C150.048 176.098 155.401 166.172 163.996 162.239C172.592 158.305 184.155 162.129 187.651 171.483C189.295 175.88 189.089 180.853 188.112 185.475C187.529 188.231 186.643 190.999 184.918 193.123C183.007 195.477 180.184 196.843 177.306 197.226C171.708 197.969 165.704 194.77 163.278 189.268C160.853 183.765 162.583 176.366 167.391 173.185C172.202 170.005 179.439 172.034 181.832 177.553C180.85 176.942 179.867 176.332 178.885 175.721C174.031 171.782 165.835 174.959 164.408 181.332C163.018 187.542 168.16 194.154 174.064 194.513C179.968 194.871 185.483 189.713 186.789 183.483C188.093 177.253 185.602 170.508 181.225 166.209C179.163 164.182 176.663 162.609 173.928 162.03C169.531 161.101 164.9 162.859 161.421 165.907C157.942 168.956 155.495 173.174 153.616 177.567C151.489 182.53 150.02 188.351 151.98 193.395C155.85 203.361 169.336 206.723 178.204 204.987C182.077 204.228 185.872 202.514 188.691 199.546C192.357 195.686 194.048 190.022 194.198 184.49C194.662 167.351 183.71 152.252 166.687 155.25C157.507 156.867 149.554 163.881 145.162 172.738C141.096 180.938 139.898 190.967 142.817 199.72C151.092 224.53 190.917 224.072 202.455 202.559C208.975 190.401 207.223 175.086 199.853 164.282C196.488 159.349 185.417 148.176 179.812 147.141C178.411 146.881 177.456 147.612 176.511 147.514C173.877 147.238 170.983 145.562 168.245 145.844C165.23 146.157 163.63 146.405 160.611 146.52C160.263 146.533 160.373 147.587 159.851 147.77C151.033 150.867 144.014 157.749 138.755 166.157C131.611 177.585 131.939 190.077 130.357 203.237C129.377 202.524 129.504 201.511 129.425 200.428C127.666 176.473 138.483 150.36 162.031 145.171C174.402 142.444 187.914 146.735 196.957 156.26C212.149 172.263 213.192 200.857 194.789 214.495C169.957 232.896 129.964 212.918 140.718 177.448C142.59 171.271 146.002 165.613 150.494 161.317L150.492 161.311Z" fill="#F0047F" fill-opacity="0.39"/>
<path d="M205.55 307.486C205.849 309.315 206.156 311.142 206.483 312.965C209.446 329.518 213.967 345.747 219.951 361.319C220.684 363.228 221.457 365.253 221.172 367.298C220.887 369.342 219.074 371.285 217.223 370.76C218.275 372.027 218.158 374.219 216.975 375.344C213.892 368.439 211.064 361.4 208.504 354.249C200.407 331.638 195.011 308.025 189.638 284.487C186.837 272.211 177.326 250.382 180.847 238.059C189.014 239.294 197.428 269.123 199.659 276.99C202.48 286.926 203.874 297.243 205.548 307.486L205.55 307.486ZM183.179 241.596L182.288 240.353L181.418 240.359L181.435 242.888L183.177 241.596L183.179 241.596ZM184.429 253.662C184.541 251.4 184.529 248.185 182.635 246.697C182.502 247.799 182.712 248.822 182.917 249.894C183.065 250.672 183.662 253.405 184.429 253.662ZM213.858 355.691C213.311 352.737 212.742 349.538 211.87 346.684C211.668 346.021 211.711 344.77 210.866 344.924L213.86 355.691L213.858 355.691ZM216.854 365.199L215.664 360.436L213.872 356.335C214.426 359.136 214.778 363.24 216.854 365.199Z" fill="#F0047F" fill-opacity="0.39"/>
<path d="M110.855 201.875C111.667 202.75 112.482 203.627 113.295 204.503C90.2516 214.968 66.5688 214.532 42.3389 218.452C28.8849 220.627 15.6812 224.285 2.5048 227.936C3.43255 221.425 15.0968 219.145 19.7114 217.56C36.5309 211.778 53.3759 205.992 70.5952 201.795C86.2825 197.973 104.776 192.536 120.862 193.061C122.806 193.124 111.225 201.551 110.796 201.812C110.815 201.833 110.835 201.854 110.855 201.875ZM97.7009 198.379L91.2505 199.68C92.3031 199.738 93.3512 199.708 94.4047 199.585C95.0724 199.506 97.632 199.279 97.7009 198.379ZM108.278 198.306C107.558 198.165 105.276 199.258 105.942 199.581C106.662 199.723 108.944 198.63 108.278 198.306ZM105.348 199.596L104.179 199.604L104.182 200.226L105.352 200.218L105.348 199.596ZM101.829 200.89L99.4839 200.905L99.4877 201.528L101.833 201.512L101.829 200.89ZM71.2826 203L67.7675 203.658L67.7713 204.281L71.2864 203.622L71.2826 203ZM67.1757 204.297C62.6853 205.672 57.8895 206.148 53.4211 207.592C52.5567 207.871 50.4204 208.427 50.1722 209.479C54.7757 208.011 59.6486 207.335 64.2602 205.907C65.0288 205.669 67.0702 205.287 67.1777 204.295L67.1757 204.297ZM97.168 207.272L95.4104 207.283L95.4142 207.906L97.1718 207.894L97.168 207.272ZM67.8126 211.912L64.8794 211.931L64.8832 212.554L67.8164 212.534L67.8126 211.912ZM52.5392 213.284L36.7015 217.186L45.0395 215.682L52.5392 213.284ZM36.1099 217.205L34.3523 217.216L34.3561 217.839L36.1137 217.827L36.1099 217.205Z" fill="#F0047F" fill-opacity="0.39"/>
<path d="M178.309 133.38C176.964 133.548 175.567 133.215 174.49 132.318C173.699 123.037 173.215 117.809 176.046 108.677C179.028 99.0631 180.474 88.8924 180.298 78.7537C180.148 70.1115 178.839 61.4157 180.046 52.8723C181.167 44.9477 184.437 37.7347 186.518 30.1063C188.731 21.986 189.139 13.4818 190.673 5.18608C190.844 4.2641 192.062 1.29018 193.155 1.539C194.98 1.95226 193.468 5.85534 193.465 6.95825C193.324 47.3768 191.272 87.1646 183.495 126.824C183.206 128.297 182.894 129.812 182.098 131.048C181.237 132.387 179.805 133.195 178.309 133.38ZM187.794 37.1237L187.786 35.86L187.21 35.8638L187.218 37.1276L187.794 37.1237ZM187.234 41.5729L187.214 38.4041L186.638 38.4079L186.658 41.5768L187.234 41.5729ZM189.626 48.5405L190.151 38.3844L189.025 44.4272L189.626 48.5426L189.626 48.5405ZM181.448 54.313C183.247 53.0668 182.738 49.3635 183.156 47.3201C182.213 47.4301 181.949 49.7816 181.805 50.5997C181.587 51.8374 181.281 53.0313 181.448 54.313ZM187.947 59.9829L189.138 58.3872L188.214 56.81L187.949 59.9829L187.947 59.9829ZM184.51 76.5134L185.02 63.815C182.59 65.3322 183.173 69.6488 183.389 72.3189C183.455 73.1292 183.741 76.22 184.51 76.5155L184.51 76.5134ZM190.336 68.2185L190.32 65.6847L189.744 65.6885L189.76 68.2223L190.336 68.2185ZM189.221 77.7498L189.209 75.851L188.633 75.8549L188.645 77.7536L189.221 77.7498ZM180.61 110.827L180.602 109.563L180.026 109.567L180.033 110.83L180.61 110.827ZM175.382 121.018L175.94 115.943C175.101 115.887 175.144 118.391 175.082 119.122C175.024 119.787 174.237 121.157 175.384 121.018L175.382 121.018ZM179.544 128.611L179.536 127.348L178.96 127.351L178.968 128.615L179.544 128.611Z" fill="#F0047F" fill-opacity="0.39"/>
<path d="M56.0886 85.3846C59.2742 88.475 63.5397 90.9803 66.7786 93.827C70.2048 96.8396 72.9036 100.753 76.5851 103.55C81.9222 107.602 88.8769 110.872 94.4418 114.69C105.725 122.43 115.093 131.179 125.274 140.394C126.206 141.236 127.899 141.921 128.527 142.639C129.322 143.548 128.624 144.463 128.976 145.276C129.374 146.194 131.992 150.031 131.491 150.521C127.958 151.043 128.416 147.238 124.702 146.769L124.134 148.683C122.455 148.762 120.995 148.073 119.532 147.316C113.753 144.33 106.394 138.126 100.692 134.199C89.8783 126.753 82.6393 121.236 72.7938 112.17C61.5709 101.834 47.9883 90.477 41.1225 77.5042C37.5142 77.34 37.1541 72.9753 34.8663 70.5816C33.9887 69.6625 32.3466 69.3348 31.9289 68.6453C31.7428 68.3354 31.1188 61.2184 32.8201 61.9352C35.2514 63.1425 35.9412 65.9935 37.8072 68.0026C40.4998 70.9038 45.0911 73.4894 48.178 76.4684C51.0284 79.216 53.2618 82.6431 56.0866 85.3846L56.0886 85.3846ZM40.5129 73.6641L39.3354 72.4082L39.3432 73.674L40.5129 73.6641ZM58.8646 95.1311C56.3278 91.7484 53.3211 88.7541 50.0004 86.3081L52.9493 90.4247L58.8626 95.1311L58.8646 95.1311ZM74.8022 106.453L70.0782 102.687C71.0977 104.366 72.8226 106.361 74.8022 106.453ZM86.637 119.706C86.9215 119.463 85.5999 118.032 84.8658 118.461C84.5812 118.704 85.9029 120.134 86.637 119.706ZM88.9942 120.973L87.8244 120.981L87.8283 121.603L88.998 121.595L88.9942 120.973ZM101.393 130.414L100.223 130.422L100.227 131.044L101.397 131.036L101.393 130.414ZM111.437 138.59C108.815 135.726 105.428 133.283 101.991 131.68C104.657 134.401 108.051 137.004 111.437 138.59ZM113.794 139.857L112.624 139.865L112.628 140.487L113.798 140.479L113.794 139.857ZM117.335 142.371L116.165 142.379L116.169 143.001L117.339 142.993L117.335 142.371ZM125.574 143.573C125.858 143.33 124.537 141.899 123.803 142.328C123.518 142.571 124.84 144.002 125.574 143.573ZM127.337 144.207L126.168 144.215L126.175 145.155L127.059 146.108L127.335 144.207L127.337 144.207Z" fill="#F0047F" fill-opacity="0.39"/>
<path d="M285.47 51.4935C284.873 58.3308 276.444 63.4868 272.586 68.6059C263.722 80.3717 256.799 93.6973 248.352 105.818C240.816 116.633 223.441 145.088 209.294 145.052C201.797 145.032 207.03 139.322 209.938 134.503C214.527 126.896 219.679 119.702 225.15 112.815C235.842 99.3544 247.778 87.1256 259.683 74.9393C267.065 67.3813 274.446 59.8253 281.828 52.2673C282.848 51.2231 284.234 50.945 285.472 51.4935L285.47 51.4935ZM266.785 74.0577C267.74 73.594 268.72 72.6497 268.521 71.5058C267.565 71.9694 266.585 72.9138 266.785 74.0577ZM248.686 94.5032C247.613 94.2944 246.739 95.2127 246.94 96.4137L248.686 94.5032ZM243.486 107.866C245.397 106.363 247.589 104.075 248.137 101.486C246.226 102.989 244.034 105.278 243.486 107.866ZM218.326 125.814C220.228 124.229 222.078 121.782 223.557 119.731C224.556 118.346 226.109 116.628 226.475 114.966C224.616 116.773 222.811 118.955 221.243 121.049C220.25 122.374 218.69 124.19 218.326 125.814ZM230.046 121.921L230.039 120.655L228.875 121.618L230.046 121.921ZM210.772 140.465C211.603 141.391 214.692 137.062 211.342 137.292L210.772 140.465Z" fill="#F0047F" fill-opacity="0.39"/>
<path d="M143.147 229.817L143.147 229.849C143.208 239.055 141.998 243.974 136.164 252.517C129.222 262.684 120.219 270.958 112.709 280.602C104.847 290.697 98.7121 302.146 91.4766 312.739C83.9362 323.776 74.1058 331.727 65.926 342.032C65.3446 342.764 65.0265 343.603 63.9277 343.362L65.0837 339.851L63.8728 339.235C65.29 339.956 73.7396 325.106 74.8138 323.585C75.6685 322.375 76.6985 321.327 77.703 320.257C90.9148 306.166 99.5234 288.193 109.616 271.586C114.62 263.354 119.957 255.278 126.409 248.283C130.462 243.891 138.141 231.773 143.147 229.817ZM121.586 259.16C123.804 258.19 126.461 255.107 128.015 253.092C128.567 252.375 129.433 252.05 129.169 250.86L121.586 259.158L121.586 259.16Z" fill="#F0047F" fill-opacity="0.39"/>
<path d="M225.762 219.184C227.501 219.865 229.257 220.53 231.175 221.419C240.747 225.862 250.142 235.615 258.709 242.071C270.153 250.695 281.573 259.354 292.97 268.05C299.815 273.273 316.815 281.339 319.283 290.415C318.712 290.893 318.145 290.805 317.444 290.607C315.577 290.054 312.012 286.033 309.995 284.685C292.485 272.98 271.533 268.905 255.807 253.812C248.159 246.469 240.303 239.385 232.529 232.202C228.865 228.818 224.975 225.557 221.539 221.903C220.421 220.714 217 214.857 216.81 214.724C220.152 216.935 222.932 218.079 225.762 219.186L225.762 219.184ZM238.947 230.438C238.559 229.249 237.111 228.596 236 228.565C235.498 228.823 238.138 230.596 238.947 230.438ZM263.792 256.95L262.622 256.958L262.626 257.581L263.796 257.573L263.792 256.95Z" fill="#F0047F" fill-opacity="0.39"/>
<path d="M342.051 152.512C337.344 155.577 329.251 153.929 323.574 155.767C302.548 162.578 280.202 171.824 258.231 173.749C255.918 173.951 221.026 182.212 235.116 172.297C243.642 166.298 257.638 164.039 267.422 161.31C289.288 155.215 311.744 151.591 334.307 150.553C337.183 150.421 339.881 150.462 342.051 152.51L342.051 152.512ZM313.119 155.663L308.267 155.839L304.322 157.614L307.387 157.425L313.119 155.665L313.119 155.663ZM280.856 165.403C279.746 165.806 277.224 166.035 276.763 167.325C277.87 166.922 280.375 166.704 280.856 165.403ZM272.051 166.732L270.293 166.744L270.297 167.366L272.055 167.355L272.051 166.732ZM269.704 167.383C268.672 167.545 265.986 167.351 265.605 168.668C266.605 168.282 269.315 168.607 269.704 167.383ZM264.423 168.689C263.236 168.51 262.143 168.884 261.007 169.143C260.288 169.307 258.993 168.975 259.148 169.981C260.297 170.103 261.361 169.655 262.458 169.413C263.227 169.243 264.569 169.784 264.423 168.689ZM237.438 176.475C236.856 174.517 235.32 175.8 233.912 175.877L233.915 176.499L237.438 176.475Z" fill="#F0047F" fill-opacity="0.39"/>
<path d="M8.16127 163.412C8.31333 160.113 12.6901 160.64 14.0003 158.305C11.0827 157.363 8.13344 156.369 5.20044 155.468C2.84658 154.745 0.539399 156.185 1.03892 152.039C3.7278 151.168 5.62993 153.623 7.49521 154.237C9.09934 154.764 16.1039 156.906 17.3133 156.968C20.4651 157.129 23.6764 154.241 27.208 154.342C29.6597 154.413 30.6469 155.928 32.5396 156.229C34.6481 156.564 36.2923 155.649 37.7879 155.73C40.338 155.872 43.7998 157.37 46.0353 157.326C51.4094 157.22 59.0598 154.474 63.9548 151.966C65.9666 150.937 67.6148 147.801 70.3715 150.624C70.5801 151.723 69.5837 151.871 68.9452 152.242C60.4695 157.149 49.358 161.044 39.6093 160.669C34.8859 160.487 29.5197 157.117 24.8747 157.576C22.0372 157.855 8.93977 164.141 8.16321 163.407L8.16127 163.412Z" fill="#F0047F" fill-opacity="0.39"/>
<path d="M124.838 24.8522C124.683 29.9063 119.804 34.9962 120.942 40.2956C121.097 41.0164 124.072 46.7904 124.969 45.7958C124.462 44.3004 124.003 42.5528 123.834 40.9706C123.476 37.6198 122.913 33.6587 124.829 30.9659C125.439 30.1087 126.364 30.5153 126.829 31.27C124.385 34.6882 123.156 39.0678 125.154 43.4046C126.699 46.7601 129.435 49.265 132.097 51.6668C134.759 54.0685 137.498 56.5672 139.057 59.9141C140.602 63.2315 140.837 67.0551 141.042 70.7625C141.516 79.2925 141.99 87.8245 142.464 96.3545C142.102 89.8433 139.261 82.6014 138.803 75.6738C138.326 68.4331 137.19 60.6675 132.487 55.4809C129.557 52.2511 125.558 50.4045 122.404 47.4303C116.975 42.3099 117.453 30.9708 122.794 25.5095C123.524 24.7637 123.832 24.7235 124.834 24.8523L124.838 24.8522Z" fill="#F0047F" fill-opacity="0.39"/>
<path d="M272.286 319.346C269.671 321.789 265.868 323.017 262.355 323.174C258.976 323.326 255.329 321.947 253.548 318.84C252.308 316.679 252.125 314.03 251.831 311.506C251.31 307.026 250 302.096 246.355 299.888C244.583 298.816 242.487 298.548 240.647 297.618C236.842 295.696 234.718 291.299 233.164 287.082C232.697 285.815 232.248 284.484 232.363 283.127C232.639 279.84 236.639 277.141 238.521 279.47C239.806 281.062 237.56 286.087 237.559 288.001C237.555 291.521 248.095 296.385 250.802 299.61C254.564 304.096 254.007 307.123 254.997 312.275C257.048 322.932 264.822 319.895 272.288 319.344L272.286 319.346ZM237.503 282.523C234.946 282.521 235.866 285.826 235.777 287.606C237.766 288.029 236.958 283.661 237.503 282.523Z" fill="#F0047F" fill-opacity="0.39"/>
<path d="M151.31 305.785C151.297 305.895 151.266 306.009 151.22 306.13C151.04 306.604 151.208 307.138 151.311 307.639C151.681 309.438 151.098 311.428 149.838 312.668C149.6 311.406 149.667 310.078 150.024 308.848C147.053 307.873 144.636 312.169 145.352 315.435C146.068 318.701 148.473 321.168 150.033 324.07C153.469 330.464 152.366 337.857 150.709 344.627C150.09 347.159 149.425 350.887 148.12 353.125C147.833 353.616 143.151 359.193 143.16 358.391C143.225 352.184 147.598 344.424 148.616 337.645C149.296 333.119 149.469 328.153 147.176 324.295C145.594 321.634 142.929 319.662 142.11 316.626C141.188 313.198 143.394 306.778 146.384 304.975C146.39 304.971 146.396 304.967 146.404 304.964C148.395 303.77 151.517 304.166 151.312 305.787L151.31 305.785Z" fill="#F0047F" fill-opacity="0.39"/>
<path d="M71.0243 255.674C71.3169 255.774 71.2961 257.806 73.2119 256.756C73.2119 256.76 73.2119 256.762 73.2139 256.767C74.7546 262.58 66.3871 267.549 61.975 268.282C58.8822 268.795 55.7351 267.796 52.6129 267.991C48.2724 268.263 44.2657 270.869 41.3185 274.322C38.5619 277.552 36.7335 284.821 33.1521 285.848C32.1562 281.333 35.6622 275.384 38.3844 271.655C40.7898 268.36 44.1534 265.691 48.0001 265.098C51.4807 264.561 54.9875 265.739 58.5048 265.75C60.8719 265.755 63.2415 265.221 65.4082 264.192C66.9282 263.471 68.3993 262.453 69.2579 260.919C70.1165 259.385 70.2071 257.248 69.1249 255.888C69.7515 255.816 70.3781 255.742 71.0047 255.67C71.0125 255.67 71.0203 255.67 71.0282 255.674L71.0243 255.674Z" fill="#F0047F" fill-opacity="0.39"/>
<path d="M237.068 21.5648C237.072 21.5923 237.076 21.6177 237.078 21.641C237.3 23.6399 229.85 29.6658 229.502 33.5294C229.195 36.9142 229.783 40.3184 229.735 43.7206C229.614 52.3032 225.551 61.4542 220.727 68.1081C220.653 67.8673 218.852 66.2727 218.564 66.88C221.009 61.6963 224.12 56.868 226.089 51.4547C228.873 43.8068 224.826 37.2419 226.664 30.3307C227.068 28.8123 234.796 20.8476 237.066 21.567L237.068 21.5648Z" fill="#F0047F" fill-opacity="0.39"/>
<path d="M311.49 100.891C306.876 107.268 298.525 109.594 291.413 111.002C287.777 111.723 284.077 112.298 280.649 113.795C278.332 114.805 269.092 121.671 268.855 124.837C269.915 119.064 276.621 112.295 281.553 110.319C283.543 109.523 285.699 109.396 287.804 109.096C296.12 107.916 303.021 101.162 311.488 100.891L311.49 100.891Z" fill="#F0047F" fill-opacity="0.39"/>
<path d="M279.773 200.656C282.554 200.034 285.93 200.653 288.646 200.707C296.054 200.852 303.575 201.015 310.653 203.381C312.479 203.991 314.467 204.744 316.242 203.97C316.986 203.643 317.548 203.29 318.341 203.224C318.403 206.779 310.432 205.637 307.229 205.074C300.975 203.975 294.679 203.211 288.353 202.825C286.113 202.69 283.855 202.599 281.637 202.968C279.505 203.321 277.646 203.962 275.488 203.869C276.448 201.97 277.989 201.058 279.771 200.658L279.773 200.656Z" fill="#F0047F" fill-opacity="0.39"/>
<path d="M274.274 240.994C273.204 241.217 272.318 240.311 272.505 239.107L274.274 240.994Z" fill="#F0047F" fill-opacity="0.39"/>
<path d="M208.781 7.77907C208.385 6.98578 209.708 5.56072 209.934 5.86616C210.33 6.65944 209.007 8.08451 208.781 7.77907Z" fill="#F0047F" fill-opacity="0.39"/>
<path d="M235.927 217.124L234.753 217.134L234.75 215.868L235.927 217.124Z" fill="#F0047F" fill-opacity="0.39"/>
<path d="M201.433 151.317L200.262 151.329L200.256 150.063L201.433 151.317Z" fill="#F0047F" fill-opacity="0.39"/>
<path d="M290.672 232.64L290.096 232.643L290.104 233.907L290.68 233.903L290.672 232.64Z" fill="#F0047F" fill-opacity="0.39"/>
</svg>
