<?xml version="1.0" encoding="UTF-8"?>
<svg id="Layer_1" data-name="Layer 1" xmlns="http://www.w3.org/2000/svg" xmlns:xlink="http://www.w3.org/1999/xlink" viewBox="0 0 1740.71 1766.67">
  <defs>
    <style>
      .cls-1, .cls-2, .cls-3 {
        fill: none;
      }

      .cls-2, .cls-3 {
        stroke: #77b09f;
        stroke-miterlimit: 10;
      }

      .cls-4 {
        clip-path: url(#clippath-1);
      }

      .cls-5 {
        fill: #ef0a7c;
      }

      .cls-3 {
        stroke-width: 7px;
      }

      .cls-6 {
        clip-path: url(#clippath);
      }
    </style>
    <clipPath id="clippath">
      <rect class="cls-1" x="-2314.91" y="2970.22" width="4285.98" height="2205.35"/>
    </clipPath>
    <clipPath id="clippath-1">
      <path class="cls-2" d="M-183.2-897.97C283.78-275.27,750.75,347.44,1217.73,970.15c215.85,287.84,430.91,575.64,656.72,855.8,126.59,157.05,254.36,313.34,375.64,474.56,110.03,146.27,219.63,292.87,329.45,439.31,277.12,369.53,554.23,739.06,831.35,1108.59-32.5,33.12-64.99,66.24-97.42,99.43-134.83,138.05-267.84,277.84-396.82,421.39-71.86,79.98-143.63,160.14-208.94,245.63-70.28,91.99-134.85,188.25-196.27,286.34-243.76,389.28-439.39,806.45-683.82,1195.33-104.84,166.8-218.38,333.46-358.53,472.93-131.93,131.29-287.34,236.04-448.51,327.9-346.74,197.62-729.71,339.89-1041.36,594.72-174.71,142.85-312.28,325.35-443,507.8-158.9,221.79-304.59,452.7-451.65,682.39-145.62-194.18-291.23-388.35-436.85-582.53-66.22-88.31-130.11-179.11-201.19-263.61-69.64-82.79-146.12-159.45-223.41-235.03-126.43-123.62-254.55-245.82-361.21-387.49-105.39-139.98-210.25-280.36-315.37-420.54-102.71-136.97-210.65-271.47-307.66-412.55-103.04-149.85-183.47-313.77-269.39-473.62-42.74-79.5-86.68-158.48-135.43-234.49-47.58-74.17-101.64-143.73-154.47-214.17-111.52-148.71-223.04-297.42-334.56-446.13-250.1-333.51-500.2-667.02-750.31-1000.52,146-236.99,290.4-475.41,449.91-703.68,127.98-183.14,263.94-366.21,439.35-506.87,311.96-250.16,698.71-376.85,1047.5-563.87,162.49-87.13,319.01-188.46,450.76-318.45,143.69-141.77,247.04-316.25,332.7-497.71,204.51-433.24,318.61-902.88,521.9-1336.63,49.6-105.82,104.89-209.45,170.78-306.1,61.47-90.16,133.95-171.83,212.02-247.92,141.96-138.37,304.06-251.59,473.06-354.26,41.17-25.01,82.64-49.55,124.11-74.07Z"/>
    </clipPath>
  </defs>
  <g class="cls-6">
    <g>
      <g class="cls-4">
        <g>
          <path class="cls-3" d="M2641.45-2082.8c-166.61,190.87-333.22,381.74-499.83,572.62-250.84,287.37-501.68,574.74-752.52,862.1-123.95,142-245.2,284.33-391.81,403.92C853.96-127.24,695.75-31.7,536.89,62.26"/>
          <path class="cls-3" d="M2700.45-2004.13c-166.61,190.87-333.22,381.74-499.83,572.62-250.84,287.37-501.68,574.73-752.52,862.1-123.95,142-245.2,284.33-391.81,403.92-143.33,116.92-301.54,212.46-460.4,306.43"/>
          <path class="cls-3" d="M2759.44-1925.46c-166.61,190.87-333.22,381.74-499.83,572.62-250.84,287.37-501.68,574.73-752.52,862.1-123.95,142-245.2,284.33-391.81,403.92-143.33,116.92-301.54,212.46-460.4,306.43"/>
          <path class="cls-3" d="M2818.44-1846.79c-166.61,190.87-333.22,381.74-499.83,572.62-250.84,287.37-501.68,574.73-752.52,862.1-123.95,142-245.2,284.33-391.81,403.92-143.33,116.92-301.54,212.46-460.4,306.43"/>
          <path class="cls-3" d="M2877.44-1768.12c-166.61,190.87-333.22,381.74-499.83,572.62-250.84,287.37-501.68,574.74-752.52,862.1-123.95,142-245.2,284.33-391.81,403.92-143.33,116.92-301.54,212.46-460.4,306.43"/>
          <path class="cls-3" d="M2936.43-1689.45c-166.61,190.87-333.22,381.74-499.83,572.62-250.84,287.37-501.68,574.74-752.52,862.1-123.95,142-245.2,284.33-391.81,403.92-143.33,116.92-301.54,212.46-460.4,306.43"/>
          <path class="cls-3" d="M2995.43-1610.78c-166.61,190.87-333.22,381.74-499.83,572.62-250.84,287.37-501.68,574.73-752.52,862.1-123.95,142-245.2,284.33-391.81,403.92-143.33,116.92-301.54,212.46-460.4,306.43"/>
          <path class="cls-3" d="M3054.42-1532.11c-166.61,190.87-333.22,381.74-499.83,572.62-250.84,287.37-501.68,574.74-752.52,862.1-123.95,142-245.2,284.33-391.81,403.92-143.33,116.92-301.54,212.46-460.4,306.43"/>
          <path class="cls-3" d="M3113.42-1453.44c-166.61,190.87-333.22,381.74-499.83,572.62-250.84,287.37-501.68,574.74-752.52,862.1-123.95,142-245.2,284.33-391.81,403.92-143.33,116.92-301.54,212.46-460.4,306.43"/>
          <path class="cls-3" d="M3172.41-1374.77c-166.61,190.87-333.22,381.74-499.83,572.62-250.84,287.37-501.68,574.74-752.52,862.1-123.95,142-245.2,284.33-391.81,403.92-143.33,116.92-301.54,212.46-460.4,306.43"/>
          <path class="cls-3" d="M3231.41-1296.1c-166.61,190.87-333.22,381.74-499.83,572.62-250.84,287.37-501.68,574.73-752.52,862.1-123.95,142-245.2,284.33-391.81,403.92-143.33,116.92-301.54,212.46-460.4,306.43"/>
          <path class="cls-3" d="M3290.41-1217.43c-166.61,190.87-333.22,381.74-499.83,572.62-250.84,287.37-501.68,574.74-752.52,862.1-123.95,142-245.2,284.33-391.81,403.92-143.33,116.92-301.54,212.46-460.4,306.43"/>
          <path class="cls-3" d="M3349.4-1138.76c-166.61,190.87-333.22,381.74-499.83,572.62-250.84,287.37-501.68,574.74-752.52,862.1-123.95,142-245.2,284.33-391.81,403.92-143.33,116.92-301.54,212.46-460.4,306.43"/>
          <path class="cls-3" d="M3408.4-1060.09c-166.61,190.87-333.22,381.74-499.83,572.62-250.84,287.37-501.68,574.73-752.52,862.1-123.95,142-245.2,284.33-391.81,403.92-143.33,116.92-301.54,212.46-460.4,306.43"/>
          <path class="cls-3" d="M3467.39-981.42c-166.61,190.87-333.22,381.74-499.83,572.62-250.84,287.37-501.68,574.74-752.52,862.1-123.95,142-245.2,284.33-391.81,403.92-143.33,116.92-301.54,212.46-460.4,306.43"/>
          <path class="cls-3" d="M3526.39-902.75c-166.61,190.87-333.22,381.74-499.83,572.62-250.84,287.37-501.68,574.74-752.52,862.1-123.95,142-245.2,284.33-391.81,403.92-143.33,116.92-301.54,212.46-460.4,306.43"/>
          <path class="cls-3" d="M3585.38-824.08c-166.61,190.87-333.22,381.74-499.83,572.62-250.84,287.37-501.68,574.73-752.52,862.1-123.95,142-245.2,284.33-391.81,403.92-143.33,116.92-301.54,212.46-460.4,306.43"/>
          <path class="cls-3" d="M3644.38-745.41c-166.61,190.87-333.22,381.74-499.83,572.62-250.84,287.37-501.68,574.74-752.52,862.1-123.95,142-245.2,284.33-391.81,403.92-143.33,116.92-301.54,212.46-460.4,306.43"/>
          <path class="cls-3" d="M3703.37-666.74c-166.61,190.87-333.22,381.74-499.83,572.62-250.84,287.37-501.68,574.74-752.52,862.1-124.03,142.09-246.01,283.48-392.62,403.19-143.08,116.83-300.46,213.24-458.5,308.14"/>
          <path class="cls-3" d="M3762.37-588.07c-166.61,190.87-333.22,381.74-499.83,572.62-250.84,287.37-501.68,574.73-752.52,862.1-124.03,142.09-246.73,282.66-392.41,403.38-141.66,117.4-296.68,216.23-452.4,313.63"/>
          <path class="cls-3" d="M3821.37-509.4c-166.61,190.87-333.22,381.74-499.83,572.62-250.84,287.37-501.68,574.73-752.52,862.1-123.91,141.95-246.82,282.47-390.6,405.02-139.3,118.73-290.99,220.88-443.44,321.7"/>
          <path class="cls-3" d="M5.93-645.77c-179.05,105.89-356.67,214.37-513.91,351.56C-655.01-165.93-780.86-19.26-877.92,150.31c-108.44,189.43-189.08,393.8-264.46,598.15-84.78,229.84-161.56,462.67-252.37,690.26-93,233.08-200.36,468.17-365.63,659.73"/>
          <path class="cls-3" d="M64.93-567.1c-179.05,105.89-356.67,214.37-513.91,351.56C-596.01-87.26-721.86,59.41-818.93,228.98c-108.44,189.43-189.08,393.8-264.46,598.15-84.78,229.84-161.56,462.67-252.37,690.26-93,233.08-200.36,468.17-365.63,659.73"/>
          <path class="cls-3" d="M123.92-488.43C-55.12-382.54-232.74-274.05-389.99-136.87-537.02-8.59-662.86,138.08-759.93,307.65c-108.44,189.43-189.08,393.8-264.46,598.15-84.78,229.84-161.56,462.67-252.37,690.26-93,233.08-200.36,468.17-365.63,659.73"/>
          <path class="cls-3" d="M182.92-409.76C3.87-303.87-173.75-195.38-330.99-58.2c-147.03,128.27-272.88,274.94-369.95,444.51-108.44,189.43-189.08,393.8-264.46,598.15-84.78,229.84-161.56,462.67-252.37,690.26-93,233.08-200.36,468.17-365.63,659.73"/>
          <path class="cls-3" d="M241.92-331.09C62.87-225.2-114.75-116.71-272,20.47c-147.03,128.27-272.88,274.94-369.95,444.51-108.44,189.43-189.08,393.8-264.46,598.15-84.78,229.84-161.56,462.67-252.37,690.26-93,233.08-200.36,468.17-365.63,659.73"/>
          <path class="cls-3" d="M300.91-252.42C121.86-146.53-55.76-38.04-213,99.14c-147.03,128.27-272.88,274.94-369.95,444.51-108.44,189.43-189.08,393.8-264.46,598.15-84.78,229.84-161.56,462.67-252.37,690.26-93,233.08-200.36,468.17-365.63,659.73"/>
          <path class="cls-3" d="M359.91-173.75C180.86-67.86,3.24,40.63-154,177.81c-147.03,128.27-272.88,274.94-369.95,444.51-108.44,189.43-189.08,393.8-264.46,598.15-84.78,229.84-161.56,462.67-252.37,690.26-93,233.08-200.36,468.17-365.63,659.73"/>
          <path class="cls-3" d="M418.9-95.08C239.85,10.81,62.24,119.3-95.01,256.48c-147.03,128.27-272.88,274.94-369.95,444.51-108.44,189.43-189.08,393.8-264.46,598.15-84.78,229.84-161.56,462.67-252.37,690.26-93,233.08-200.36,468.17-365.63,659.73"/>
          <path class="cls-3" d="M477.9-16.41C298.85,89.48,121.23,197.97-36.01,335.15c-147.03,128.27-272.88,274.94-369.95,444.51-108.44,189.43-189.08,393.8-264.46,598.15-84.78,229.84-161.56,462.67-252.37,690.26-93,233.08-200.36,468.17-365.63,659.73"/>
          <path class="cls-3" d="M536.89,62.26C357.85,168.15,180.23,276.64,22.98,413.82c-147.03,128.27-272.88,274.94-369.95,444.51-108.44,189.43-189.08,393.8-264.46,598.15-84.78,229.84-161.56,462.67-252.37,690.26-93,233.08-200.36,468.17-365.63,659.73"/>
          <path class="cls-3" d="M595.89,140.93C416.84,246.82,239.22,355.31,81.98,492.49c-147.03,128.27-272.88,274.94-369.95,444.51-108.44,189.43-189.08,393.8-264.46,598.15-84.78,229.84-161.56,462.67-252.37,690.26-93,233.08-200.36,468.17-365.63,659.73"/>
          <path class="cls-3" d="M654.88,219.6c-179.05,105.89-356.67,214.37-513.91,351.56C-6.06,699.44-131.9,846.11-228.97,1015.68c-108.44,189.43-189.08,393.8-264.46,598.15-84.78,229.84-161.56,462.67-252.37,690.26-93,233.08-200.36,468.17-365.63,659.73"/>
          <path class="cls-3" d="M713.88,298.27c-179.05,105.89-356.67,214.37-513.91,351.56-147.03,128.27-272.88,274.94-369.95,444.51-108.44,189.43-189.08,393.8-264.46,598.15-84.78,229.84-161.56,462.67-252.37,690.26-93,233.08-200.36,468.17-365.63,659.73"/>
          <path class="cls-3" d="M772.88,376.94c-179.05,105.89-356.67,214.37-513.91,351.56C111.93,856.78-13.91,1003.45-110.98,1173.02c-108.44,189.43-189.08,393.8-264.46,598.15-84.78,229.84-161.56,462.67-252.37,690.26-93,233.08-200.36,468.17-365.63,659.73"/>
          <path class="cls-3" d="M831.87,455.61c-179.05,105.89-356.67,214.37-513.91,351.56-147.03,128.27-272.88,274.94-369.95,444.51-108.44,189.43-189.08,393.8-264.46,598.15-84.78,229.84-161.56,462.67-252.37,690.26-93,233.08-200.36,468.17-365.63,659.73"/>
          <path class="cls-3" d="M890.87,534.28c-179.05,105.89-356.67,214.37-513.91,351.56C229.93,1014.12,104.08,1160.79,7.01,1330.36c-108.44,189.43-189.08,393.8-264.46,598.15-84.78,229.84-161.56,462.67-252.37,690.26-93,233.08-200.36,468.17-365.63,659.73"/>
          <path class="cls-3" d="M949.86,612.95c-179.05,105.89-356.67,214.37-513.91,351.56-147.03,128.27-272.88,274.94-369.95,444.51-108.44,189.43-189.08,393.8-264.46,598.15-84.78,229.84-161.56,462.67-252.37,690.26-93,233.08-200.36,468.17-365.63,659.73"/>
          <path class="cls-3" d="M1008.86,691.62c-179.05,105.89-356.67,214.37-513.91,351.56-147.03,128.27-272.88,274.94-369.95,444.51-108.44,189.43-189.08,393.8-264.46,598.15-84.78,229.84-161.56,462.67-252.37,690.26-93,233.08-200.36,468.17-365.63,659.73"/>
          <path class="cls-3" d="M1067.85,770.29c-179.05,105.89-356.67,214.37-513.91,351.56-147.03,128.27-272.88,274.94-369.95,444.51-108.44,189.43-189.08,393.8-264.46,598.15-84.78,229.84-161.56,462.67-252.37,690.26-93,233.08-200.36,468.17-365.63,659.73"/>
          <path class="cls-3" d="M1126.85,848.96c-179.05,105.89-356.67,214.37-513.91,351.56-147.03,128.27-272.88,274.94-369.95,444.51-108.44,189.43-189.08,393.8-264.46,598.15-84.78,229.84-161.56,462.67-252.37,690.26-93,233.08-200.36,468.17-365.63,659.73"/>
          <path class="cls-3" d="M1185.84,927.63c-179.05,105.89-356.67,214.37-513.91,351.56-147.03,128.27-272.88,274.94-369.95,444.51-108.44,189.43-189.08,393.8-264.46,598.15-84.78,229.84-161.56,462.67-252.37,690.26-93,233.08-200.36,468.17-365.63,659.73"/>
          <path class="cls-3" d="M1244.84,1006.3c-179.05,105.89-356.67,214.37-513.91,351.56-147.03,128.27-272.88,274.94-369.95,444.51-108.44,189.43-189.08,393.8-264.46,598.15-84.78,229.84-161.56,462.67-252.37,690.26-93,233.08-200.36,468.17-365.63,659.73"/>
          <path class="cls-3" d="M1303.84,1084.97c-179.05,105.89-356.67,214.37-513.91,351.56-147.03,128.27-272.88,274.94-369.95,444.51-108.44,189.43-189.08,393.8-264.46,598.15-84.78,229.84-161.56,462.67-252.37,690.26-93,233.08-200.36,468.17-365.63,659.73"/>
          <path class="cls-3" d="M1362.83,1163.64c-179.05,105.89-356.67,214.37-513.91,351.56-147.03,128.27-272.88,274.94-369.95,444.51-108.44,189.43-189.08,393.8-264.46,598.15-84.78,229.84-161.56,462.67-252.37,690.26-93,233.08-200.36,468.17-365.63,659.73"/>
          <path class="cls-3" d="M1421.83,1242.31c-179.05,105.89-356.67,214.37-513.91,351.56-147.03,128.27-272.88,274.94-369.95,444.51-108.44,189.43-189.08,393.8-264.46,598.15-84.78,229.84-161.56,462.67-252.37,690.26-93,233.08-200.36,468.17-365.63,659.73"/>
          <path class="cls-3" d="M1480.82,1320.98c-179.05,105.89-356.67,214.37-513.91,351.56-147.03,128.27-272.88,274.94-369.95,444.51-108.44,189.43-189.08,393.8-264.46,598.15-84.78,229.84-161.56,462.67-252.37,690.26-93,233.08-200.36,468.17-365.63,659.73"/>
          <path class="cls-3" d="M1539.82,1399.65c-179.05,105.89-356.67,214.37-513.91,351.56-147.03,128.27-272.88,274.94-369.95,444.51-108.44,189.43-189.08,393.8-264.46,598.15-84.78,229.84-161.56,462.67-252.37,690.26-93,233.08-200.36,468.17-365.63,659.73"/>
          <path class="cls-3" d="M1599.9,1479.31c-178.78,107.32-356.09,217.19-513.66,354.69-146.74,128.04-271.03,272.93-367.84,442.26-108.64,190.03-190.11,394.65-266.45,599.33-85.8,230.06-163.8,463.07-255.67,690.84-93.38,231.53-200.72,464.58-363.78,656.11"/>
          <path class="cls-3" d="M1665.21,1563.66c-176.21,110.18-350.91,222.76-507.24,360.47-69.75,61.44-137.57,126.74-198.39,197.12-64.93,75.13-119.89,159.29-169.41,245.16-109.06,189.11-192.26,392.28-270.57,595.62-87.87,228.17-168.32,459.24-261.96,685.17-95.52,230.46-204.36,461.86-366.13,653.99"/>
          <path class="cls-3" d="M1734.98,1652.03c-171.78,113.59-342.07,229.35-495.55,367.3-69.39,62.36-136.69,128.21-198.01,198.59-65.37,75.04-120.89,159.19-171.31,244.79-110.74,188-196.73,389.82-278.04,591.89-90.25,224.3-173.57,451.42-269.2,673.53-98.82,229.52-210.41,459.44-372.39,651.74"/>
          <path class="cls-3" d="M1807.88,1743.23c-167.35,118.22-333.22,238.41-483.69,377.98-142.78,132.43-268.15,276.59-369.17,443.51-112.43,185.78-201.58,384.92-286.19,584.55-93.73,221.14-180.88,445.11-279.71,664.06-102.56,227.2-217.35,454.17-379.63,645.22"/>
        </g>
      </g>
      <path class="cls-2" d="M-183.2-897.97C283.78-275.27,750.75,347.44,1217.73,970.15c215.85,287.84,430.91,575.64,656.72,855.8,126.59,157.05,254.36,313.34,375.64,474.56,110.03,146.27,219.63,292.87,329.45,439.31,277.12,369.53,554.23,739.06,831.35,1108.59-32.5,33.12-64.99,66.24-97.42,99.43-134.83,138.05-267.84,277.84-396.82,421.39-71.86,79.98-143.63,160.14-208.94,245.63-70.28,91.99-134.85,188.25-196.27,286.34-243.76,389.28-439.39,806.45-683.82,1195.33-104.84,166.8-218.38,333.46-358.53,472.93-131.93,131.29-287.34,236.04-448.51,327.9-346.74,197.62-729.71,339.89-1041.36,594.72-174.71,142.85-312.28,325.35-443,507.8-158.9,221.79-304.59,452.7-451.65,682.39-145.62-194.18-291.23-388.35-436.85-582.53-66.22-88.31-130.11-179.11-201.19-263.61-69.64-82.79-146.12-159.45-223.41-235.03-126.43-123.62-254.55-245.82-361.21-387.49-105.39-139.98-210.25-280.36-315.37-420.54-102.71-136.97-210.65-271.47-307.66-412.55-103.04-149.85-183.47-313.77-269.39-473.62-42.74-79.5-86.68-158.48-135.43-234.49-47.58-74.17-101.64-143.73-154.47-214.17-111.52-148.71-223.04-297.42-334.56-446.13-250.1-333.51-500.2-667.02-750.31-1000.52,146-236.99,290.4-475.41,449.91-703.68,127.98-183.14,263.94-366.21,439.35-506.87,311.96-250.16,698.71-376.85,1047.5-563.87,162.49-87.13,319.01-188.46,450.76-318.45,143.69-141.77,247.04-316.25,332.7-497.71,204.51-433.24,318.61-902.88,521.9-1336.63,49.6-105.82,104.89-209.45,170.78-306.1,61.47-90.16,133.95-171.83,212.02-247.92,141.96-138.37,304.06-251.59,473.06-354.26,41.17-25.01,82.64-49.55,124.11-74.07Z"/>
    </g>
  </g>
  <g>
    <path class="cls-5" d="M762.82,753.48c11.68-10.21,24.77-18.76,38.96-25.13,42.2-18.95,93.68-17.43,133.31,6.43,78.52,47.29,90.62,187.47-.36,229.26-42.9,19.71-94.9,12.29-135.91-11.09-17.77-10.13-34.68-24.1-41.58-43.35-4.44-12.37-4.36-25.92-2.8-38.97,5.65-47.31,33.28-94.03,77.27-112.34,43.99-18.31,102.88.12,120.43,44.42,8.25,20.82,7.04,44.31,1.91,66.11-3.06,13-7.67,26.05-16.54,36.03-9.83,11.06-24.28,17.42-38.98,19.14-28.59,3.33-59.13-11.97-71.34-38.04-12.2-26.07-3.14-60.97,21.5-75.84s61.52-5.06,73.56,21.09c-4.99-2.92-9.99-5.83-14.98-8.75-24.65-18.76-66.58-4.01-74.06,26.05-7.29,29.29,18.74,60.69,48.86,62.57s58.43-22.31,65.29-51.7c6.85-29.39-5.65-61.33-27.85-81.78-10.46-9.64-23.17-17.15-37.11-19.97-22.41-4.53-46.1,3.63-63.95,17.92-17.85,14.29-30.47,34.14-40.2,54.83-11.01,23.38-18.69,50.83-8.85,74.72,19.44,47.2,88.16,63.51,133.47,55.59,19.79-3.46,39.21-11.44,53.69-25.37,18.83-18.12,27.64-44.82,28.58-70.95,2.91-80.95-52.51-152.62-139.48-139-46.9,7.35-87.71,40.23-110.4,81.93-21.01,38.61-27.44,85.95-12.82,127.39,41.45,117.46,244.71,116.56,304.27,15.3,33.66-57.23,25.2-129.63-12.07-180.9-17.02-23.41-73.17-76.54-101.74-81.61-7.14-1.27-12.04,2.15-16.86,1.66-13.43-1.39-28.15-9.4-42.13-8.15-15.4,1.38-23.57,2.5-38.98,2.95-1.78.05-1.25,5.03-3.92,5.88-45.1,14.35-81.14,46.64-108.24,86.19-36.82,53.76-35.54,112.78-44.03,174.9-4.98-3.4-4.3-8.18-4.67-13.3-8.22-113.22,47.81-236.23,168.15-260,63.22-12.49,132.04,8.21,177.89,53.49,77.03,76.08,81.45,211.19-12.9,275.03-127.31,86.14-330.78-9.5-274.78-176.72,9.75-29.12,27.34-55.74,50.4-75.89Z"/>
    <path class="cls-5" d="M1039.2,1445.75c1.47,8.65,2.98,17.29,4.59,25.91,14.6,78.29,37.16,155.1,67.21,228.85,3.68,9.04,7.56,18.63,6.04,28.28s-10.83,18.77-20.26,16.23c5.33,6.02,4.66,16.37-1.41,21.65-15.52-32.72-29.73-66.06-42.57-99.92-40.61-107.07-67.4-218.79-94.08-330.15-13.91-58.08-61.76-161.5-43.4-219.6,41.64,6.09,83.64,147.27,94.78,184.5,14.08,47.03,20.87,95.81,29.09,144.25ZM927.11,1133.78l-4.51-5.9h-4.44s.01,11.95.01,11.95l8.93-6.05ZM933.11,1190.82c.64-10.68.68-25.87-8.94-32.96-.71,5.2.33,10.04,1.34,15.11.73,3.68,3.69,16.61,7.6,17.85ZM1080.08,1673.73c-2.7-13.97-5.5-29.1-9.86-42.61-1.01-3.14-.75-9.05-5.07-8.35l14.94,50.96ZM1095.07,1718.74l-5.92-22.54-9.02-19.43c2.74,13.25,4.41,32.65,14.94,41.97Z"/>
    <path class="cls-5" d="M559.26,943.85c4.12,4.16,8.25,8.33,12.37,12.49-117.93,48.71-238.78,45.9-362.56,63.65-68.73,9.85-136.23,26.71-203.59,43.54,4.94-30.73,64.54-41.13,88.14-48.47,86.02-26.78,172.17-53.58,260.18-72.86,80.18-17.56,174.73-42.66,256.81-39.67,9.92.36-49.45,39.8-51.65,41.02.1.1.2.2.3.3ZM492.24,926.92l-32.96,5.94c5.37.31,10.72.2,16.1-.35,3.41-.35,16.48-1.34,16.86-5.59ZM546.22,926.91c-3.67-.69-15.35,4.4-11.96,5.95,3.67.69,15.35-4.4,11.96-5.95ZM531.23,932.91h-5.97v2.94h5.97v-2.94ZM513.23,938.91h-11.97v2.94h11.97v-2.94ZM357.27,947.91l-17.96,3v2.94s17.96-3,17.96-3v-2.94ZM336.27,953.91c-22.96,6.35-47.45,8.45-70.3,15.13-4.42,1.29-15.34,3.85-16.64,8.81,23.54-6.79,48.43-9.83,72.01-16.43,3.93-1.1,14.36-2.84,14.94-7.52ZM489.24,968.91h-8.97v2.94h8.97v-2.94ZM339.28,989.9h-14.97v2.94h14.97v-2.94ZM261.29,995.9l-80.95,17.93,42.6-6.84,38.35-11.09ZM177.32,1013.9h-8.97v2.94h8.97v-2.94Z"/>
    <path class="cls-5" d="M905.67,622.42c-6.87.75-13.99-.87-19.46-5.14-3.74-43.87-6.05-68.58,8.69-111.63,15.52-45.32,23.22-93.32,22.64-141.22-.49-40.83-6.9-81.95-.47-122.27,5.97-37.4,22.89-71.37,33.75-107.34,11.55-38.29,13.9-78.45,21.99-117.59.9-4.35,7.21-18.36,12.78-17.15,9.3,2.01,1.46,20.4,1.41,25.61-1.99,190.93-13.72,378.82-54.66,565.92-1.52,6.95-3.16,14.1-7.26,19.91-4.44,6.3-11.77,10.07-19.41,10.9ZM957.11,168.01v-5.97h-2.94v5.97h2.94ZM954.11,189.01v-14.97h-2.94v14.97h2.94ZM966.1,222l3-47.96-5.94,28.51,2.94,19.46ZM924.18,249.01c9.22-5.83,6.74-23.34,8.94-32.98-4.82.49-6.24,11.59-7,15.45-1.15,5.84-2.75,11.47-1.94,17.53ZM957.17,276l6.13-7.5-4.67-7.48-1.45,14.98ZM939.11,353.98l3-59.97c-12.45,7.09-9.61,27.5-8.59,40.12.31,3.83,1.67,18.44,5.59,19.86ZM969.1,314.98v-11.97h-2.94v11.97h2.94ZM963.11,359.97v-8.97h-2.94v8.97h2.94ZM918.12,515.95v-5.97h-2.94v5.97h2.94ZM891.12,563.93l3.01-23.96c-4.28-.29-4.14,11.54-4.48,14.99-.32,3.14-4.38,9.59,1.48,8.97ZM912.12,599.93v-5.97h-2.94v5.97h2.94Z"/>
    <path class="cls-5" d="M283.44,391.82c16.16,14.7,37.85,26.67,54.29,40.22,17.39,14.34,31.04,32.91,49.74,46.24,27.11,19.31,62.5,34.98,90.78,53.19,57.34,36.92,104.87,78.55,156.54,122.4,4.73,4.01,13.35,7.3,16.53,10.71,4.03,4.32.44,8.62,2.21,12.47,2,4.35,15.24,22.56,12.67,24.86-18.05,2.35-15.59-15.61-34.53-17.94l-2.96,9.02c-8.57.32-16-2.98-23.44-6.6-29.4-14.29-66.76-43.83-95.74-62.56-54.95-35.52-91.72-61.81-141.68-104.95-56.95-49.18-125.91-103.26-160.54-164.76-18.41-.89-20.11-21.52-31.71-32.9-4.45-4.37-12.82-5.97-14.93-9.24-.94-1.47-3.9-35.11,4.76-31.67,12.37,5.78,15.8,19.27,25.26,28.82,13.65,13.79,37,26.15,52.66,40.32,14.46,13.07,25.75,29.33,40.08,42.37ZM204.32,335.96l-5.97-5.97v5.98s5.97-.01,5.97-.01ZM297.3,437.95c-12.84-16.06-28.09-30.3-44.96-41.96l14.92,19.54,30.03,22.42ZM378.28,491.94l-23.99-17.94c5.15,7.96,13.89,17.44,23.99,17.94ZM438.26,554.92c1.46-1.14-5.24-7.94-9-5.94-1.46,1.14,5.24,7.94,9,5.94ZM450.25,560.98h-5.97v2.94h5.97v-2.94ZM513.23,605.97h-5.97v2.94h5.97v-2.94ZM564.23,644.91c-13.29-13.61-30.5-25.26-47.99-32.94,13.52,12.94,30.76,25.34,47.99,32.94ZM576.22,650.97h-5.97v2.94h5.97v-2.94ZM594.21,662.96h-5.97v2.94h5.97v-2.94ZM636.22,668.9c1.46-1.14-5.24-7.94-9-5.94-1.46,1.14,5.24,7.94,9,5.94ZM645.2,671.95h-5.97s.01,4.44.01,4.44l4.48,4.53,1.47-8.97Z"/>
    <path class="cls-5" d="M1455.14,238.99c-3.26,32.28-46.44,56.37-66.29,80.43-45.61,55.3-81.36,118.03-124.85,175.02-38.8,50.85-128.37,184.72-200.57,184.1-38.26-.33-11.37-27.14,3.62-49.81,23.66-35.79,50.18-69.61,78.32-101.97,54.99-63.25,116.29-120.64,177.43-177.83,37.91-35.47,75.82-70.93,113.73-106.4,5.24-4.9,12.32-6.17,18.62-3.54ZM1359.07,344.99c4.89-2.16,9.92-6.59,8.94-12-4.89,2.16-9.92,6.59-8.94,12ZM1266.06,441c-5.47-1.02-9.96,3.29-8.97,8.97l8.97-8.97ZM1239.1,503.96c9.8-7.04,21.06-17.78,23.94-29.99-9.8,7.04-21.06,17.78-23.94,29.99ZM1110.13,587.95c9.76-7.43,19.28-18.93,26.89-28.57,5.14-6.51,13.12-14.58,15.04-22.42-9.54,8.48-18.82,18.73-26.89,28.57-5.11,6.23-13.13,14.76-15.04,22.42ZM1170.07,569.93v-5.98s-5.97,4.51-5.97,4.51l5.97,1.47ZM1071.12,656.92c4.21,4.4,20.11-15.95,3.01-14.97l-3.01,14.97Z"/>
    <path class="cls-5" d="M723.18,1076.87v.15c.02,43.49-6.31,66.69-36.35,106.86-35.75,47.81-81.96,86.61-120.59,131.93-40.44,47.44-72.11,101.33-109.37,151.14-38.83,51.9-89.25,89.15-131.32,137.57-2.99,3.44-4.64,7.39-10.24,6.22l6.01-16.55-6.16-2.95c7.21,3.45,50.8-66.43,56.33-73.58,4.4-5.69,9.69-10.61,14.85-15.63,67.87-66.15,112.37-150.78,164.4-228.91,25.8-38.73,53.29-76.71,86.44-109.55,20.82-20.62,60.39-77.62,86-86.7ZM612.22,1214.8c11.35-4.51,25.01-18.99,33-28.46,2.84-3.37,7.27-4.88,5.96-10.51l-38.96,38.96Z"/>
    <path class="cls-5" d="M1145.14,1029.25c8.85,3.27,17.79,6.47,27.55,10.73,48.71,21.29,96.35,67.66,139.87,98.43,58.13,41.1,116.14,82.37,174.03,123.81,34.77,24.89,121.27,63.53,133.58,106.48-2.93,2.24-5.82,1.81-9.39.85-9.51-2.67-27.58-21.78-37.83-28.21-88.99-55.85-195.79-75.76-275.57-147.56-38.8-34.93-78.67-68.64-118.12-102.82-18.59-16.1-38.34-31.63-55.76-49-5.67-5.65-22.94-33.43-23.91-34.06,16.99,10.55,31.14,16.04,45.55,21.36ZM1212.07,1082.83c-1.94-5.63-9.31-8.76-14.98-8.94-2.57,1.2,10.85,9.66,14.98,8.94ZM1338.03,1208.86h-5.97v2.94h5.97v-2.94Z"/>
    <path class="cls-5" d="M1740.71,717.98c-24.12,14.33-65.37,6.29-94.4,14.79-107.52,31.51-221.85,74.48-334.04,82.88-11.81.88-190.14,38.8-117.92-7.59,43.7-28.07,115.2-38.3,165.22-50.88,111.78-28.1,226.5-44.51,341.68-48.7,14.68-.53,28.45-.25,39.46,9.49ZM1592.96,731.95l-24.77.68-20.19,8.26,15.65-.8,29.31-8.13ZM1428,776.94c-5.68,1.87-18.56,2.87-20.95,8.95,5.66-1.87,18.45-2.82,20.95-8.95ZM1383.02,782.94h-8.97v2.94h8.97v-2.94ZM1371.02,785.94c-5.27.73-18.97-.27-20.96,5.94,5.12-1.79,18.94-.17,20.96-5.94ZM1344.03,791.94c-6.05-.88-11.64.85-17.45,2.04-3.67.75-10.27-.86-9.51,3.9,5.86.61,11.3-1.47,16.91-2.58,3.93-.78,10.76,1.82,10.05-3.36ZM1206.07,827.87c-2.91-9.27-10.79-3.26-17.98-2.94v2.94s17.98,0,17.98,0Z"/>
    <path class="cls-5" d="M36.38,758.9c.88-15.58,23.2-12.95,29.96-23.94-14.86-4.54-29.88-9.33-44.82-13.68-11.99-3.49-23.81,3.24-21.13-16.33,13.75-4.03,23.38,7.63,32.88,10.59,8.17,2.54,43.85,12.88,50.02,13.21,16.08.86,32.56-12.68,50.58-12.09,12.51.41,17.5,7.6,27.15,9.08,10.75,1.65,19.17-2.62,26.8-2.19,13.01.75,30.63,7.94,42.04,7.8,27.43-.33,66.56-13.06,91.62-24.75,10.3-4.8,18.81-19.56,32.79-6.14,1.03,5.2-4.06,5.87-7.33,7.6-43.41,22.91-100.24,40.96-149.98,38.88-24.1-1.01-51.38-17.1-75.1-15.08-14.49,1.23-81.53,30.51-85.47,27.02Z"/>
    <path class="cls-5" d="M636.2,108.05c-.95,23.87-26.01,47.76-20.37,72.83.77,3.41,15.77,30.78,20.38,26.11-2.54-7.08-4.83-15.35-5.64-22.83-1.72-15.84-4.47-34.57,5.39-47.23,3.14-4.03,7.85-2.08,10.2,1.5-12.58,16.07-18.99,36.72-8.93,57.27,7.78,15.9,21.66,27.82,35.17,39.25,13.51,11.43,27.41,23.32,35.26,39.18,7.78,15.72,8.86,33.79,9.79,51.31,2.15,40.31,4.3,80.63,6.45,120.94-1.64-30.77-15.91-65.07-18.03-97.81-2.21-34.22-7.76-70.94-31.6-95.59-14.85-15.35-35.2-24.2-51.2-38.35-27.55-24.36-24.75-77.91,2.68-103.54,3.75-3.5,5.32-3.68,10.43-3.04Z"/>
    <path class="cls-5" d="M1379.41,1503.88c-13.42,11.46-32.87,17.14-50.8,17.77-17.25.61-35.82-6.02-44.81-20.75-6.26-10.25-7.11-22.77-8.53-34.7-2.52-21.18-9.05-44.51-27.58-55.06-9.01-5.12-19.7-6.45-29.06-10.9-19.36-9.2-30.06-30.04-37.86-50.01-2.34-6-4.59-12.3-3.96-18.71,1.51-15.52,22.01-28.14,31.54-17.08,6.51,7.56-5.11,31.23-5.18,40.27-.13,16.63,53.51,39.94,67.22,55.26,19.06,21.31,16.12,35.59,21.01,59.96,10.13,50.41,49.9,36.31,88.02,33.94ZM1203.06,1328.83c-13.05-.09-8.46,15.55-8.97,23.96,10.14,2.06,6.15-18.6,8.97-23.96Z"/>
    <path class="cls-5" d="M762.44,1435.99c-.07.52-.23,1.06-.47,1.63-.93,2.23-.09,4.76.42,7.13,1.83,8.51-1.21,17.89-7.68,23.71-1.17-5.97-.79-12.24,1.07-18.04-15.13-4.7-27.6,15.52-24.05,30.97,3.55,15.44,15.75,27.18,23.62,40.94,17.33,30.31,11.47,65.2,2.8,97.13-3.24,11.94-6.75,29.53-13.48,40.06-1.48,2.31-25.55,28.51-25.48,24.72.53-29.32,23.09-65.84,28.5-97.83,3.61-21.36,4.65-44.81-6.93-63.11-7.99-12.62-21.53-22.02-25.61-36.39-4.6-16.22,6.86-46.48,22.18-54.9.03-.02.06-.04.1-.05,10.2-5.58,26.12-3.61,25.02,4.04Z"/>
    <path class="cls-5" d="M354.29,1196.73c1.49.48,1.32,10.08,11.13,5.18,0,.02,0,.03.01.05,7.68,27.51-35.18,50.72-57.72,54.04-15.8,2.33-31.83-2.49-47.77-1.67-22.16,1.15-42.69,13.33-57.84,29.55-14.17,15.17-23.73,49.45-42.04,54.19-4.94-21.36,13.14-49.35,27.15-66.88,12.38-15.49,29.63-27.99,49.28-30.67,17.78-2.43,35.64,3.25,53.59,3.41,12.08.1,24.19-2.35,35.28-7.14,7.78-3.36,15.32-8.12,19.75-15.34,4.43-7.22,4.96-17.31-.52-23.77,3.2-.32,6.4-.65,9.6-.97.04,0,.08,0,.12.02Z"/>
    <path class="cls-5" d="M1209.06,96.07c.02.13.04.25.05.36,1.07,9.45-37.14,37.68-39.04,55.92-1.67,15.98,1.22,32.08.87,48.15-.89,40.54-21.91,83.64-46.74,114.92-.37-1.14-9.51-8.73-11-5.87,12.64-24.41,28.67-47.12,38.89-72.63,14.45-36.04-6-67.18,3.6-99.77,2.11-7.16,41.8-44.54,53.36-41.07Z"/>
    <path class="cls-5" d="M1586.38,473.16c-23.75,29.98-66.44,40.7-102.78,47.13-18.58,3.29-37.48,5.89-55.02,12.85-11.86,4.7-59.23,36.84-60.54,51.79,5.59-27.24,40.03-59,65.26-68.18,10.18-3.7,21.19-4.23,31.94-5.58,42.48-5.31,77.91-37,121.13-38.01Z"/>
    <path class="cls-5" d="M1421.36,943.44c14.21-2.85,31.42.18,45.28.52,37.8.92,76.18,1.93,112.23,13.33,9.3,2.94,19.42,6.56,28.5,2.96,3.81-1.52,6.69-3.17,10.74-3.46.2,16.8-40.44,11.15-56.77,8.39-31.88-5.39-63.99-9.2-96.26-11.22-11.43-.71-22.95-1.21-34.28.46-10.89,1.6-20.4,4.57-31.41,4.06,4.96-8.94,12.85-13.2,21.96-15.03Z"/>
    <path class="cls-5" d="M1392.03,1133.82c-5.47,1.02-9.96-3.29-8.97-8.97l8.97,8.97Z"/>
    <path class="cls-5" d="M1065.14,30.05c-2-3.76,4.8-10.45,5.94-9,2,3.76-4.8,10.45-5.94,9Z"/>
    <polygon class="cls-5" points="1197.08 1019.84 1191.09 1019.85 1191.11 1013.87 1197.08 1019.84"/>
    <polygon class="cls-5" points="1023.12 707.89 1017.14 707.91 1017.15 701.93 1023.12 707.89"/>
    <rect class="cls-5" x="1473.04" y="1094.87" width="2.94" height="5.97"/>
  </g>
</svg>