<?xml version="1.0" encoding="UTF-8"?>
<svg id="Layer_1" xmlns="http://www.w3.org/2000/svg" baseProfile="tiny" version="1.2" viewBox="0 0 1740.7 1766.7">
  <path d="M764.9,752.6c147.6-147,351.9,149.8,149.6,218.1-61.4,15.8-156.2-13-161.4-86.7-9.3-124.5,187.5-192.7,204.7-51.9,28.1,109.7-170.1,123.3-127.4,6.6,25.7-73.5,123.6.7,59.4-23-46.6-9.6-77.1,61.1-33.3,85.2,108.1,45.6,118.4-123.3,24.6-143.5-255.9,37.4-10.5,352.3,96.9,137.2,48.8-151.6-143.6-229-229.7-109.2-149.4,188.5,190.1,343,286,150.5,87-318.2-398.5-324.8-375.5-6.7-65.6-155.9,245.7-389.6,368-159.3,211.5,348.9-549.3,333.2-262-17.3Z" fill="#ef0a7c"/>
  <path d="M1038.4,1444.9c188.9,698.1-120.2-72.5-122.6-310.2,43.8-62.7,122.9,260.9,122.6,310.2ZM926.3,1133.4c-1.1-13.5-14.7-.9-7.3,5.6,3.3,1.2,6.8-2.5,7.3-5.6ZM932.1,1190.7c3.2-5.6.7-30.9-6.9-32.4-2.9,3.5,2.2,32.7,6.9,32.4ZM1080.3,1673.3c-2.1-10.7-6.7-41.4-14.3-50.5.6,13.5,10.8,37.7,14.3,50.5ZM1094.4,1718.9c1.1-8.7-8.6-35.3-14.2-41.8-.2,9.5,6.3,36.2,14.2,41.8Z" fill="#ef0a7c"/>
  <path d="M561.8,943.1c-114,95.1-393.1,58.8-554.7,116.5,33.7-51.3,685.2-232.6,554.7-116.5ZM492.6,928c-8.3-1.1-24.5,2.5-32.9,5.1,4,1.2,28.2-.5,32.9-5.1ZM546.2,926.9c-2.4-1.5-18.6,5.6-9.7,5.9,2.5-.5,11.7-2.7,9.7-5.9ZM531,933.6c-.9-.6-2.6-.9-3.8-.6-6.8,2.1,5.6,4.8,3.8.6ZM513.1,939.9c-2.1-1.1-11.9-2.2-11.6.9,1.1,1,11.7,2.5,11.6-.9ZM357.5,948.5c-3.1-1.7-19.1,1-17.8,5,5.2.8,16.3-.9,17.8-5ZM336.3,954.1c-22.6,4.9-78,8.7-83.7,23.5,27.3-7.6,60.6-7.8,83.7-23.5ZM489.3,969.7c-1.2-.9-3.9-1.1-5.6-.9-10.8,1.9,6.9,5.6,5.6.9ZM339.3,990.9c-2.1-1.3-16.1-2.1-14.4,1.1,3.7,1.2,13.5,1.9,14.4-1.1ZM261.1,996.2c-22.3,4.4-58.6,12.2-80,17.7,23.3-3.2,56.9-10.2,80-17.7ZM177.3,1014.7c-1.2-.9-3.9-1.1-5.6-.9-10.8,1.9,6.9,5.6,5.6.9Z" fill="#ef0a7c"/>
  <path d="M903.8,621.4c-60.8-33.5,12-154.2,13.9-216.6-19.7-137.9,31-265.1,59.8-398.3,14.3,150.3,18.4,462.4-73.7,614.9ZM956.4,167.8c.6-.9.9-2.6.6-3.8-2.1-6.8-4.8,5.6-.6,3.8ZM953.1,189c1.3-2.1,2.1-16.1-1.1-14.4-1.2,3.7-1.9,13.5,1.1,14.4ZM965.4,222c2.6-10.4,3.7-36,3.3-47.8-3.4,10.6-6.4,36.4-3.3,47.8ZM925.4,249c4.9.3,9.4-28.9,6.7-32.5-6.4,1.7-10.2,26.7-6.7,32.5ZM958.2,276.1c4.8-1.4,4.7-15.2,1.3-15-2.2.7-3.6,14.3-1.3,15ZM938,353.7c3.3-14.2,5.4-44.5,2.5-59.9-12.4,11.1-10.1,45-2.5,59.9ZM968.2,314.9c1.1-2.1,2.2-11.9-.9-11.6-1,1.1-2.5,11.7.9,11.6ZM962.3,360c.9-1.2,1.1-3.9.9-5.6-1.9-10.8-5.6,6.9-.9,5.6ZM917.4,515.7c.6-.9.9-2.6.6-3.8-2.1-6.8-4.8,5.6-.6,3.8ZM889.9,564.2c2.2.2,7-31.5,2.2-22.4-1.7,4.2-6.2,18-2.2,22.4ZM911.4,599.7c.6-.9.9-2.6.6-3.8-2.1-6.8-4.8,5.6-.6,3.8Z" fill="#ef0a7c"/>
  <path d="M282.5,389.4c32.2,45.2,454.4,299,363.3,304.5C503.1,718.1-95.5,45.2,282.5,389.4ZM203.7,336.2c.7-1.5-4-6.3-5.6-5.5-2.2,2.8,2.8,7.7,5.6,5.5ZM297.1,437.9c-1.5-6-38.6-41.6-44.8-41.7,8,15.1,30.4,33.8,44.8,41.7ZM377.8,492.6c2.3-.9-25.5-21.3-23.8-17.2,2.5,4.3,16.3,16.5,23.8,17.2ZM438.1,555c2.2-2.6-6-7.3-8.3-6.3-2.7,3,5.8,7.5,8.3,6.3ZM450,561.7c-.9-.6-2.6-.9-3.8-.6-6.8,2.1,5.6,4.8,3.8.6ZM513,606.7c-.9-.6-2.6-.9-3.8-.6-6.8,2.1,5.6,4.8,3.8.6ZM564.3,644.7c-6.9-10.2-35.6-29.6-47.9-32.6.2,4.8,43.2,34.4,47.9,32.6ZM576,651.6c-.9-.6-2.6-.9-3.8-.6-6.8,2.1,5.6,4.8,3.8.6ZM594,663.6c-.9-.6-2.6-.9-3.8-.6-6.8,2.1,5.6,4.8,3.8.6ZM636,669c2.2-2.6-6-7.3-8.3-6.3-2.7,3,5.8,7.5,8.3,6.3ZM644.2,671.8c-5.8-3.7-6.3,6.5-2.1,8.2,3.3,1.1,3.8-6.7,2.1-8.2Z" fill="#ef0a7c"/>
  <path d="M1453.1,240.6c-126.7,130-216.3,387.2-398.2,436.8-43.4-45.6,318.3-397.7,398.2-436.8ZM1359.6,344.9c3.2,1.8,11.8-10.6,7.2-11.8-3.4-.2-10,9.1-7.2,11.8ZM1265.3,440.5c-3.8-1.6-10.2,6.1-8.7,8.7,1.8,1.2,9.7-6.9,8.7-8.7ZM1239.5,503.8c5.4,1.5,24.8-23.6,23.4-29.2-8-.8-24.5,22.3-23.4,29.2ZM1110.3,587.9c16.5-12,33.4-32.1,41.6-50.8-15.9,12.7-33.9,31.9-41.6,50.8ZM1169.9,569.3c4.1-5.4-4.3-5.9-5.1-1.1.5,1.9,3.7,2.1,5.1,1.1ZM1071.7,656.8c4.6,3.2,12-7.2,9.4-12.3-5.6-8.7-12.9,7.5-9.4,12.3Z" fill="#ef0a7c"/>
  <path d="M721.5,1077.2c9.9,103-105.3,167.7-158.6,243-404.4,561-84-25.2,158.6-243ZM613,1215.2c9.8-4.9,37.2-27.9,38.1-38.9-12,10.6-29.4,27.4-38.1,38.9Z" fill="#ef0a7c"/>
  <path d="M1142.4,1024.8c159.2,97.2,342.1,218.8,474.6,342.3-62.8,3.8-631.6-379.8-474.6-342.3ZM1211.7,1082.2c1.5-3.3-11.1-9.5-14.3-8.6-2.7,3.5,11.3,10.1,14.3,8.6ZM1337.8,1209.5c-.9-.6-2.6-.9-3.8-.6-6.8,2.1,5.6,4.8,3.8.6Z" fill="#ef0a7c"/>
  <path d="M1737.8,717.5c-94.6,8.7-535.1,164.1-546.8,94.1,165.2-69,369.5-113.2,546.8-94.1ZM1592.9,732.1c-5.6-2.3-40.5,3.3-44.9,7.9-.5,3.6,44.9-5.5,44.9-7.9ZM1427.9,777.4c-3.9-1.7-21,3.9-20.3,8.3,6.4.2,17.2-3,20.3-8.3ZM1383,783.8c-1.2-.9-3.9-1.1-5.6-.9-10.8,1.9,6.9,5.6,5.6.9ZM1370.9,786.6c-3.6-2.2-20.1.2-20.5,4.5,6,1.2,17,0,20.5-4.5ZM1342.7,792.5c-5.9-1.4-20.6-.4-24.7,4.8,1.6,1.2,27.2-1.6,24.7-4.8ZM1206.1,826.2c-1.5-5.5-16.2-3-18-.7.3,4.3,15.5,3.6,18,.7Z" fill="#ef0a7c"/>
  <path d="M35.8,757.5c50.8-38.9-12.1-21.3-35.8-44.1,88.3-.9,233.1,40.8,326.9-9.2,7.9-8.4,37.2-14.2,21.1,3.2-90.5,70.4-216.4,6.8-312.2,50.1Z" fill="#ef0a7c"/>
  <path d="M631,107.9c6.4,5.6-36.4,87.6,1.1,88.6-.2-14.8-7-37.5-.8-53.3,2.1-6.2,10.2-12,7.5-.2-25.9,106.3,107.9,63.7,84.7,302.5,7.3-213.1-194.5-258.6-92.5-337.5Z" fill="#ef0a7c"/>
  <path d="M1376.7,1507.2c-94.2,55.6-86.7-35.8-124.8-90.5-42.8-7.8-117.1-101.9-54.5-102.4,18.1,68.1-1.3,44.4,66.3,90.9,40.5,53.8,28,123.3,113,101.9ZM1200.6,1329.1c-7.7-.3-9.9,18.7-4.6,23.6,6.5-1.7,8.4-18.8,4.6-23.6Z" fill="#ef0a7c"/>
  <path d="M759.9,1435.8c2.8,5.7,2.4,22.8-3.5,22.4-71.6-33.6,70.3,137-27.6,220.7-27.1,8.3,38.6-110.7,19.3-136-2.7-13.6-13.7-24.8-21.5-36.3-27.3-33.7,4.9-103.8,33.3-70.8Z" fill="#ef0a7c"/>
  <path d="M356.6,1198.6c32.8,31.3-44.7,58.6-71.2,57.4-54.8-13.5-84.4,31.4-109.8,72-14.2,19.1-18.8,13.6-13.8-7.6,30.9-133.2,147.3-33.4,194.9-121.9Z" fill="#ef0a7c"/>
  <path d="M1205.2,96.3c-58,63.2-8.3,169.8-89.4,217.5-4.3-29.5,36.9-55.1,37.1-86.4,6.6-50.9-12.4-122,52.3-131.1Z" fill="#ef0a7c"/>
  <path d="M1585.3,472.7c-51.4,63.8-168.1,33.7-214.2,106.4,6.3-55.3,146.7-93.1,214.2-106.4Z" fill="#ef0a7c"/>
  <path d="M1417.6,944.5c64.2-9.2,140,10.4,198.4,16.4-45.4,23.5-119.7-16.7-173.7-6.7-16.2,1.7-64.6,4.9-24.8-9.7Z" fill="#ef0a7c"/>
  <path d="M1391.3,1134.3c-3.8,1.6-10.2-6.1-8.7-8.7,1.8-1.2,9.7,6.9,8.7,8.7Z" fill="#ef0a7c"/>
  <path d="M1065,29.8c-1.4-2.4,4.6-12.3,6.5-7.4.3,2.1-4.1,10-6.5,7.4Z" fill="#ef0a7c"/>
  <path d="M1196.4,1020.2c-2.9,2-7.6-2.7-5.5-5.6,1.6-.8,6.4,4.1,5.5,5.6Z" fill="#ef0a7c"/>
  <path d="M1022.4,708.2c-2.9,2-7.6-2.7-5.5-5.6,1.6-.8,6.4,4.1,5.5,5.6Z" fill="#ef0a7c"/>
  <path d="M1475.3,1100.8c-3.2,2-2.8-8.8.1-5.4.9,1.5.9,4.1-.1,5.4Z" fill="#ef0a7c"/>
</svg>