<?xml version="1.0" encoding="UTF-8"?>
<svg id="Layer_1" data-name="Layer 1" xmlns="http://www.w3.org/2000/svg" viewBox="0 0 235 115">
  <defs>
    <style>
      .cls-1, .cls-2 {
        fill: #fff;
      }

      .cls-1, .cls-3 {
        stroke: #000;
        stroke-miterlimit: 10;
      }

      .cls-3 {
        fill: none;
      }
    </style>
  </defs>
  <path d="M117.5,115c64.89,0,117.5-25.74,117.5-57.5S182.39,0,117.5,0,0,25.74,0,57.5s52.61,57.5,117.5,57.5Z"/>
  <path class="cls-1" d="M120,61c21.54,0,39-9.18,39-20.5s-17.46-20.5-39-20.5-39,9.18-39,20.5,17.46,20.5,39,20.5Z"/>
  <path class="cls-2" d="M102.96,58.62c.25.19.28.26.27.3-.05.1-.59-.19-.96.03-.21.13-.26.38-.3.5-.38,1.29,1.13,2.54.96,3.58-.26,1.55-4.23,2.51-17.19,1.47-2.92.4-4.43,1.04-4.52,1.92-.14,1.37,3.16,3.32,9.9,5.85.62.54.89,1.04.85,1.49-.11,1.12-2.3,1.95-6.58,2.44-2.24-.4-4.83-.58-7.68-.31-.83.08-1.63.18-2.39.31-.17.54-.51,1.88,0,2.79.55.97,1.78.94,2.47.92,3.12-.08,6.36-.05,7.36,0,1.28.07,6.33.28,8.26,4.26.32.66,1.16,2.08.76,3.19-.92,2.61-7.71.99-8.71.74-1.26-.69-2.58.03-2.92,1.19-.09.31-.11.64-.07.97.11.83.63,1.49,1.28,1.77.5.21,1.18.64,1.75,1.52.36.53,1.05,1.54.87,2.77-.17,1.16-1.05,2.08-2.18,2.38-5.39-.17-10.78-.33-16.18-.5-2.06-.07-3.91,1.85-4.02,4.41-.03.44,0,.91.12,1.37.42,1.83,1.71,3.75,5.1,4.36,6.11,1.12,12.58,2.26,19.4,3.4,1.35.23,4.37.76,5.33-1.02.26-.48.55-1.45.28-2.26-.34-1.02-1.31-.99-1.46-1.65-.2-.96,1.54-2.49,3.14-3.4,3.7-2.11,7.44-1.25,8.34-1.07,3.52.69,8.85.89,16.71-1.47,1.68-1.58,1.95-2.56,1.83-3.17-.2-1.06-1.54-1.16-3.64-3.29-1.35-1.37-1.34-1.88-1.32-2.05.13-1.09,2.17-1.55,3.09-1.75,3.97-.89,5.83.74,7.38-.86.59-.59,1.29-1.83,1.09-2.96-.5-2.76-6.35-4.18-11.11-3.8-4.14.33-6.92,1.96-8.28.05-.41-.56-.84-1.65-.55-2.49.95-2.72,9.3-2.21,11.89-2.05.28.02,1.33.08,2.46-.56,1.08-.63,2.37-2,2.18-3.06-.2-1.17-2.09-1.59-3.69-1.93-4.02-.86-6.14.31-7.15-1.3-.43-.69-.58-1.75-.32-2.56.51-1.59,2.57-1.98,7.75-2.33,5.98-.4,10.92-.38,12.11-2.66.16-.31.64-1.21.41-2.05-.25-.89-1.13-1.04-1.14-1.54,0-.74,2.04-1.37,2.59-1.54,5.25-1.57,9.05-3.79,10.68-4.84.62-.4,1.63-1.1,2.8-2.15"/>
  <path class="cls-3" d="M102.88,58.42c-.04.14-.11.35-.24.58-.21.36-.46.53-.54.61-.57.58.97,2.64.84,3.42-.17,1.09-3.98,1.9-17.19,1.47-2.92.4-4.43,1.04-4.52,1.92-.14,1.37,3.16,3.32,9.9,5.85.62.54.89,1.04.85,1.49-.11,1.12-2.3,1.95-6.58,2.44-2.24-.4-4.83-.58-7.68-.31-.83.08-1.63.18-2.39.31-.17.54-.51,1.88,0,2.79.55.97,1.78.94,2.47.92,3.12-.08,6.36-.05,7.36,0,1.28.07,6.33.28,8.26,4.26.32.66,1.16,2.08.76,3.19-.92,2.61-7.71.99-8.71.74-1.26-.69-2.58.03-2.92,1.19-.09.31-.11.64-.07.97.11.83.63,1.49,1.28,1.77.5.21,1.18.64,1.75,1.52.36.53,1.05,1.54.87,2.77-.17,1.16-1.05,2.08-2.18,2.38-5.39-.17-10.78-.33-16.18-.5-2.06-.07-3.91,1.85-4.02,4.41-.03.44,0,.91.12,1.37.42,1.83,1.71,3.75,5.1,4.36,6.11,1.12,12.58,2.26,19.4,3.4,1.35.23,4.37.76,5.33-1.02.26-.48.55-1.45.28-2.26-.34-1.02-1.31-.99-1.46-1.65-.2-.96,1.54-2.49,3.14-3.4,3.7-2.11,7.44-1.25,8.34-1.07,3.52.69,8.85.89,16.71-1.47,1.68-1.58,1.95-2.56,1.83-3.17-.2-1.06-1.54-1.16-3.64-3.29-1.35-1.37-1.34-1.88-1.32-2.05.13-1.09,2.17-1.55,3.09-1.75,3.97-.89,5.83.74,7.38-.86.59-.59,1.29-1.83,1.09-2.96-.5-2.76-6.35-4.18-11.11-3.8-4.14.33-6.92,1.96-8.28.05-.41-.56-.84-1.65-.55-2.49.95-2.72,9.3-2.21,11.89-2.05.28.02,1.33.08,2.46-.56,1.08-.63,2.37-2,2.18-3.06-.2-1.17-2.09-1.59-3.69-1.93-4.02-.86-6.14.31-7.15-1.3-.43-.69-.58-1.75-.32-2.56.51-1.59,2.57-1.98,7.75-2.33,5.98-.4,10.92-.38,12.11-2.66.16-.31.64-1.21.41-2.05-.26-.93-1.15-1.08-1.14-1.54.02-.84,2.99-1.07,6.63-2.3,2.71-.91,4.82-2.05,6.7-3.06,1.43-.77,2.61-1.49,3.47-2.04"/>
  <path d="M121.5,40c2.49,0,4.5-1.12,4.5-2.5s-2.01-2.5-4.5-2.5-4.5,1.12-4.5,2.5,2.01,2.5,4.5,2.5Z"/>
</svg>