<?xml version="1.0" encoding="UTF-8"?>
<svg id="Layer_1" data-name="Layer 1" xmlns="http://www.w3.org/2000/svg" xmlns:xlink="http://www.w3.org/1999/xlink" viewBox="0 0 1983.84 1670.26">
  <defs>
    <style>
      .cls-1, .cls-2 {
        fill: none;
      }

      .cls-2 {
        stroke: #77b09f;
        stroke-miterlimit: 10;
      }

      .cls-3 {
        fill: #a2137d;
      }

      .cls-4 {
        clip-path: url(#clippath);
      }
    </style>
    <clipPath id="clippath">
      <rect class="cls-1" x="-6824" y="-4819.9" width="4285.98" height="2205.35"/>
    </clipPath>
    <clipPath id="clippath-1">
      <path class="cls-2" d="M-4692.29-8688.09c466.98,622.71,933.95,1245.41,1400.93,1868.12,215.85,287.84,430.91,575.64,656.72,855.8,126.59,157.05,254.36,313.34,375.64,474.56,110.03,146.27,219.63,292.87,329.45,439.31,277.12,369.53,554.23,739.06,831.35,1108.59-32.5,33.12-64.99,66.24-97.42,99.43-134.83,138.05-267.84,277.84-396.82,421.39-71.86,79.98-143.63,160.14-208.94,245.63-70.28,91.99-134.85,188.25-196.27,286.34-243.76,389.28-439.39,806.45-683.82,1195.33-104.84,166.8-218.38,333.46-358.53,472.93-131.93,131.29-287.34,236.04-448.51,327.9-346.74,197.62-729.71,339.89-1041.36,594.72-174.71,142.85-312.28,325.35-443,507.8-158.9,221.79-304.59,452.7-451.65,682.39-145.62-194.18-291.23-388.35-436.85-582.53-66.22-88.31-130.11-179.11-201.19-263.61-69.64-82.79-146.12-159.45-223.41-235.03-126.43-123.62-254.55-245.82-361.21-387.49-105.39-139.98-210.25-280.36-315.37-420.54-102.71-136.97-210.65-271.47-307.66-412.55-103.04-149.85-183.47-313.77-269.39-473.62-42.74-79.5-86.68-158.48-135.43-234.49-47.58-74.17-101.64-143.73-154.47-214.17-111.52-148.71-223.04-297.42-334.56-446.13-250.1-333.51-500.2-667.02-750.31-1000.52,146-236.99,290.4-475.41,449.91-703.68,127.98-183.14,263.94-366.21,439.35-506.87,311.96-250.16,698.71-376.85,1047.5-563.87,162.49-87.13,319.01-188.46,450.76-318.45,143.69-141.77,247.04-316.25,332.7-497.71,204.51-433.24,318.61-902.88,521.9-1336.63,49.6-105.82,104.89-209.45,170.78-306.1,61.47-90.16,133.95-171.83,212.02-247.92,141.96-138.37,304.06-251.59,473.06-354.26,41.17-25.01,82.64-49.55,124.11-74.07Z"/>
    </clipPath>
  </defs>
  <g class="cls-4">
    <path class="cls-2" d="M-4692.29-8688.09c466.98,622.71,933.95,1245.41,1400.93,1868.12,215.85,287.84,430.91,575.64,656.72,855.8,126.59,157.05,254.36,313.34,375.64,474.56,110.03,146.27,219.63,292.87,329.45,439.31,277.12,369.53,554.23,739.06,831.35,1108.59-32.5,33.12-64.99,66.24-97.42,99.43-134.83,138.05-267.84,277.84-396.82,421.39-71.86,79.98-143.63,160.14-208.94,245.63-70.28,91.99-134.85,188.25-196.27,286.34-243.76,389.28-439.39,806.45-683.82,1195.33-104.84,166.8-218.38,333.46-358.53,472.93-131.93,131.29-287.34,236.04-448.51,327.9-346.74,197.62-729.71,339.89-1041.36,594.72-174.71,142.85-312.28,325.35-443,507.8-158.9,221.79-304.59,452.7-451.65,682.39-145.62-194.18-291.23-388.35-436.85-582.53-66.22-88.31-130.11-179.11-201.19-263.61-69.64-82.79-146.12-159.45-223.41-235.03-126.43-123.62-254.55-245.82-361.21-387.49-105.39-139.98-210.25-280.36-315.37-420.54-102.71-136.97-210.65-271.47-307.66-412.55-103.04-149.85-183.47-313.77-269.39-473.62-42.74-79.5-86.68-158.48-135.43-234.49-47.58-74.17-101.64-143.73-154.47-214.17-111.52-148.71-223.04-297.42-334.56-446.13-250.1-333.51-500.2-667.02-750.31-1000.52,146-236.99,290.4-475.41,449.91-703.68,127.98-183.14,263.94-366.21,439.35-506.87,311.96-250.16,698.71-376.85,1047.5-563.87,162.49-87.13,319.01-188.46,450.76-318.45,143.69-141.77,247.04-316.25,332.7-497.71,204.51-433.24,318.61-902.88,521.9-1336.63,49.6-105.82,104.89-209.45,170.78-306.1,61.47-90.16,133.95-171.83,212.02-247.92,141.96-138.37,304.06-251.59,473.06-354.26,41.17-25.01,82.64-49.55,124.11-74.07Z"/>
  </g>
  <circle class="cls-3" cx="1036.19" cy="889.44" r="88.48" transform="translate(-7.74 1769.78) rotate(-80.78)"/>
  <path class="cls-3" d="M990.22,738.61c-7.6-63.37-8.12-84.3-1.14-115.83,11.85-53.58,47.11-108.39,131.18-173.14,58.86-45.34,54.38-52.26,77.83-83.14,45.02-59.28,65.48-118.18,88.66-165.03,0,0,5.18-15.85,34.95-69.16,2.01-3.6,6.8-9.94,10.11-9.03,5.52,1.52,9.59-.87,8.08,11-4.14,32.58-28.25,76.43-33.29,90.64-20.75,58.52-30.46,126.16-14.9,170.81,15.27,43.79,17.47,38.83,24.33,82.33,3.59,22.77,12.3,83.04-16.78,149.48-12.85,29.36-38.42,87.78-91.72,107.07-22.61,8.18-30.23,11.2-74.94,21.85-31.22,7.44-22.69,3.91-41.69,9.3-30.76,8.73-96.7,6.04-100.68-27.17Z"/>
  <path class="cls-3" d="M1172.95,841.12c2.7,44.45,146.63,80.6,243.9,84.21,14.45.54,216.64-13.09,298.31-110.75,39.8-47.6,56.85-96.8,56.85-96.8,13.29-25.44,11.37-25.85,20.14-39.39,6.72-10.38,41.57-64.23,107.26-90.07,35.9-14.12,65.53-15.41,71.42-26.94,2.54-4.97,3.88-14.81-13.67-18.28-71.97-14.24-80.2-19.8-151.9-18.63-49.67.81-58.92-3.23-113.46-3.22-127.76.03-195.63,13.75-251.22,50.24-63.02,41.36-62.81,47.96-126.86,135.35-70.08,95.61-142.83,100.31-140.77,134.27Z"/>
  <path class="cls-3" d="M1188.51,945.35c15.84-13.2,61.59,7.42,175.19,45.49,87.45,29.31,120.91,43.7,168.87,91.91,54.69,54.97,52.91,48.87,140.6,160.71,38.12,48.62,79.24,110.85,137.92,177.69,47.88,54.54,103.24,116,165.72,182.6,8.75,7.56,9.01,20.35,2.56,27.07-6.89,7.18-20.89,6.88-28.42-3.01-38.19-32.18-72.96-54.04-98.24-68.26-36.56-20.55-59.87-33.4-93.68-39.9-35.78-6.88-54.51-1.1-98.18,1.2,0,0-55.23,2.92-137.98-8.13-131.42-17.54-256.04-162.65-314.9-286.11,0,0-55.65-116.74-35.55-247.73,1.32-8.58,4.16-23.61,16.08-33.54Z"/>
  <path class="cls-3" d="M857.23,1099.02c25.32-23.51,82.81-76.9,152.68-63.07,67.84,13.42,109.95,82.82,121.13,137.72,12.19,59.83-12.75,110.58-62.63,212.08-37.09,75.48-61.5,100.1-101.85,191.37-16.56,37.44-14.7,88.84-36.58,92.88-11.85,2.19-24.09-9.66-32.64-20.12,25.28-88.83,12.98-146.1-2.87-181.95-14.74-33.34-29.13-40.43-63.29-103.26-31.61-58.14-47.41-87.22-48.3-119.92-2.03-74.8,57.31-129.9,74.35-145.72Z"/>
  <path class="cls-3" d="M911.35,862.71c19.71,30.57-43.63,107.83-85.47,148.53-27.2,26.46-97.55,93.19-207.06,115.57-19.68,4.02-58.65,5.48-135.78,8.24-82.78,2.96-132.75,3.32-158.24,3.96-64.88,1.63-159.7,11.38-283.37,49.32-17.2.38-39.87-.23-41.35-6.9-1.42-6.43,17.53-15.68,25.13-19.4,66.78-32.73,127.09-65.64,136.95-71.26,53.36-30.39,47.56-69.07,95.98-135.01,70.76-96.37,172.28-135.17,221.16-153.85,11.59-4.43,204.25-41,305.38-16.48,28.34,6.87,39.96,14.27,86.47,32.27,25.1,9.72,33.88,35.21,40.2,45Z"/>
  <path class="cls-3" d="M906.45,739.14c56.16-37.34,12.56-191.13-16.03-291.99-30.03-105.94-50.61-178.54-117.53-230.05-72.76-56.01-112.69-19.67-179.17-85.38-40.67-40.2-86.03-75.47-126.6-115.76-5.04-5.01-19.08-19.04-26.18-15.35-10.56,5.49,1.22,46.65,2.17,49.93,12.32,42.18,34.71,62.49,49.97,84.94,20.77,30.56,16.39,47.47,29.98,138.24,13.7,91.51,20.56,137.26,39.2,186.78,7.8,20.73,34.51,86.99,92.45,150.08,65.53,71.35,195.86,165.71,251.75,128.56Z"/>
</svg>