<svg width="381" height="363" viewBox="0 0 381 363" fill="none" xmlns="http://www.w3.org/2000/svg">
<g opacity="0.6">
<path d="M49.3772 84.5308C51.2058 85.98 50.6361 86.2868 51.5586 88.1839C51.76 88.6165 53.4333 90.6755 53.7292 90.6066C53.8729 90.5589 54.5049 89.8495 55.0595 89.6946C56.6571 89.2227 59.6112 92.7073 60.8408 93.474C61.6358 93.9739 66.8814 94.8756 67.9804 94.8337C73.2237 94.5317 76.5114 92.3818 81.9839 93.7959C82.64 93.9598 83.2084 94.4468 83.9018 94.6278C87.7694 95.6935 92.6059 96.9074 94.9495 100.272C99.2153 106.376 101.633 112.066 108.496 116.25C111.688 118.187 113.291 118.829 117.226 118.609C119.662 118.476 120.996 117.974 123.182 117.453C126.868 116.552 133.192 120.239 135.858 122.321C139.498 125.167 142.145 129.282 144.583 133.144C145.79 135.035 146.474 136.482 148.106 138.114C149.938 139.974 151.49 138.959 153.71 139.044C155.704 139.116 159.49 139.327 161.323 139.894C162.95 140.411 163.532 141.54 165.459 140.606C168.149 139.272 170.813 137.358 173.976 137.013C174.982 136.179 176.534 136.163 177.559 135.588C178.583 135.012 177.889 134.332 177.962 133.661C178.253 130.685 178.34 129.863 177.088 126.93C175.376 122.856 171.987 118.605 170.916 114.348C170.366 112.122 169.545 104.961 169.856 102.743C169.987 101.759 171.889 95.1625 172.31 94.2883C173.798 91.1791 176.823 88.705 178.772 85.9424C180.72 83.1798 184.47 75.4998 184.791 72.2199C184.968 70.2809 184.28 68.4232 184.274 66.8092C184.256 66.551 185.362 64.0387 185.673 63.8179C187.395 62.5406 189.857 62.4867 190.903 64.3722C192.631 67.5002 195.278 73.1139 195.593 76.5939C196.113 82.4147 191.66 86.8909 190.403 92.4207C190.062 93.9441 189.96 95.9172 189.76 97.4822C189.335 100.738 188.468 101.907 190.345 105.103C192.632 108.986 197.444 109.826 198.805 115.191C199.996 120.025 198.156 123.927 196.804 128.46C196.684 128.882 196.075 131.758 196.152 131.997C198.429 131.563 200.744 132.146 202.963 132.525C204.41 132.779 204.662 132.872 205.946 133.209C206.883 133.456 211.518 134.737 212.084 134.02C212.174 133.902 211.993 133.434 212.114 133.217C214.869 127.101 219.777 119.066 224.597 114.145C228.678 109.998 233.831 107.816 239.258 105.896C247.887 102.853 249.773 100.493 253.741 92.7995C257.312 85.8546 259.56 77.8507 263.48 71.2014C266.056 66.8199 268.827 62.0506 271.792 57.8924C273.44 55.5823 279.717 50.1477 282.432 49.3926C284.009 48.9568 285.976 49.2437 287.572 49.0661C289.748 48.8133 292.232 47.9296 294.513 47.9064C298.412 47.8745 299.684 48.7741 304.213 47.8277C305.492 47.5501 308.742 45.8826 309.191 47.7901C309.329 48.4202 308.424 49.0732 308.462 49.5896C308.498 50.8997 310.883 52.3992 307.618 53.4249C301.997 55.2335 298.254 56.6531 293.205 59.8581C289.765 62.0291 282.992 71.0952 281.851 74.7943C281.011 77.5416 281.506 80.9908 281.076 83.631C280.361 88.0699 277.78 95.1269 275.298 99.0069C270.886 105.908 259.659 109.872 253.817 116.573C253.519 116.936 250.716 121.305 250.629 121.628C250.036 123.558 250.675 126.959 250.22 128.521C249.872 129.724 246.547 135.647 245.678 136.611C244.435 137.994 242.431 138.688 240.949 139.622C238.827 140.943 236.157 142.536 234.247 144.022C233.408 144.683 231.245 146.371 231.328 147.43C231.41 148.285 233.704 150.696 234.313 151.61C235.915 154.045 236.919 156.297 238.887 158.581C239.748 159.588 240.881 159.652 240.3 161.52C240.076 162.212 239.246 162.399 240.338 163.035C241.245 163.586 243.568 163.196 244.387 163.571C244.907 163.809 246.028 165.229 246.706 165.562C247.533 165.963 252.657 167.581 253.535 167.642C258.198 167.915 262.937 163.637 267.044 161.862C272.467 159.532 276.455 157.884 281.953 159.877C285.865 161.28 289.176 162.795 293.625 162.992C304.545 163.449 312.832 153.85 324.555 157.125C325.913 157.496 331.604 159.895 332.406 160.716C333.619 161.929 335.203 164.605 332.862 165.736C332.718 165.784 330.677 165.962 330.451 165.949C329.734 165.893 327.635 164.593 326.877 164.609C322.493 164.714 316.178 165.842 312.473 168.278C307.138 171.783 297.688 180.329 290.904 179.086C290.096 178.943 289.076 178.136 288.233 177.887C285.372 176.986 282.517 176.407 279.403 176.707C277.066 176.954 274.439 177.386 272.449 178.723C270.955 179.719 269.747 181.912 268.461 182.663C267.572 183.164 264.258 184.735 263.374 184.852C262.366 184.981 261.632 184.373 260.766 184.249C256.808 183.596 252.81 183.22 248.995 182.019C248.256 181.794 247.681 180.987 246.408 181.38C244.913 181.876 245.662 182.333 245.521 183.085C244.868 186.122 244.68 189.123 243.657 192.195C243.348 193.12 241.41 196.115 242.543 196.678C243.072 196.943 245.834 197.231 246.816 197.521C248.108 197.885 249.715 198.439 250.995 198.865C251.313 198.966 254.837 202.143 255.059 202.54C256.629 205.074 257.49 206.58 259.671 208.735C261.241 210.27 263.965 211.04 266.108 211.679C268.362 212.37 270.808 212.763 273.187 213.147C279.29 214.146 281.397 213.975 286.25 218.034C286.947 218.625 287.889 219.986 288.647 220.469C294.366 224.152 295.363 229.873 299.072 234.929C299.584 235.64 300.381 235.845 300.697 236.24C301.655 237.449 301.691 237.761 303.385 238.49C305.192 239.271 305.263 239.395 306.893 240.322C308.18 241.07 313.587 242.976 313.958 243.94C314.164 244.488 313.223 245.623 312.809 245.82C311.808 246.27 307.35 243.549 305.944 243.428C304.194 243.422 302.049 244.37 300.428 244.468C299.802 244.499 294.066 243.055 293.322 242.715C286.031 239.584 281.329 227.924 272.402 229.333C267.139 230.17 265.489 232.275 259.77 230.385C251.882 227.775 250.966 218.12 241.98 217.05C240.653 216.874 239.182 217.245 237.934 217.219C234.73 217.137 231.684 216.357 228.723 215.343C227.876 215.477 225.202 219.156 224.207 219.722C223.211 220.288 222.242 220.14 221.302 220.481C220.411 220.777 219.632 221.624 218.812 222.043C216.807 223.032 214.677 223.828 212.593 224.667C212.14 225.141 214.604 230.081 214.59 231.232C214.587 231.82 213.363 233.666 213.118 234.394C212.605 235.975 212.76 237.657 212.407 239.243C211.955 241.215 210.925 242.967 210.775 245.191C210.507 249.834 213.909 257.019 216.606 260.795C218.028 262.761 220.041 264.59 221.32 266.809C224.004 271.441 225.091 277.544 223.8 282.967C223.622 283.702 222.584 284.635 222.258 285.507C221.449 287.656 221.409 292.018 221.417 294.336C221.476 300.105 222.393 304.677 224.441 310.108C224.829 311.125 225.573 311.965 225.892 313.064C226.542 315.404 226.448 316.404 223.57 316.949C221.531 317.333 221.609 316.279 220.477 315.42C215.347 311.689 213.503 309.393 210.657 303.757C208.562 299.576 208.612 294.946 208.354 290.449C208.162 287.251 208.424 283.785 205.154 281.904C202.257 280.193 195.663 278.652 194.221 275.723C192.339 271.911 192.453 269.876 193.298 265.746C193.705 263.731 194.73 261.363 194.861 259.38C195.111 255.977 191.624 247.528 188.67 245.541C187.332 244.634 187.441 244.775 186.187 243.634C185.482 243.016 184.174 242.305 183.837 241.447C183.69 241.085 183.667 239.417 183.704 238.935C183.753 237.891 184.386 236.388 184.313 235.56C184.117 233.451 183.033 234.634 181.663 234.824C180.388 235.013 176.79 235.091 175.39 235.086C174.727 235.101 173.898 234.495 173.202 234.403C172.27 234.272 171.502 234.556 170.588 234.478C169.57 234.375 165.756 232.881 165.014 233.245C164.399 234.507 162.772 234.988 161.936 235.854C159.418 238.424 158.768 244.163 159.635 247.283C160.503 250.403 160.994 252.943 161.065 256.357C161.222 262.533 156.27 269.731 150.874 273.345C146.895 276.019 143.342 277.434 139.092 279.257C136.438 280.403 133.755 281.559 131.063 282.688C128.372 283.817 121.786 284.095 119.695 286.112C115.918 289.717 112.393 292.915 108.372 296.455C106.905 297.735 105.529 300.102 103.47 300.521C101.793 300.844 101.136 299.681 100.713 298.352C100.112 296.466 102.658 296.178 103.124 294.848C103.337 294.219 102.781 292.876 103.096 292.067C104.768 289.836 107.532 287.537 109.193 285.37C109.93 284.39 109.906 283.517 110.392 282.65C112.965 277.859 119.281 274.938 123.784 271.914C125.143 270.993 126.796 270.297 127.827 269.543C128.858 268.789 129.747 266.79 130.839 265.928C131.002 265.344 130.229 265.013 130.317 264.191C130.5 262.573 132.805 259.134 132.88 257.875C133.008 255.482 131.524 254.417 130.977 252.601C129.922 249.191 130.883 246.521 133.093 243.584C134.676 241.471 136.825 240.934 138.593 239.201C140.361 237.467 141.835 234.216 142.568 231.828C143.301 229.439 143.35 225.604 144.292 223.675C144.567 223.143 145.991 222.023 145.689 221.477C143.461 219.073 141.225 216.643 138.772 214.432L136.487 210.255C134.216 210.51 131.721 210.457 129.495 210.256C128.053 210.119 127.348 210 126.125 209.554C121.904 208.077 116.614 206.838 111.964 207.706C105.601 208.88 101.356 212.317 95.7677 215.026C92.385 216.678 88.1551 217.966 84.9415 219.65C79.8837 222.329 78.324 224.317 72.19 225.414C67.7417 226.216 67.7312 225.485 63.7979 224.911C55.3377 223.696 52.1522 223.873 44.4229 220.065C43.1866 219.477 41.67 219.804 40.8948 218.269C39.8471 216.179 41.7091 213.445 44.4032 214.518C46.4361 215.312 47.463 216.44 50.0029 216.83C55.4582 217.692 64.3959 217.015 68.6346 212.962C71.1174 210.58 72.11 207.313 73.5221 204.464C75.5171 200.452 80.8467 193.54 85.2168 191.794C85.6394 191.624 90.9482 190.331 91.3557 190.313C93.1783 190.148 96.8615 190.835 98.7316 190.918C102.785 191.071 106.251 190.477 109.601 187.925C109.513 187.249 108.745 187.034 108.579 186.413C107.935 183.895 112.821 185.063 113.923 184.433C116.345 182.159 119.162 179.431 122.501 178.439C122.76 178.353 126.572 177.851 126.799 177.864C127.223 177.899 128.015 178.488 128.539 178.637C129.625 178.952 134.319 179.919 135.332 179.906C137.111 179.903 136.208 179.263 136.674 177.933C137.248 176.244 139.412 172.263 139.609 170.788C139.666 170.269 139.422 169.704 139.468 169.248C139.693 167.263 141.423 165.808 142.247 164.006C142.211 163.695 137.934 161.443 137.299 160.948C136.914 160.636 134.564 158.449 134.33 158.115C131.804 154.077 131.945 149.535 127.997 145.822C120.74 139.008 103.34 137.266 93.4612 133.496C91.5772 132.771 86.1138 129.091 84.899 127.673C83.6842 126.255 82.6696 122.773 81.7438 120.965C79.6112 116.767 76.7311 112.317 72.92 109.235C69.1088 106.152 66.5238 106.717 62.3921 105.122C60.5081 104.397 60.6315 104.385 58.5312 103.878C55.2014 103.104 50.7378 100.268 49.0911 97.4946C48.2721 96.1214 47.7519 94.0906 47.0073 92.7514C46.5808 92.0116 45.1161 91.2054 44.8213 89.9812C44.6416 89.2182 46.3196 87.1037 46.1503 86.5723C46.0317 86.2003 41.626 84.3438 44.9309 82.7465C46.5791 81.9346 48.1999 83.6291 49.3772 84.5308ZM90.4631 109.43C90.5033 108.859 88.423 107.816 88.1916 108.187C88.5436 108.893 89.7156 109.179 90.4631 109.43ZM293.733 53.3366C293.878 52.9945 291.316 52.4353 292.343 54.0626L293.733 53.3366ZM180.761 124.094C180.802 123.228 181.286 122.45 180.768 121.623C180.404 121.979 180.385 123.014 180.405 123.477C180.415 123.709 180.326 124.326 180.769 124.12L180.761 124.094ZM257.801 106.435L257.398 105.57C256.99 106.087 257.158 106.414 257.801 106.435ZM226.698 121.732C226.212 121.805 225.977 122.265 226.191 122.635L226.698 121.732ZM224.036 124.35C223.118 124.861 222.2 125.871 221.862 126.806C222.635 126.138 223.735 125.302 224.036 124.35ZM177.506 140.806C176.772 141.196 175.823 141.511 175.127 141.919C174.914 142.048 174.434 142.237 174.593 142.537C175.426 142.26 176.285 142.063 177.076 141.653C177.482 141.43 177.847 141.28 177.543 140.823L177.506 140.806ZM150.318 152.334L149.215 150.967C148.664 151.532 149.857 152.282 150.318 152.334ZM216.417 146.419C215.871 146.101 215.157 144.957 214.472 144.803C214.163 144.729 213.748 144.926 213.468 144.843C208.092 143.632 205.12 141.387 198.979 142.164C195.462 142.597 191.786 143.231 188.2 143.746C182.36 144.57 178.58 146.472 173.496 149.365C165.568 153.909 160.653 159.331 154.924 165.788C154.46 166.325 152.606 168.086 152.533 168.257C152.452 168.402 152.677 168.709 152.498 168.945C152.128 169.479 150.674 170.902 150.612 171.305C150.526 171.833 150.961 172.1 150.976 172.447C151.003 172.732 150.246 174.247 150.039 174.492C149.753 174.793 149.381 174.622 149.011 175.157C148.551 175.809 147.423 179.151 147.557 179.87C148.545 179.278 147.862 180.327 147.8 180.73C145.832 192.108 148.344 208.667 156.178 217.288C163.121 224.912 171.756 227.773 182.7 226.312C189.955 225.341 197.957 223.124 204.685 219.802C205.505 219.383 205.802 218.52 206.582 218.173C207.525 217.742 208.638 217.843 209.782 217.345C216.813 214.275 222.013 207.553 226.952 202.21C228.588 200.462 231.749 197.914 232.446 195.713C233.287 192.966 234.305 190.277 235.043 187.506C236.015 183.775 233.969 181.545 233.195 178.218C232.844 176.719 232.604 175.565 234.184 174.54L235.575 176.811C235.815 176.466 235.937 176.25 235.925 175.813C235.894 175.118 235.729 172.705 235.568 172.2C235.365 171.563 234.747 171.121 234.569 170.563C234.341 169.846 234.663 169.063 234.25 167.966C233.837 166.87 232.922 166.292 232.458 165.535C231.614 164.082 230.915 162.287 230.09 160.798C229.8 160.983 230.037 162.226 230.105 162.439C230.274 162.97 230.797 163.414 230.86 164.01C228.333 163.762 228.423 161.352 227.783 159.743C225.77 154.624 224.014 151.505 219.614 147.972C218.191 146.799 217.588 147 216.466 146.373L216.417 146.419ZM161.082 154.194C160.712 154.229 160.492 154.537 160.507 154.885L161.226 154.646L161.082 154.194ZM160.095 155.286C158.754 155.966 157.651 157.391 156.858 158.594C157.982 157.633 159.331 156.48 160.095 155.286ZM143.875 183.474C143.209 183.577 143.486 183.75 143.407 184.099C143.204 184.96 142.992 186.088 143.361 186.847C144.097 185.868 143.37 184.581 143.895 183.437L143.875 183.474ZM81.9112 205.555C81.2958 205.818 80.1968 205.86 80.1008 206.656C80.7161 206.393 81.8152 206.351 81.9112 205.555ZM120.238 200.257C119.871 200.203 119.523 200.906 119.663 200.947C120.03 201.002 120.378 200.299 120.238 200.257ZM79.2764 218.33C77.8968 218.788 76.7372 219.438 75.3289 219.905C73.7195 220.44 71.8308 220.597 70.1657 221.356C69.8377 221.524 69.4692 221.764 69.9648 221.922C73.0484 220.927 76.1103 220.263 79.0755 218.896C79.4119 218.755 79.8006 218.479 79.3051 218.32L79.2764 218.33ZM281.868 165.194C282.282 164.498 280.727 163.81 280.459 164.163C280.438 164.199 280.408 165.003 280.603 165.114C280.843 165.27 281.501 165.139 281.868 165.194ZM284.034 165.209C284.034 165.209 283.416 164.767 283.171 164.996C283.082 165.114 283.789 165.437 284.034 165.209ZM321.786 161.6C321.598 161.309 321.223 161.229 320.924 161.387L321.068 161.838L321.786 161.6ZM157.096 230.939L156.769 230.313C156.578 230.611 156.448 230.801 156.607 231.101L157.096 230.939ZM155.578 239.64C154.949 239.761 154.765 240.38 155.416 240.428C155.548 240.443 155.477 239.821 155.578 239.64ZM189.07 239.415L188.782 238.512L188.552 238.588L188.84 239.491L189.07 239.415ZM156.047 250.385C155.448 250.202 153.563 253.56 156.7 251.637C156.773 251.466 156.113 250.392 156.047 250.385ZM269.887 225.232L268.324 224.517L268.68 225.633L269.887 225.232ZM207.823 252.782L207.198 250.023C206.664 250.641 206.863 252.661 207.823 252.782ZM209.743 257.11L209.254 257.272C209.407 257.751 209.47 258.347 210.06 258.503L209.743 257.11Z" fill="#D76F2D"/>
<path d="M227.59 195.534C227.06 196.562 226.776 197.068 226.268 198.265C220.085 212.571 206.923 218.941 191.798 223.143C187.066 224.45 182.222 225.707 177.396 225.224C175.624 225.049 173.479 224.204 171.65 224.048C170.638 222.268 170.893 223.27 169.678 223.145C169.546 223.131 168.213 222.339 167.87 222.16C167.423 221.955 166.748 222.032 166.314 221.766C165.581 221.362 165.376 220.52 164.85 220.166C164.001 219.596 162.709 218.732 161.811 218.208C161.385 217.967 160.664 218.001 160.336 217.669C159.78 217.12 159.471 215.753 159.033 215.076C158.156 213.722 157.271 212.341 156.395 210.987C153.29 206.231 150.668 204.487 150.365 198.153C150.179 194.277 150.946 193.494 151.876 190.129C152.028 189.609 151.4 188.436 153.002 188.874C154.005 189.128 153.346 191.051 153.391 191.889C153.456 193.189 153.453 194.776 153.558 196.005C154.186 203.758 159.613 208.42 163.498 214.827C168.767 218.394 173.764 221.406 180.781 220.985C190.415 220.4 207.27 213.949 214.602 207.635C219.784 203.151 221.199 199.714 223.462 193.85C226.091 187.042 225.644 185.839 225.526 178.885C225.49 177.076 226.057 175.565 225.642 173.764C224.899 170.338 221.969 163.437 219.592 160.966C211.609 152.57 201.186 148.688 188.843 150.349C187.959 150.466 187.157 150.145 186.08 150.356C182.142 151.165 177.443 153.372 173.993 155.311C168.002 158.653 164.98 162.037 161.256 167.504C159.273 170.455 159.908 173.446 159.244 176.547C159.152 176.959 158.721 177.102 158.708 177.459C158.684 177.584 158.934 179.764 158.939 179.88C159.032 180.172 159.494 180.224 159.492 180.518C159.486 181.196 158.379 182.21 158.762 183.611C158.872 183.956 159.324 184.277 159.339 184.624C159.349 184.856 158.889 185.008 158.854 185.196C158.722 185.681 159.197 188.667 159.311 189.422C159.411 190.036 160.592 190.848 158.887 190.885C159.067 191.648 159.902 192.076 160.082 192.839C160.407 194.259 159.629 193.313 160.834 194.998C162.147 196.825 161.459 197.259 161.88 198.382C162.458 199.894 168.472 206.799 169.932 207.989C171.475 209.239 178.439 211.744 180.609 212.169C194.278 214.768 209.67 204.925 212.827 192.094C215.357 181.881 218.366 171.48 209.105 163.862C206.094 161.395 202.015 160.164 198.228 158.954C196.003 158.254 194.298 157.792 191.882 158.389C188.912 159.14 185.209 159.988 182.484 161.511C178.493 163.747 177.001 165.947 174.311 169.074C173.549 169.973 172.34 170.668 171.574 171.657C170.679 172.836 168.912 177.066 168.813 178.451C168.539 181.979 168.748 186.023 169.691 189.382C170.201 191.182 171.061 193.981 171.698 195.679C172.474 197.713 176.674 201.518 178.627 202.662C179.062 202.928 179.711 202.772 180.204 203.019C182.11 203.914 184.757 205.238 187.026 205.278C189.768 205.307 195.118 203.941 197.706 202.788C201.832 200.976 207.062 192.952 208.035 188.926C209.903 181.225 209.19 175.498 202.519 170.721C198.537 167.901 198.008 168.635 193.453 168.003C193.123 167.966 192.761 167.528 192.13 167.444C190.493 167.194 184.899 168.289 183.2 168.941C180.848 169.84 178.45 172.987 177.704 175.233C177.415 176.122 177.118 177.484 176.864 178.479C175.588 183.252 175.707 185.122 178.465 189.288C182.467 195.363 187.915 199.194 195.249 193.585C195.834 193.126 198.526 190.205 198.724 189.728C198.837 189.484 198.627 189.025 198.773 188.683C200.287 184.86 200.425 182.699 198.622 179.037C197.91 177.599 195.259 175.865 193.643 175.579C193.069 175.476 189.265 175.506 188.702 175.634C188.262 175.751 185.116 176.649 184.895 176.752C184.693 176.819 182.714 178.886 182.699 179.038C183.072 180.207 182.638 181.439 182.833 182.549C182.984 183.322 183.929 186.386 184.365 186.858C184.502 186.989 186.686 188.555 186.838 188.534C187.274 188.507 189.672 187.652 190.172 187.427C191.136 186.96 192.693 184.268 192.262 183.413C192.148 183.157 191.862 182.958 191.622 182.802C190.139 181.738 188.542 184.208 186.144 183.065C184.759 182.409 184.687 180.288 185.841 179.522C186.754 178.896 190.698 178.408 191.869 178.49C193.925 178.659 196.665 180.275 196.996 182.31C197.382 184.62 195.947 188.593 193.839 190.058C192.849 190.739 188.845 192.04 187.545 192.148C185.883 192.319 183.079 191.898 182.096 190.609C179.617 187.319 177.526 181.256 179.562 177.172C179.878 176.567 182.389 173.677 182.913 173.326C183.097 173.206 184.637 173.253 185.192 173.098C186.93 172.668 189.378 171.472 191.033 171.481C192.083 171.485 193.758 172.25 194.879 172.378C196.358 172.532 197.154 171.739 198.411 172.791C200.871 174.824 202.304 176.727 203.663 179.596C204.418 181.167 204.123 182.734 203.841 184.443C203.022 189.651 202.238 193.173 197.918 196.871C192.212 201.704 187.452 201.728 181.586 198.182C177.182 195.532 177.581 193.695 174.538 190.828C174.31 190.61 173.813 190.746 173.679 190.526C173.491 190.236 173.277 187.868 173.14 187.238C172.455 184.292 171.738 181.445 172.859 178.282C173.104 177.554 173.755 177.103 173.976 176.5C174.311 175.655 174.166 174.204 174.475 173.279C175.807 169.282 180.242 165.546 184.528 164.534C185.005 164.434 185.781 164.676 186.468 164.536C191.195 163.612 194.267 163.678 198.798 164.729C201.884 165.438 206.238 167.929 208.418 170.083C208.838 170.502 211.923 175.295 212.229 175.957C212.7 177.035 213.134 179.594 213.173 180.814C213.224 183.266 212.534 183.994 213.004 186.864C213.75 191.2 205.082 203.393 201.179 205.806C198.631 207.387 195.206 208.407 192.393 209.254C191.091 209.657 184.004 209.161 182.891 208.561C180.703 207.378 178.134 206.498 175.895 205.156C174.09 204.081 169.353 199.69 168.664 197.627C167.941 195.458 166.722 192.132 166.234 190.002C166.015 189.017 166.17 187.908 165.957 187.039C165.743 186.169 165.051 185.195 164.936 184.234C164.89 183.691 165.508 181.84 165.509 181.047C165.522 179.691 164.94 178.562 165.231 177.084C165.353 176.368 168.052 169.978 168.418 169.532C168.903 168.96 170.135 168.139 170.698 167.512C172.594 165.383 174.092 163.799 176.088 161.784C176.324 161.53 176.246 161.085 176.459 160.956C176.643 160.836 177.656 160.823 178.185 160.588C181.489 159.285 185.035 156.55 188.67 155.489C195.672 153.428 204.793 156.215 210.429 159.838C214.864 162.683 214.831 164.575 217.689 168.356C218.355 169.251 219.069 169.395 219.48 170.787C221.276 176.918 219.443 184.931 218.045 191.213C215.052 204.459 199.364 218.161 184.779 216.777C183.761 216.675 182.435 216.205 181.348 216.184C180.932 216.175 180.276 216.51 180.099 216.452C179.987 216.401 179.992 216.017 179.826 215.896C179.698 215.792 177.141 215.348 176.571 215.156C175.319 214.719 174.291 213.886 173.192 213.428C171.869 212.869 169.843 212.396 168.619 211.745C164.808 209.661 160.434 202.917 158.083 199.232C157.252 197.922 156.816 197.45 156.397 195.738C155.543 192.26 155.309 187.637 155.056 184.049C154.335 173.711 157.258 162.839 166.69 156.033C167.128 155.711 167.754 155.68 168.163 155.368C169.026 154.787 169.979 153.09 170.906 152.606C172.557 151.704 176.718 149.999 178.601 149.227C188.272 145.368 201.305 146.268 210.635 149.515C214.427 150.841 218.612 154.299 221.504 156.893C225.339 160.349 225.382 160.482 227.058 165.243C228.033 168.004 229.95 170.129 230.449 173.489C230.59 174.53 230.156 175.761 230.136 176.796C230.151 179.934 230.44 183.335 230.361 186.475C230.309 188.608 228.724 193.307 227.712 195.318L227.59 195.534Z" fill="#D76F2D"/>
</g>
</svg>
