<svg width="256" height="232" viewBox="0 0 256 232" fill="none" xmlns="http://www.w3.org/2000/svg">
<g opacity="0.6">
<path d="M163.341 159.674C112.272 199.148 55.0073 211.405 35.4364 187.049C15.8654 162.693 41.3996 110.949 92.4687 71.4746C143.538 32.0003 200.803 19.7441 220.374 44.0997C239.945 68.4553 214.41 120.2 163.341 159.674Z" fill="black"/>
<path d="M128.095 119.779C111.144 132.882 91.7465 136.464 84.769 127.78C77.7916 119.097 85.8764 101.437 102.827 88.3344C119.778 75.2323 139.175 71.6502 146.153 80.3335C153.13 89.0168 145.045 106.677 128.095 119.779Z" fill="white" stroke="black" stroke-miterlimit="10"/>
<path d="M137.815 107.81C139.446 109.506 139.974 106.675 141.323 107.624C142.417 108.38 142 110.262 142.776 110.956C143.94 111.987 147.655 110.305 157.208 101.628C159.75 100.156 161.337 99.7301 161.948 100.345C162.907 101.309 161.51 104.811 157.758 110.852C157.608 111.646 157.696 112.194 158.001 112.512C158.776 113.309 161.013 112.607 164.682 110.387C166.197 108.723 168.124 107.008 170.533 105.474C171.235 105.034 171.928 104.622 172.609 104.259C173.08 104.573 174.173 105.391 174.329 106.4C174.495 107.483 173.512 108.201 172.954 108.613C170.45 110.445 167.914 112.446 167.158 113.092C166.195 113.919 162.353 117.155 163.285 121.383C163.443 122.082 163.656 123.683 164.648 124.292C166.981 125.733 171.324 120.364 171.957 119.566C172.524 118.266 174.006 118.023 174.988 118.702C175.253 118.887 175.467 119.132 175.64 119.409C176.066 120.106 176.059 120.933 175.725 121.54C175.464 122.009 175.19 122.754 175.285 123.769C175.331 124.391 175.403 125.587 176.311 126.425C177.158 127.207 178.422 127.381 179.495 126.921C183.636 123.514 187.777 120.108 191.919 116.702C193.503 115.395 196.132 115.744 197.803 117.635C198.098 117.961 198.362 118.332 198.554 118.758C199.353 120.42 199.519 122.673 197.225 125.206C193.109 129.784 188.719 134.587 184.057 139.614C183.134 140.615 181.089 142.852 179.235 142.068C178.733 141.861 177.905 141.29 177.623 140.501C177.261 139.508 178.048 138.941 177.754 138.347C177.319 137.492 175.007 137.37 173.185 137.65C168.974 138.276 166.554 141.215 165.962 141.898C163.616 144.574 159.546 147.965 151.903 150.938C149.601 150.746 148.793 150.159 148.51 149.618C148.014 148.688 149.009 147.796 149.352 144.882C149.573 143.007 149.247 142.622 149.125 142.512C148.349 141.756 146.46 142.641 145.614 143.049C141.939 144.781 141.487 147.163 139.279 146.878C138.447 146.782 137.135 146.256 136.598 145.275C135.292 142.856 139.022 138.207 143.002 135.603C146.466 133.336 149.657 132.902 149.553 130.601C149.528 129.923 149.198 128.823 148.451 128.353C146.027 126.839 139.77 132.311 137.833 134.014C137.626 134.195 136.839 134.885 135.552 135.079C134.317 135.254 132.458 134.987 131.952 134.064C131.384 133.045 132.62 131.576 133.669 130.335C136.307 127.228 138.695 126.839 138.495 124.982C138.409 124.187 137.871 123.288 137.166 122.827C135.785 121.924 133.927 122.867 129.635 125.753C124.682 129.089 120.812 132.101 118.465 131.082C118.148 130.937 117.215 130.549 116.883 129.759C116.53 128.923 117.132 128.273 116.837 127.885C116.379 127.315 114.388 128.074 113.851 128.283C106.991 130.958 104.408 131.251 102.466 131.068C101.398 130.97 99.503 131.306 98.939 131.126" fill="white"/>
<path d="M137.815 107.81C139.446 109.506 139.974 106.675 141.323 107.624C142.417 108.38 142 110.262 142.776 110.956C143.94 111.987 147.655 110.305 157.208 101.628C159.75 100.156 161.337 99.7301 161.948 100.345C162.907 101.309 161.51 104.811 157.758 110.852C157.608 111.646 157.696 112.194 158.001 112.512C158.776 113.309 161.013 112.607 164.682 110.387C166.197 108.723 168.124 107.008 170.533 105.474C171.235 105.034 171.928 104.622 172.609 104.259C173.08 104.573 174.173 105.391 174.329 106.4C174.495 107.483 173.512 108.201 172.954 108.613C170.45 110.445 167.914 112.446 167.158 113.092C166.195 113.919 162.353 117.155 163.285 121.383C163.443 122.082 163.656 123.683 164.648 124.292C166.981 125.733 171.324 120.364 171.957 119.566C172.524 118.266 174.006 118.023 174.988 118.702C175.253 118.887 175.467 119.132 175.64 119.409C176.066 120.106 176.059 120.933 175.725 121.54C175.464 122.009 175.19 122.754 175.285 123.769C175.331 124.391 175.403 125.587 176.311 126.425C177.158 127.207 178.422 127.381 179.495 126.921C183.636 123.514 187.777 120.108 191.919 116.702C193.503 115.395 196.132 115.744 197.803 117.635C198.098 117.961 198.362 118.332 198.554 118.758C199.353 120.42 199.519 122.673 197.225 125.206C193.109 129.784 188.719 134.587 184.057 139.614C183.134 140.615 181.089 142.852 179.235 142.068C178.733 141.861 177.905 141.29 177.623 140.501C177.261 139.508 178.048 138.941 177.754 138.347C177.319 137.492 175.007 137.37 173.185 137.65C168.974 138.276 166.554 141.215 165.962 141.898C163.616 144.574 159.546 147.965 151.903 150.938C149.601 150.746 148.793 150.159 148.51 149.618C148.014 148.688 149.009 147.796 149.352 144.882C149.573 143.007 149.247 142.622 149.125 142.512C148.349 141.756 146.46 142.641 145.614 143.049C141.939 144.781 141.487 147.163 139.279 146.878C138.447 146.782 137.135 146.256 136.598 145.275C135.292 142.856 139.022 138.207 143.002 135.603C146.466 133.336 149.657 132.902 149.553 130.601C149.528 129.923 149.198 128.823 148.451 128.353C146.027 126.839 139.77 132.311 137.833 134.014C137.626 134.195 136.839 134.885 135.552 135.079C134.317 135.254 132.458 134.987 131.952 134.064C131.384 133.045 132.62 131.576 133.669 130.335C136.307 127.228 138.695 126.839 138.495 124.982C138.409 124.187 137.871 123.288 137.166 122.827C135.785 121.924 133.927 122.867 129.635 125.753C124.682 129.089 120.812 132.101 118.465 131.082C118.148 130.937 117.215 130.549 116.883 129.759C116.53 128.923 117.132 128.273 116.837 127.885C116.379 127.315 114.388 128.074 113.851 128.283C106.991 130.958 104.408 131.251 102.466 131.068C101.398 130.97 99.503 131.306 98.939 131.126" stroke="black" stroke-miterlimit="10"/>
<path d="M113.972 104.586C112.016 106.098 109.741 106.465 108.89 105.406C108.039 104.347 108.935 102.263 110.891 100.751C112.847 99.2393 115.122 98.8722 115.973 99.9312C116.824 100.99 115.928 103.074 113.972 104.586Z" fill="black"/>
</g>
</svg>
